<svg width="128" height="164" viewBox="0 0 128 164" fill="none" xmlns="http://www.w3.org/2000/svg">
<g id="recording/amico">
<g id="Shadows">
<g id="shadow" style="mix-blend-mode:multiply" opacity="0.15">
<path d="M68.6462 159.538C86.3455 159.538 100.694 151.254 100.694 141.034C100.694 130.815 86.3455 122.53 68.6462 122.53C50.9469 122.53 36.5988 130.815 36.5988 141.034C36.5988 151.254 50.9469 159.538 68.6462 159.538Z" fill="#AF1743"/>
</g>
</g>
<g id="musical-notes">
<path id="musical-note" d="M103.559 21.7482L101.59 25.3988C101.435 25.2289 101.231 25.1127 101.006 25.0668C100.78 25.021 100.547 25.048 100.338 25.1439C100.129 25.2398 99.9563 25.3997 99.8445 25.6003C99.7326 25.801 99.6875 26.032 99.7157 26.26C99.7439 26.488 99.8439 26.7011 100.001 26.8685C100.159 27.0358 100.365 27.1488 100.591 27.191C100.817 27.2332 101.05 27.2025 101.257 27.1032C101.464 27.0039 101.635 26.8413 101.743 26.6389L103.513 23.3877L107.27 24.3166L105.524 27.5678C105.443 27.4735 105.345 27.3948 105.236 27.3356C105.045 27.2374 104.83 27.1979 104.617 27.222C104.403 27.2461 104.202 27.3327 104.038 27.471C103.874 27.6093 103.755 27.7931 103.695 27.9991C103.635 28.2052 103.638 28.4243 103.702 28.6289C103.767 28.8335 103.89 29.0144 104.057 29.1489C104.225 29.2833 104.428 29.3653 104.642 29.3844C104.855 29.4035 105.07 29.359 105.258 29.2564C105.447 29.1538 105.601 28.9978 105.7 28.8079L108.589 23.3459L103.559 21.7482Z" fill="#BA68C8"/>
<path id="musical-note_2" d="M33.7239 8.95712L35.7071 12.5984C35.5848 12.6152 35.4667 12.6546 35.3588 12.7146C35.1715 12.818 35.0192 12.9745 34.9209 13.1645C34.8226 13.3544 34.7828 13.5693 34.8065 13.7818C34.8302 13.9944 34.9164 14.1951 35.0541 14.3588C35.1919 14.5224 35.375 14.6415 35.5804 14.7011C35.7858 14.7607 36.0042 14.7581 36.2082 14.6937C36.4121 14.6292 36.5924 14.5058 36.7262 14.3389C36.86 14.1721 36.9414 13.9694 36.9601 13.7563C36.9787 13.5432 36.9338 13.3294 36.8311 13.1419L35.0569 9.89067L37.8436 7.23864L39.6132 10.4898C39.4899 10.5087 39.3706 10.5479 39.2602 10.6059C39.0789 10.7177 38.9344 10.8802 38.8447 11.0734C38.7549 11.2666 38.724 11.4819 38.7556 11.6925C38.7872 11.9031 38.88 12.0998 39.0225 12.2582C39.1649 12.4165 39.3508 12.5295 39.5569 12.583C39.7631 12.6366 39.9804 12.6285 40.182 12.5596C40.3835 12.4907 40.5603 12.364 40.6905 12.1955C40.8207 12.0269 40.8985 11.8238 40.9142 11.6114C40.9299 11.399 40.8829 11.1866 40.7789 11.0007L37.8064 5.61304L33.7239 8.95712Z" fill="#BA68C8"/>
<path id="musical-note_3" d="M25.0804 19.2912L23.1622 22.9651C23.0051 22.7973 22.7987 22.6839 22.5729 22.6412C22.347 22.5986 22.1134 22.629 21.906 22.728C21.6986 22.827 21.5281 22.9895 21.4192 23.1919C21.3103 23.3943 21.2686 23.6261 21.3003 23.8537C21.332 24.0814 21.4353 24.293 21.5953 24.458C21.7553 24.623 21.9637 24.7328 22.1903 24.7714C22.4168 24.8101 22.6498 24.7756 22.8554 24.6729C23.0611 24.5703 23.2287 24.4048 23.334 24.2005L25.0572 20.9075L28.8239 21.7668L27.1286 25.018C27.0457 24.9262 26.9465 24.8506 26.836 24.795C26.6459 24.6973 26.4311 24.658 26.2188 24.6822C26.0064 24.7063 25.8059 24.7928 25.6426 24.9308C25.4793 25.0688 25.3606 25.252 25.3013 25.4574C25.2421 25.6628 25.245 25.8811 25.3096 26.0848C25.3743 26.2886 25.4979 26.4686 25.6648 26.6022C25.8316 26.7358 26.0343 26.817 26.2473 26.8355C26.4602 26.854 26.6739 26.8091 26.8613 26.7063C27.0488 26.6035 27.2016 26.4476 27.3005 26.2581L30.1337 20.8007L25.0804 19.2912Z" fill="#BA68C8"/>
<path id="musical-note_4" d="M89.8625 16.0168C90.0653 15.7234 90.3281 15.4765 90.6335 15.2923C91.0406 15.0534 91.478 14.8707 91.934 14.7489C92.5475 14.5964 93.1448 14.3848 93.7175 14.1172C94.0067 13.9818 94.2649 13.7881 94.4758 13.5484C94.6868 13.3086 94.8461 13.0279 94.9437 12.7238C94.639 12.9368 94.2893 13.0766 93.9219 13.1326C93.044 13.2673 92.064 12.84 91.1351 12.7889C89.8161 12.7192 88.8779 13.3044 87.8607 14.2705C88.432 15.2783 88.9754 16.3048 89.5281 17.3219C89.9647 18.1146 90.3997 18.9119 90.8332 19.7139C90.875 19.7882 91.3999 20.8146 91.3999 20.8146C91.0487 20.8304 90.7056 20.9257 90.3966 21.0933C90.0583 21.2788 89.7825 21.5606 89.6043 21.9028C89.4261 22.2451 89.3533 22.6325 89.3953 23.0161C89.4374 23.3997 89.5922 23.7623 89.8403 24.0579C90.0883 24.3534 90.4185 24.5688 90.789 24.6767C91.1595 24.7846 91.5537 24.7802 91.9217 24.664C92.2897 24.5479 92.615 24.3252 92.8564 24.0241C93.0978 23.723 93.2444 23.3571 93.2778 22.9727C93.3113 22.5882 93.2299 22.2025 93.044 21.8643L89.8625 16.0168Z" fill="#BA68C8"/>
<path id="musical-note_5" d="M41.9633 26.4624C42.318 26.471 42.6667 26.5565 42.9851 26.7132C43.4086 26.929 43.802 27.1991 44.1555 27.5167C44.6154 27.9483 45.1163 28.3341 45.6511 28.6686C45.9192 28.8375 46.219 28.9498 46.5321 28.9985C46.8452 29.0473 47.165 29.0314 47.4717 28.9519C47.129 28.8075 46.8228 28.5885 46.5753 28.3109C45.9901 27.6514 45.8043 26.5739 45.3631 25.8029C44.7082 24.6557 43.705 24.1866 42.3441 23.8568C41.8054 24.8786 41.2387 25.8958 40.686 26.9129C40.2495 27.7118 39.816 28.5107 39.3856 29.3095L38.7678 30.3824C38.5612 30.0965 38.295 29.8588 37.9876 29.6857C37.6481 29.5024 37.2618 29.4238 36.8777 29.4599C36.4935 29.4961 36.1287 29.6453 35.8294 29.8888C35.5301 30.1323 35.3097 30.4591 35.1962 30.8279C35.0826 31.1966 35.0809 31.5908 35.1914 31.9605C35.3018 32.3302 35.5194 32.6588 35.8167 32.9048C36.1139 33.1508 36.4775 33.3032 36.8613 33.3426C37.2451 33.382 37.632 33.3066 37.973 33.1261C38.3141 32.9456 38.5939 32.668 38.7771 32.3285L41.9633 26.4624Z" fill="#BA68C8"/>
</g>
<g id="Plant">
<path id="Vector" d="M25.1217 115.921C25.037 111.367 23.2792 107.004 20.1834 103.663C18.6951 109.813 25.1217 115.921 25.1217 115.921Z" fill="#FF725E"/>
<path id="Vector_2" d="M17.9562 112.45C13.7463 110.715 9.0465 110.585 4.74686 112.083C9.80733 115.905 17.9562 112.45 17.9562 112.45Z" fill="#FF725E"/>
<path id="Vector_3" d="M17.1429 108.463C17.8232 104.937 17.1838 101.284 15.3462 98.1988C13.1828 102.706 17.1429 108.463 17.1429 108.463Z" fill="#FF725E"/>
<path id="Vector_4" d="M44.8427 94.0898C34.3709 96.8752 28.7523 105.981 28.7523 105.981C37.7038 105.986 44.8427 94.0898 44.8427 94.0898Z" fill="#FF725E"/>
<path id="Vector_5" d="M28.1197 98.3795C28.6513 87.0944 17.632 74.3157 17.632 74.3157C19.2957 88.333 28.1197 98.3795 28.1197 98.3795Z" fill="#FF725E"/>
<path id="Vector_6" d="M28.1728 66.2359C27.9547 71.8885 29.3267 77.489 32.133 82.4007C33.6958 75.1396 28.1728 66.2359 28.1728 66.2359Z" fill="#FF725E"/>
<path id="Vector_7" d="M32.4253 89.1675C40.6752 88.2798 45.1828 80.0725 45.1828 80.0725C35.1841 82.8685 32.4253 89.1675 32.4253 89.1675Z" fill="#FF725E"/>
<path id="Vector_8" d="M50.2061 123.671C46.3364 121.274 41.7195 120.384 37.236 121.173C41.6054 125.76 50.2061 123.671 50.2061 123.671Z" fill="#FF725E"/>
<path id="Vector_9" d="M28.8373 127.376C29.8899 130.049 31.8563 132.262 34.3868 133.622C34.0307 129.816 28.8373 127.376 28.8373 127.376Z" fill="#FF725E"/>
<path id="Vector_10" d="M29.9004 126.164C34.5941 129.051 39.7715 127.924 39.7715 127.924C36.5928 124.612 29.9004 126.164 29.9004 126.164Z" fill="#FF725E"/>
<path id="Vector_11" d="M25.6798 141.356C25.6798 141.356 25.6798 141.298 25.6798 141.186C25.6798 141.075 25.6798 140.894 25.6798 140.697C25.6798 140.229 25.6798 139.602 25.6798 138.805C25.6798 138.008 25.6798 136.976 25.6798 135.812C25.6798 134.648 25.6798 133.319 25.7648 131.852C25.8339 128.918 26.0466 125.425 26.3442 121.561C26.6419 117.697 27.1469 113.455 27.7954 109.021C29.0977 100.16 30.8838 92.2346 32.3137 86.5469C33.0366 83.6977 33.6426 81.4014 34.0891 79.8226C34.2964 79.0519 34.4612 78.4406 34.5782 77.9941C34.626 77.8027 34.6685 77.6486 34.7004 77.5157C34.7428 77.4624 34.7736 77.4008 34.7908 77.3349C34.7641 77.3839 34.7427 77.4356 34.727 77.4891C34.6845 77.6167 34.6366 77.7708 34.5728 77.9569L34.0147 79.7642C33.5257 81.3589 32.8772 83.6233 32.1223 86.4619C30.1682 93.8682 28.6226 101.376 27.4924 108.952C26.8439 113.391 26.3868 117.643 26.0678 121.518C25.7489 125.394 25.6054 128.891 25.5682 131.831C25.5203 133.298 25.5363 134.627 25.5363 135.796C25.5363 136.966 25.5363 137.97 25.5841 138.789C25.632 139.608 25.632 140.219 25.6479 140.681L25.6745 141.17C25.6696 141.232 25.6714 141.295 25.6798 141.356Z" fill="#263238"/>
<path id="Vector_12" d="M40.8293 117.463C40.7709 117.378 37.4326 119.589 33.3874 122.348C29.3423 125.106 26.0891 127.451 26.1476 127.536C26.206 127.621 29.5389 125.409 33.5894 122.651C37.64 119.892 40.8825 117.548 40.8293 117.463Z" fill="#263238"/>
<path id="Vector_13" d="M26.137 118.669C25.9851 118.459 25.8064 118.27 25.6054 118.106L24.1595 116.671L19.2001 112.019L14.2406 107.368L12.7363 105.96C12.5624 105.775 12.368 105.611 12.1569 105.471C12.2884 105.688 12.4494 105.887 12.6353 106.061C12.9595 106.422 13.4486 106.932 14.0598 107.554C15.2824 108.798 17.0047 110.473 18.9502 112.291C20.8958 114.108 22.6712 115.714 23.9841 116.862C24.638 117.436 25.1748 117.899 25.5522 118.207C25.7276 118.384 25.924 118.539 26.137 118.669Z" fill="#263238"/>
<path id="Vector_14" d="M51.4234 112.115C51.4234 112.115 42.8918 111.956 39.2878 118.664C41.6809 118.593 44.0244 117.964 46.1314 116.827C48.2384 115.69 50.0505 114.077 51.4234 112.115Z" fill="#FF725E"/>
<path id="Vector_15" d="M39.7769 108.697C39.7769 108.697 32.8293 113.651 33.9297 121.189C35.8111 119.707 37.3198 117.806 38.3351 115.637C39.3504 113.468 39.8442 111.091 39.7769 108.697Z" fill="#FF725E"/>
<path id="Vector_16" d="M3.20001 96.4712C3.20001 96.4712 5.94287 106.039 14.6446 107.735C13.7475 105.095 12.2453 102.702 10.2582 100.746C8.271 98.79 5.85389 97.3261 3.20001 96.4712Z" fill="#FF725E"/>
<path id="Vector_17" d="M43.5616 61C43.5616 61 32.6645 68.0964 33.8871 79.6419C36.8414 77.5039 39.2547 74.7047 40.9345 71.4679C42.6143 68.2311 43.5139 64.6464 43.5616 61Z" fill="#FF725E"/>
<path id="Vector_18" d="M7.35153 124.112C7.56543 124.326 7.80256 124.515 8.0585 124.676C8.52628 125.016 9.19605 125.526 10.0093 126.17C12.1226 127.848 14.0926 129.699 15.8991 131.703C17.6983 133.717 19.3286 135.875 20.7735 138.156C21.3051 139.033 21.7622 139.751 22.0492 140.256C22.1825 140.529 22.3466 140.786 22.5383 141.021C22.4472 140.731 22.326 140.452 22.1768 140.187C21.927 139.655 21.5283 138.916 20.9967 138.018C18.212 133.329 14.533 129.233 10.1688 125.962C9.33425 125.34 8.6379 124.862 8.13823 124.559C7.89295 124.382 7.62918 124.232 7.35153 124.112Z" fill="#263238"/>
<path id="Vector_19" d="M16.8187 131.214C17.6063 126.731 16.7171 122.114 14.3203 118.244C13.1509 126.334 16.8187 131.214 16.8187 131.214Z" fill="#FF725E"/>
<path id="Vector_20" d="M9.49904 127.222C6.61971 125.585 3.23983 125.061 0 125.75C5.25184 128.54 9.49904 127.222 9.49904 127.222Z" fill="#FF725E"/>
<path id="Vector_21" d="M16.101 163.002L34.036 162.98L39.123 139.145H12.3801L16.101 163.002Z" fill="#263238"/>
<path id="Vector_22" d="M10.6047 143.265H40.8187V139.15H10.6047V143.265Z" fill="#263238"/>
<path id="Vector_23" d="M10.8014 143.249C10.8014 143.323 17.5575 143.387 25.8871 143.387C34.2167 143.387 40.9782 143.323 40.9782 143.249C40.9782 143.174 34.222 143.111 25.8871 143.111C17.5522 143.111 10.8014 143.196 10.8014 143.249Z" fill="#455A64"/>
</g>
<g id="Chair">
<g id="chair">
<path id="Vector_24" d="M62.5108 82.0623V151.266C62.5091 151.407 62.5469 151.545 62.6201 151.665C62.6932 151.784 62.7986 151.881 62.9242 151.944C63.1652 152.072 63.4339 152.139 63.7068 152.139C63.9797 152.139 64.2484 152.072 64.4894 151.944C64.6199 151.885 64.7308 151.79 64.8089 151.669C64.8871 151.549 64.9293 151.409 64.9306 151.266V82.0623H62.5108Z" fill="#37474F"/>
<path id="Vector_25" d="M63.7091 137.75C59.0321 137.75 54.355 136.724 50.7926 134.666C47.2303 132.609 45.3074 129.883 45.3074 126.943C45.3074 124.003 47.2535 121.258 50.7926 119.214C57.9174 115.104 69.5055 115.104 76.6256 119.214C80.1648 121.258 82.1108 124.003 82.1108 126.943C82.1108 129.883 80.1648 132.623 76.6256 134.666C73.0679 136.724 68.3862 137.75 63.7091 137.75ZM63.7091 117.045C59.1993 117.045 54.6894 118.039 51.2571 120.022C48.0059 121.88 46.2363 124.346 46.2363 126.943C46.2363 129.539 48.0198 131.991 51.2571 133.863C58.1217 137.825 69.2965 137.825 76.1612 133.863C79.4123 132.005 81.1819 129.534 81.1819 126.943C81.1819 124.351 79.3984 121.889 76.1612 120.022C72.7288 118.039 68.219 117.045 63.7091 117.045Z" fill="#37474F"/>
<path id="Vector_26" d="M53.2125 78.2491L43.027 144.234C43.0124 144.382 43.0439 144.531 43.117 144.661C43.1901 144.791 43.3014 144.895 43.4357 144.959C43.6767 145.087 43.9454 145.154 44.2183 145.154C44.4912 145.154 44.7599 145.087 45.0009 144.959C45.117 144.897 45.2157 144.808 45.288 144.698C45.3602 144.589 45.4037 144.463 45.4143 144.332L55.6323 78.2445L53.2125 78.2491Z" fill="#37474F"/>
<path id="Vector_27" d="M84.4377 144.239L74.3126 78.5139L74.2708 78.2491H71.8649L82.0829 144.346C82.0962 144.475 82.1409 144.598 82.2129 144.706C82.285 144.814 82.3823 144.902 82.4963 144.963C82.7351 145.095 83.004 145.162 83.2766 145.158C83.5507 145.162 83.8211 145.095 84.0615 144.963C84.1898 144.894 84.2943 144.788 84.3614 144.659C84.4285 144.53 84.4551 144.383 84.4377 144.239Z" fill="#37474F"/>
<path id="Vector_28" d="M52.0838 66.517C58.4097 62.8664 68.6648 62.8664 74.9861 66.517C78.149 68.3423 79.7282 70.7343 79.7282 73.1308V76.0662C79.7282 78.4581 78.149 80.8547 74.9861 82.68C68.6648 86.3306 58.4097 86.3306 52.0838 82.68C48.9255 80.8547 47.3464 78.4581 47.3464 76.0662V73.1308C47.3464 70.7343 48.9255 68.3423 52.0838 66.517Z" fill="#263238"/>
<path id="Vector_29" d="M52.0838 65.0911C58.4097 61.4405 68.6648 61.4405 74.9861 65.0911C78.149 66.9164 79.7282 69.3084 79.7282 71.7003V74.631C79.7282 77.023 78.149 79.4149 74.9861 81.2402C68.6648 84.8955 58.4097 84.8955 52.0838 81.2402C48.9255 79.4149 47.3464 77.023 47.3464 74.631V71.691C47.3464 69.3084 48.9255 66.9164 52.0838 65.0911Z" fill="#BA68C8"/>
<path id="Vector_30" opacity="0.5" d="M52.0838 65.0911C58.4097 61.4405 68.6648 61.4405 74.9861 65.0911C78.149 66.9164 79.7282 69.3084 79.7282 71.7003V74.631C79.7282 77.023 78.149 79.4149 74.9861 81.2402C68.6648 84.8955 58.4097 84.8955 52.0838 81.2402C48.9255 79.4149 47.3464 77.023 47.3464 74.631V71.691C47.3464 69.3084 48.9255 66.9164 52.0838 65.0911Z" fill="black"/>
<path id="Vector_31" d="M63.5373 81.0498C72.4818 81.0498 79.7328 76.8639 79.7328 71.7003C79.7328 66.5368 72.4818 62.3508 63.5373 62.3508C54.5927 62.3508 47.3417 66.5368 47.3417 71.7003C47.3417 76.8639 54.5927 81.0498 63.5373 81.0498Z" fill="#BA68C8"/>
<path id="Vector_32" opacity="0.3" d="M63.5373 81.0498C72.4818 81.0498 79.7328 76.8639 79.7328 71.7003C79.7328 66.5368 72.4818 62.3508 63.5373 62.3508C54.5927 62.3508 47.3417 66.5368 47.3417 71.7003C47.3417 76.8639 54.5927 81.0498 63.5373 81.0498Z" fill="black"/>
</g>
</g>
<g id="Character">
<g id="character">
<path id="Vector_33" d="M78.6413 99.7766C76.4723 99.2425 74.3962 100.798 74.1547 101.342C73.8296 102.08 73.7459 103.632 74.4426 105.629C75.0217 107.606 75.133 109.69 74.7677 111.718C74.4194 113.441 73.1236 117.691 74.6424 120.078C76.1611 122.465 79.8582 124.769 81.5674 121.936C82.1247 121.007 81.5674 117.523 81.4373 115.011C81.154 109.999 81.0565 105.044 81.0565 105.044L78.6413 99.7766Z" fill="#263238"/>
<path id="Vector_34" opacity="0.15" d="M74.9814 100.552C74.7027 102.169 75.2694 106.149 77.0807 110.004C78.855 113.78 81.4141 118.726 81.7253 121.323C81.9111 120.166 81.651 117.983 81.4931 116.051C81.4908 116.009 81.4908 115.967 81.4931 115.926L81.4652 115.591C81.4652 115.54 81.4652 115.489 81.4652 115.438C81.4652 115.294 81.4652 115.15 81.4373 115.015V114.988C81.3491 113.422 81.2794 111.862 81.2237 110.454C81.1819 109.33 81.1447 108.304 81.1215 107.454C81.1215 107.031 81.0983 106.651 81.089 106.321C81.089 106.158 81.089 106.005 81.089 105.856C81.089 105.313 81.089 105.006 81.089 105.006L78.6738 99.7627C78.5252 99.7255 78.3905 99.707 78.2512 99.6837C77.0926 99.5746 75.9331 99.8826 74.9814 100.552Z" fill="black"/>
<path id="Vector_35" d="M77.5266 103.632C77.6394 106.061 77.5664 108.496 77.3083 110.914C76.9832 113.548 77.3548 115.345 78.1397 116.622C79.0036 118.016 81.442 119.028 81.4373 116.274C81.4373 114.36 81.0565 105.02 81.0565 105.02L77.5266 103.632Z" fill="#B16668"/>
<path id="Vector_36" d="M80.7221 117.918C81.1401 117.728 81.4373 117.231 81.4373 116.274C81.4373 115.842 81.4373 115.029 81.3863 114.031C81.3212 112.791 81.2655 111.574 81.2237 110.454C81.1819 109.335 81.1447 108.304 81.1215 107.454C81.1215 107.031 81.0983 106.651 81.089 106.321C81.089 106.158 81.089 106.005 81.089 105.856C81.089 105.327 81.089 105.02 81.089 105.006L77.5592 103.613C77.6649 105.927 77.6059 108.246 77.3827 110.552C78.4648 112.916 79.7932 115.624 80.7221 117.918Z" fill="#9A4A4D"/>
<path id="Vector_37" d="M91.4045 96.9667L85.1437 106.242L79.5888 99.3261L84.5492 88.1699L91.4045 96.9667Z" fill="#B16668"/>
<path id="Vector_38" d="M84.1916 88.9687L86.7739 103.831L87.7028 102.475C87.7028 99.0614 87.6517 94.793 87.5589 92.0202L84.5631 88.1745L84.1916 88.9687Z" fill="#9A4A4D"/>
<path id="Vector_39" d="M90.5824 70.1537C84.5445 65.4859 77.1829 61.0875 77.1829 61.0875L68.9342 69.7264L76.0032 76.9533L86.8715 84.2638C85.6031 85.5218 84.5711 86.9975 83.8246 88.6204C83.4611 89.3976 83.1417 90.1946 82.8678 91.0077C84.7551 94.0676 87.4634 96.5362 90.6846 98.1324C90.6846 98.1324 93.2856 95.0578 97.5864 87.724C100.996 81.9044 100.225 79.2616 99.6811 78.4349C98.2227 76.1452 97.1777 75.2395 90.5824 70.1537Z" fill="#455A64"/>
<path id="Vector_40" d="M87.4474 89.9581C87.291 88.2801 86.7964 86.6512 85.9936 85.1695L85.7846 85.4203L85.7614 85.4528L85.5571 85.7129L85.5199 85.764L85.3202 86.0381L85.2784 86.0938C85.2087 86.1913 85.139 86.2889 85.0694 86.3957L85.0322 86.4514C84.9579 86.5582 84.8882 86.6697 84.8139 86.7812C84.8059 86.7998 84.7949 86.8171 84.7814 86.8323L84.5585 87.1992V87.2364C84.4795 87.371 84.4006 87.5057 84.3262 87.6451C84.2473 87.7937 84.1637 87.9516 84.0847 88.1095L85.0694 93.7991C85.8595 94.679 86.7303 95.4829 87.6703 96.2003C87.6007 93.5762 87.5356 91.1796 87.4474 89.9581Z" fill="#37474F"/>
<path id="Vector_41" d="M84.3634 82.5546C83.8014 81.7604 83.2023 80.9987 82.6078 80.2695C80.3552 77.5199 75.4087 71.8257 75.4087 71.8257L73.9503 71.914L78.1583 78.3838L84.3634 82.5546Z" fill="#37474F"/>
<path id="Vector_42" d="M81.8971 124.764C81.363 124.671 81.233 125.582 80.7871 126.71C80.2657 127.782 80.078 128.986 80.2483 130.166C80.5363 131.68 82.8214 132.223 83.755 134.295C84.6885 136.366 85.9565 140.031 89.9322 141.633C93.908 143.236 97.2938 142.423 98.2924 141.327C99.291 140.231 98.794 138.944 96.4346 136.975C93.9079 134.88 93.1834 134.267 93.1834 134.267L81.8971 124.764Z" fill="#263238"/>
<path id="Vector_43" d="M87.3498 104.161C87.3498 104.161 88.3066 122.252 89.4956 125.898C90.4586 128.764 91.8037 131.487 93.4946 133.993C93.8708 134.564 94.7579 135.642 95.0691 136.106C95.1443 136.198 95.1982 136.306 95.227 136.421C95.2557 136.537 95.2587 136.657 95.2357 136.774C95.2126 136.891 95.164 137.001 95.0935 137.096C95.023 137.192 94.9322 137.271 94.8276 137.328C93.8104 138.076 89.9461 137.792 88.0047 135.907C86.0633 134.021 84.5399 130.333 83.4252 128.875C83.0072 128.327 82.6171 127.769 82.2501 127.189C81.8978 126.658 81.7433 126.02 81.8135 125.387C82.004 124.286 82.1201 123.882 81.9668 122.893C81.4373 119.442 77.443 108.69 77.1876 107.319L87.3498 104.161Z" fill="#B16668"/>
<path id="Vector_44" d="M53.0916 60.2933C51.7401 64.3573 50.839 65.7321 51.6983 70.1537C52.5575 74.5753 56.9234 78.695 62.3343 82.8519C66.807 86.2935 72.8217 91.0402 74.0757 92.0249C75.1765 92.8887 75.7988 93.8827 75.6224 96.5579C75.4412 99.3447 75.8778 103.293 77.6985 110.027C80.2808 110.584 84.368 110.84 87.9165 108.587C87.9165 108.587 86.5556 91.7694 85.7893 88.0073C85.0229 84.2452 72.961 70.8504 72.961 70.8504C72.961 70.8504 75.5852 65.119 77.1922 61.0968L53.0916 60.2933Z" fill="#455A64"/>
<path id="Vector_45" d="M77.8518 68.268C77.0523 69.9279 75.6605 71.2286 73.9503 71.914L74.6099 72.7128C74.6099 72.7128 77.1737 71.6864 77.8518 68.268Z" fill="#37474F"/>
<path id="Vector_46" d="M71.5723 29.4535C75.4087 30.1316 75.7896 30.9026 78.3069 36.36C80.6989 41.5479 83.1512 47.5765 83.1512 47.5765L100.638 48.5287L94.9855 54.3111C94.9855 54.3111 81.1494 55.1007 79.5609 54.7199C77.9725 54.339 70.7827 38.9284 70.7827 38.9284L71.5723 29.4535Z" fill="#B16668"/>
<path id="Vector_47" d="M54.6336 56.8749C55.0702 56.169 56.027 54.6595 55.8226 53.7584C55.5393 52.4347 54.3921 48.7562 54.3921 48.7562L53.4632 44.7387C53.4632 44.7387 56.092 40.6515 56.4497 38.4639C56.8073 36.2764 56.7516 34.4603 55.7669 30.5682L60.7505 29.1145H67.8195L71.5584 29.4721C71.5584 29.4721 77.3176 35.51 78.2465 38.3803C78.8503 40.2381 79.5842 43.6287 76.7881 47.6694C76.4537 50.7116 75.8128 54.1718 75.8871 55.9274C75.9614 57.6831 76.9461 59.4991 77.169 61.1061C76.1333 63.3587 72.4455 67.0883 64.4197 66.8328C56.106 66.5681 52.0977 62.4112 52.0977 62.4112C52.6682 60.4519 53.5226 58.5867 54.6336 56.8749Z" fill="#F5F5F5"/>
<path id="Vector_48" opacity="0.1" d="M70.7827 47.3954C70.7827 47.3954 68.6555 49.8524 64.3175 48.9513C59.9795 48.0503 59.2457 44.7201 59.2457 44.7201C59.2457 44.7201 58.823 48.9513 64.0017 50.0149C69.1107 51.0507 70.7827 47.3954 70.7827 47.3954Z" fill="black"/>
<path id="Vector_49" d="M53.9927 64.492C59.0645 58.1707 64.3361 60.2143 66.8999 58.7234C69.4637 57.2325 70.3229 55.2261 71.6466 53.4937C72.6406 52.2025 76.9879 47.5812 80.0393 49.9963C80.8893 50.6698 84.4981 53.5448 85.5153 54.3854C86.5324 55.2261 87.3731 56.847 87.9304 59.6384C90.118 70.8875 82.1851 75.6296 80.6385 76.2334C79.0918 76.8372 77.796 76.5957 75.4319 79.113C73.0679 81.6304 69.9281 90.52 64.1178 93.0467C61.4704 94.2031 59.6312 94.0592 58.3075 93.0188C57.3461 92.2617 53.7047 89.3264 52.8548 88.6436C51.3082 87.3942 50.4814 84.928 49.8869 81.8533C48.7815 76.1962 48.9209 70.8086 53.9927 64.492Z" fill="#BA68C8"/>
<path id="Vector_50" opacity="0.2" d="M53.9927 64.492C59.0645 58.1707 64.3361 60.2143 66.8999 58.7234C69.4637 57.2325 70.3229 55.2261 71.6466 53.4937C72.6406 52.2025 76.9879 47.5812 80.0393 49.9963C80.8893 50.6698 84.4981 53.5448 85.5153 54.3854C86.5324 55.2261 87.3731 56.847 87.9304 59.6384C90.118 70.8875 82.1851 75.6296 80.6385 76.2334C79.0918 76.8372 77.796 76.5957 75.4319 79.113C73.0679 81.6304 69.9281 90.52 64.1178 93.0467C61.4704 94.2031 59.6312 94.0592 58.3075 93.0188C57.3461 92.2617 53.7047 89.3264 52.8548 88.6436C51.3082 87.3942 50.4814 84.928 49.8869 81.8533C48.7815 76.1962 48.9209 70.8086 53.9927 64.492Z" fill="white"/>
<path id="Vector_51" opacity="0.15" d="M64.1178 93.0606C61.4704 94.2171 59.6312 94.0731 58.3075 93.0327C57.3461 92.2757 53.7047 89.3403 52.8548 88.6576C51.3081 87.4082 50.4814 84.9419 49.8869 81.8672C49.0881 77.7754 48.958 73.8275 50.8158 69.5778L71.1589 85.8941C69.3569 88.8108 67.0857 91.7648 64.1178 93.0606Z" fill="black"/>
<path id="Vector_52" opacity="0.15" d="M65.971 91.9784C65.3922 92.4045 64.7693 92.7673 64.1132 93.0606C61.4658 94.2171 59.6265 94.0731 58.3028 93.0327C57.3414 92.2757 53.7001 89.3403 52.8501 88.6576C51.3035 87.4082 50.4768 84.9419 49.8823 81.8672C49.6714 80.8235 49.5163 79.7692 49.4178 78.709L65.971 91.9784Z" fill="black"/>
<path id="Vector_53" d="M55.2978 86.2099C56.3986 91.8809 58.3121 95.5965 64.1225 93.0606C69.9328 90.5247 73.0725 81.6257 75.4366 79.127C77.8007 76.6282 79.0965 76.8558 80.6431 76.2473C82.1898 75.6389 90.1226 70.9015 87.9351 59.6524C85.7475 48.4033 78.3905 56.1132 77.0622 57.8456C75.7338 59.5781 74.8746 61.5613 72.3154 63.0754C69.7563 64.5895 64.4662 62.5088 59.4036 68.83C54.3411 75.1512 54.1924 80.5343 55.2978 86.2099Z" fill="#BA68C8"/>
<path id="Vector_54" opacity="0.35" d="M55.2978 86.2099C56.3986 91.8809 58.3121 95.5965 64.1225 93.0606C69.9328 90.5247 73.0725 81.6257 75.4366 79.127C77.8007 76.6282 79.0965 76.8558 80.6431 76.2473C82.1898 75.6389 90.1226 70.9015 87.9351 59.6524C85.7475 48.4033 78.3905 56.1132 77.0622 57.8456C75.7338 59.5781 74.8746 61.5613 72.3154 63.0754C69.7563 64.5895 64.4662 62.5088 59.4036 68.83C54.3411 75.1512 54.1924 80.5343 55.2978 86.2099Z" fill="white"/>
<path id="Vector_55" d="M77.3687 72.3738C75.1997 74.1387 73.1004 73.8182 72.6777 71.6585C72.2551 69.4988 73.6763 66.3126 75.8453 64.5477C78.0143 62.7828 80.1136 63.1033 80.5363 65.263C80.959 67.4227 79.5377 70.6089 77.3687 72.3738Z" fill="#263238"/>
<g id="Guitar">
<path id="Vector_56" d="M106.68 46.7034C106.68 46.7034 110.981 42.0588 110.861 41.2599C110.74 40.4611 106.1 43.1689 106.1 43.1689L106.68 46.7034Z" fill="#F0F0F0"/>
<path id="Vector_57" d="M110.679 41.3993C110.619 41.037 107.647 42.5558 106.811 43.0527C106.811 43.0527 109.853 41.7105 109.908 42.0356C109.893 42.3609 109.804 42.6784 109.648 42.9645C109.648 42.9645 110.74 41.5758 110.679 41.3993Z" fill="#FAFAFA"/>
<path id="Vector_58" d="M114.711 43.3454L114.757 43.6472C114.763 43.7071 114.753 43.7674 114.726 43.8215C114.7 43.8757 114.659 43.9214 114.609 43.9538C114.476 44.0497 114.324 44.1138 114.163 44.1412C114.002 44.1686 113.836 44.1585 113.68 44.1117C113.621 44.097 113.567 44.0662 113.524 44.0227C113.482 43.9793 113.452 43.9249 113.438 43.8655L113.387 43.5683L114.711 43.3454Z" fill="#F0F0F0"/>
<path id="Vector_59" d="M113.61 43.8098C113.549 43.8006 113.493 43.7724 113.449 43.7292C113.405 43.6861 113.376 43.6301 113.365 43.5694C113.355 43.5086 113.364 43.4462 113.391 43.391C113.419 43.3357 113.463 43.2905 113.517 43.2617C113.65 43.1658 113.802 43.1017 113.963 43.0743C114.124 43.0469 114.29 43.057 114.446 43.1038C114.507 43.113 114.563 43.1412 114.607 43.1844C114.651 43.2276 114.681 43.2835 114.691 43.3442C114.701 43.405 114.692 43.4674 114.665 43.5227C114.637 43.5779 114.593 43.6231 114.539 43.6519C114.407 43.7478 114.254 43.8119 114.093 43.8393C113.932 43.8667 113.767 43.8566 113.61 43.8098Z" fill="#E0E0E0"/>
<path id="Vector_60" d="M114.088 41.8219L114.349 43.3779C114.349 43.4061 114.342 43.4341 114.329 43.4592C114.316 43.4843 114.298 43.5058 114.274 43.5219C114.213 43.5704 114.14 43.6026 114.063 43.6156C113.986 43.6286 113.907 43.6219 113.833 43.5962C113.805 43.5898 113.779 43.5755 113.758 43.555C113.738 43.5344 113.723 43.5084 113.717 43.48L113.457 41.9241L114.088 41.8219Z" fill="#455A64"/>
<path id="Vector_61" d="M113.573 42.0402C113.438 41.9891 113.42 41.873 113.527 41.7848C113.592 41.7346 113.668 41.7016 113.749 41.6886C113.83 41.6756 113.913 41.6831 113.991 41.7105C114.126 41.7569 114.144 41.873 114.033 41.9659C113.969 42.0177 113.894 42.0518 113.813 42.0649C113.732 42.0779 113.649 42.0694 113.573 42.0402Z" fill="#37474F"/>
<path id="Vector_62" d="M112.848 45.231L112.899 45.5329C112.903 45.593 112.891 45.6529 112.864 45.7067C112.837 45.7605 112.796 45.8062 112.746 45.8395C112.614 45.9354 112.461 45.9995 112.3 46.0269C112.139 46.0543 111.974 46.0442 111.817 45.9974C111.758 45.9822 111.705 45.9512 111.662 45.9078C111.62 45.8645 111.59 45.8103 111.576 45.7512L111.525 45.454L112.848 45.231Z" fill="#F0F0F0"/>
<path id="Vector_63" d="M111.748 45.7001C111.687 45.6902 111.631 45.6615 111.588 45.618C111.544 45.5745 111.516 45.5185 111.506 45.4579C111.496 45.3973 111.506 45.3351 111.533 45.2803C111.561 45.2254 111.605 45.1805 111.659 45.1521C111.791 45.0552 111.944 44.9905 112.105 44.963C112.266 44.9356 112.432 44.9463 112.588 44.9942C112.876 45.101 112.913 45.3425 112.681 45.5376C112.548 45.6343 112.395 45.6993 112.233 45.7275C112.071 45.7557 111.905 45.7463 111.748 45.7001Z" fill="#E0E0E0"/>
<path id="Vector_64" d="M112.226 43.7076L112.486 45.2682C112.489 45.2963 112.484 45.3246 112.472 45.35C112.459 45.3754 112.44 45.3969 112.416 45.4122C112.35 45.4598 112.274 45.4914 112.193 45.5043C112.112 45.5172 112.03 45.5111 111.952 45.4865C111.882 45.4586 111.845 45.4168 111.841 45.3704L111.58 43.8144L112.226 43.7076Z" fill="#455A64"/>
<path id="Vector_65" d="M111.71 43.9259C111.576 43.8748 111.557 43.7634 111.669 43.6705C111.734 43.6203 111.81 43.5872 111.891 43.5743C111.973 43.5613 112.056 43.5688 112.133 43.5961C112.268 43.6472 112.286 43.7587 112.175 43.8516C112.11 43.9018 112.033 43.9348 111.952 43.9478C111.871 43.9608 111.788 43.9533 111.71 43.9259Z" fill="#37474F"/>
<path id="Vector_66" d="M110.995 47.1585L111.046 47.4558C111.052 47.5167 111.04 47.5779 111.013 47.6328C110.986 47.6877 110.945 47.7341 110.893 47.767C110.761 47.8632 110.608 47.9275 110.447 47.9549C110.286 47.9823 110.121 47.972 109.964 47.9249C109.905 47.9097 109.852 47.8787 109.809 47.8353C109.767 47.792 109.737 47.7378 109.723 47.6787L109.672 47.3815L110.995 47.1585Z" fill="#F0F0F0"/>
<path id="Vector_67" d="M109.894 47.623C109.834 47.6131 109.778 47.5843 109.735 47.5408C109.691 47.4974 109.663 47.4414 109.653 47.3807C109.643 47.3201 109.653 47.258 109.68 47.2031C109.708 47.1482 109.752 47.1034 109.806 47.0749C109.939 46.979 110.091 46.9149 110.252 46.8875C110.413 46.8601 110.579 46.8702 110.735 46.917C110.796 46.9262 110.852 46.9544 110.896 46.9976C110.94 47.0408 110.97 47.0967 110.98 47.1574C110.99 47.2182 110.981 47.2806 110.954 47.3358C110.926 47.3911 110.882 47.4363 110.828 47.4651C110.695 47.561 110.541 47.6252 110.38 47.6526C110.218 47.68 110.052 47.6698 109.894 47.623Z" fill="#E0E0E0"/>
<path id="Vector_68" d="M110.373 45.6351L110.633 47.191C110.636 47.2191 110.631 47.2474 110.618 47.2728C110.606 47.2982 110.587 47.3198 110.563 47.335C110.498 47.3852 110.422 47.4182 110.341 47.4312C110.259 47.4442 110.176 47.4367 110.099 47.4093C110.071 47.4027 110.046 47.3883 110.026 47.3677C110.006 47.3471 109.993 47.3212 109.987 47.2932L109.727 45.7373L110.373 45.6351Z" fill="#455A64"/>
<path id="Vector_69" d="M109.857 45.8348C109.829 45.8298 109.802 45.8161 109.782 45.7954C109.762 45.7748 109.748 45.7483 109.744 45.7197C109.739 45.6911 109.744 45.6617 109.756 45.6357C109.769 45.6097 109.79 45.5884 109.816 45.5747C109.881 45.5261 109.958 45.4939 110.039 45.4809C110.119 45.468 110.202 45.4747 110.28 45.5004C110.309 45.5054 110.335 45.5192 110.355 45.5398C110.376 45.5605 110.389 45.5869 110.394 45.6156C110.398 45.6442 110.394 45.6736 110.381 45.6995C110.368 45.7255 110.347 45.7468 110.322 45.7605C110.255 45.8082 110.179 45.8397 110.098 45.8526C110.018 45.8655 109.935 45.8594 109.857 45.8348Z" fill="#37474F"/>
<path id="Vector_70" d="M114.929 34.53L114.999 34.5718C115.123 34.685 115.257 34.7875 115.398 34.8783C115.622 34.9013 115.842 34.9449 116.058 35.0084C116.188 35.0548 117.047 35.366 117.256 35.4496C117.326 35.4724 117.387 35.5147 117.433 35.5716C117.479 35.6284 117.508 35.6973 117.516 35.7701C117.59 36.2345 116.94 36.6618 115.905 38.9005C115.507 39.698 115.153 40.5167 114.846 41.3528C114.759 41.6515 114.584 41.917 114.344 42.1145C113.389 42.7763 112.487 43.5108 111.645 44.3114C110.749 45.1289 109.467 46.5826 108.998 47.1214C108.949 47.1896 108.883 47.2433 108.806 47.2768C108.729 47.3103 108.645 47.3224 108.561 47.3118L107.377 46.8473C107.32 46.8262 107.271 46.7871 107.238 46.7359C107.178 46.6617 107.113 46.5918 107.043 46.5269C106.91 46.5458 106.785 46.6004 106.68 46.6848L105.496 46.2203L105.203 44.4554L104.906 42.6905C105.909 41.8637 106.411 39.8248 106.49 39.3278C106.569 38.8309 106.704 38.5754 106.954 38.4686C107.987 38.0032 108.991 37.4759 109.959 36.8894C111.036 36.1987 112.055 35.4221 113.006 34.5672C113.331 34.2467 113.568 33.9634 113.754 34.0284L114.929 34.53Z" fill="#BA68C8"/>
<path id="Vector_71" opacity="0.2" d="M114.929 34.53L114.999 34.5718C115.123 34.685 115.257 34.7875 115.398 34.8783C115.622 34.9013 115.842 34.9449 116.058 35.0084C116.188 35.0548 117.047 35.366 117.256 35.4496C117.326 35.4724 117.387 35.5147 117.433 35.5716C117.479 35.6284 117.508 35.6973 117.516 35.7701C117.59 36.2345 116.94 36.6618 115.905 38.9005C115.507 39.698 115.153 40.5167 114.846 41.3528C114.759 41.6515 114.584 41.917 114.344 42.1145C113.389 42.7763 112.487 43.5108 111.645 44.3114C110.749 45.1289 109.467 46.5826 108.998 47.1214C108.949 47.1896 108.883 47.2433 108.806 47.2768C108.729 47.3103 108.645 47.3224 108.561 47.3118L107.377 46.8473C107.32 46.8262 107.271 46.7871 107.238 46.7359C107.178 46.6617 107.113 46.5918 107.043 46.5269C106.91 46.5458 106.785 46.6004 106.68 46.6848L105.496 46.2203L105.203 44.4554L104.906 42.6905C105.909 41.8637 106.411 39.8248 106.49 39.3278C106.569 38.8309 106.704 38.5754 106.954 38.4686C107.987 38.0032 108.991 37.4759 109.959 36.8894C111.036 36.1987 112.055 35.4221 113.006 34.5672C113.331 34.2467 113.568 33.9634 113.754 34.0284L114.929 34.53Z" fill="black"/>
<path id="Vector_72" opacity="0.2" d="M108.998 47.1214C108.949 47.1896 108.883 47.2433 108.806 47.2768C108.729 47.3103 108.645 47.3224 108.561 47.3118L107.377 46.8473C107.32 46.8262 107.271 46.7871 107.238 46.7359C107.178 46.6617 107.113 46.5918 107.043 46.5269C106.91 46.5458 106.785 46.6004 106.68 46.6848L105.496 46.2203L105.203 44.4554L104.906 42.6905C105.909 41.8637 106.411 39.8248 106.49 39.3278C106.514 39.1265 106.57 38.9304 106.657 38.7473L108.051 39.2674L109.393 46.6476L108.998 47.1214Z" fill="black"/>
<path id="Vector_73" d="M106.388 44.9338L106.68 46.7034C107.219 46.2389 108.074 46.7405 108.422 47.2003C108.594 47.4326 108.845 47.2979 108.998 47.1214C109.463 46.5826 110.749 45.1289 111.645 44.3114C112.487 43.5108 113.389 42.7763 114.344 42.1145C114.584 41.917 114.759 41.6515 114.846 41.3528C115.153 40.5167 115.507 39.698 115.905 38.9005C116.94 36.6618 117.59 36.2206 117.516 35.7701C117.442 35.3196 116.871 35.4589 116.039 35.1942C115.654 35.0594 115.3 34.8477 114.999 34.5718C114.794 34.386 114.534 34.7065 114.172 35.0688C113.223 35.9261 112.204 36.7028 111.125 37.391C110.156 37.9783 109.153 38.5071 108.12 38.9748C107.888 39.077 107.749 39.3371 107.656 39.8341C107.563 40.331 107.08 42.3653 106.072 43.1921L106.388 44.9338Z" fill="#BA68C8"/>
<path id="Vector_74" d="M112.834 33.759L113.095 35.3149C113.095 35.3432 113.088 35.3711 113.075 35.3962C113.062 35.4213 113.044 35.4429 113.02 35.4589C112.956 35.5115 112.88 35.5461 112.798 35.5592C112.716 35.5723 112.633 35.5633 112.556 35.5332C112.528 35.5259 112.502 35.5113 112.482 35.4909C112.462 35.4705 112.447 35.445 112.44 35.4171L112.18 33.8612L112.834 33.759Z" fill="#455A64"/>
<path id="Vector_75" d="M112.305 33.968C112.17 33.9169 112.147 33.8008 112.259 33.7079C112.324 33.6592 112.401 33.6271 112.482 33.6141C112.563 33.6012 112.645 33.6079 112.723 33.6336C112.752 33.6386 112.778 33.6524 112.798 33.673C112.819 33.6936 112.832 33.7201 112.837 33.7487C112.841 33.7774 112.837 33.8067 112.824 33.8327C112.811 33.8587 112.79 33.88 112.765 33.8937C112.699 33.9413 112.624 33.9728 112.544 33.9857C112.464 33.9986 112.382 33.9926 112.305 33.968Z" fill="#37474F"/>
<path id="Vector_76" d="M113.178 33.6057L113.225 33.9076C113.231 33.9675 113.22 34.0278 113.194 34.0819C113.167 34.136 113.127 34.1818 113.076 34.2142C112.944 34.3101 112.791 34.3742 112.63 34.4016C112.469 34.429 112.304 34.4189 112.147 34.3721C112.088 34.3573 112.034 34.3265 111.992 34.2831C111.949 34.2396 111.919 34.1852 111.906 34.1259L111.854 33.8287L113.178 33.6057Z" fill="#F0F0F0"/>
<path id="Vector_77" d="M112.077 34.0748C111.789 33.9634 111.748 33.7218 111.984 33.5268C112.119 33.4269 112.276 33.3605 112.442 33.333C112.607 33.3056 112.777 33.3179 112.937 33.3689C112.996 33.3799 113.05 33.409 113.092 33.4521C113.134 33.4952 113.162 33.5502 113.172 33.6096C113.181 33.669 113.172 33.73 113.146 33.7841C113.12 33.8383 113.078 33.883 113.025 33.9123C112.891 34.0119 112.735 34.0785 112.571 34.1067C112.406 34.135 112.237 34.124 112.077 34.0748Z" fill="#E0E0E0"/>
<path id="Vector_78" d="M110.837 35.3149L111.097 36.8708C111.1 36.8989 111.095 36.9272 111.083 36.9526C111.071 36.978 111.051 36.9996 111.028 37.0148C110.963 37.065 110.886 37.0981 110.805 37.111C110.724 37.124 110.641 37.1165 110.563 37.0891C110.536 37.0825 110.51 37.0681 110.49 37.0475C110.471 37.0269 110.457 37.001 110.452 36.973L110.192 35.4171L110.837 35.3149Z" fill="#455A64"/>
<path id="Vector_79" d="M110.322 35.5332C110.187 35.4821 110.168 35.366 110.28 35.2778C110.345 35.2276 110.422 35.1945 110.503 35.1816C110.584 35.1686 110.667 35.1761 110.744 35.2035C110.879 35.2499 110.898 35.366 110.786 35.4589C110.72 35.5076 110.644 35.5398 110.563 35.5527C110.482 35.5656 110.399 35.559 110.322 35.5332Z" fill="#37474F"/>
<path id="Vector_80" d="M111.181 35.1756L111.232 35.4728C111.237 35.5326 111.226 35.5925 111.2 35.6465C111.174 35.7004 111.133 35.7463 111.083 35.7794C110.952 35.8763 110.799 35.941 110.638 35.9684C110.476 35.9958 110.311 35.9852 110.155 35.9373C110.096 35.9227 110.042 35.8927 109.998 35.8502C109.955 35.8077 109.924 35.7544 109.908 35.6958L109.862 35.3985L111.181 35.1756Z" fill="#F0F0F0"/>
<path id="Vector_81" d="M110.085 35.64C110.024 35.6308 109.968 35.6026 109.924 35.5595C109.88 35.5163 109.85 35.4604 109.84 35.3996C109.83 35.3389 109.839 35.2765 109.866 35.2212C109.894 35.166 109.938 35.1208 109.992 35.092C110.124 34.9961 110.277 34.9319 110.438 34.9046C110.599 34.8772 110.764 34.8873 110.921 34.9341C110.982 34.9433 111.038 34.9715 111.082 35.0147C111.126 35.0578 111.155 35.1138 111.166 35.1745C111.176 35.2352 111.167 35.2977 111.14 35.3529C111.112 35.4081 111.068 35.4534 111.014 35.4821C110.881 35.578 110.729 35.6422 110.568 35.6696C110.407 35.6969 110.241 35.6868 110.085 35.64Z" fill="#E0E0E0"/>
<path id="Vector_82" d="M108.845 36.2903L109.105 37.8509C109.108 37.8789 109.103 37.9072 109.09 37.9327C109.078 37.9581 109.059 37.9796 109.035 37.9948C108.969 38.0435 108.893 38.0757 108.812 38.0886C108.731 38.1016 108.648 38.0949 108.571 38.0691C108.506 38.0413 108.464 37.9995 108.459 37.953L108.199 36.3971L108.845 36.2903Z" fill="#455A64"/>
<path id="Vector_83" d="M108.329 36.5086C108.195 36.4575 108.176 36.346 108.287 36.2531C108.353 36.203 108.429 36.1699 108.51 36.1569C108.591 36.1439 108.674 36.1515 108.752 36.1788C108.887 36.2299 108.905 36.346 108.794 36.4343C108.729 36.4844 108.652 36.5175 108.571 36.5305C108.49 36.5435 108.407 36.5359 108.329 36.5086Z" fill="#37474F"/>
<path id="Vector_84" d="M109.188 36.1509L109.24 36.4528C109.244 36.5125 109.233 36.5723 109.207 36.6261C109.18 36.68 109.141 36.7259 109.091 36.7594C108.959 36.8553 108.806 36.9194 108.645 36.9468C108.484 36.9742 108.319 36.9641 108.162 36.9173C108.103 36.9019 108.049 36.871 108.005 36.8277C107.962 36.7844 107.931 36.7304 107.916 36.6711L107.869 36.3739L109.188 36.1509Z" fill="#F0F0F0"/>
<path id="Vector_85" d="M108.092 36.6154C108.031 36.6062 107.975 36.578 107.931 36.5348C107.887 36.4916 107.858 36.4357 107.848 36.375C107.837 36.3142 107.846 36.2518 107.874 36.1966C107.901 36.1413 107.945 36.0961 107.999 36.0673C108.132 35.9714 108.284 35.9073 108.446 35.8799C108.607 35.8525 108.772 35.8626 108.928 35.9094C108.989 35.9186 109.046 35.9468 109.09 35.99C109.134 36.0332 109.163 36.0891 109.173 36.1498C109.183 36.2106 109.174 36.273 109.147 36.3283C109.12 36.3835 109.076 36.4287 109.021 36.4575C108.889 36.5534 108.736 36.6175 108.575 36.6449C108.414 36.6723 108.249 36.6622 108.092 36.6154Z" fill="#E0E0E0"/>
<path id="Vector_86" d="M106.685 46.6987L81.5767 68.1287L80.3923 67.6642C80.6179 66.8861 80.6687 66.0677 80.5409 65.2676C80.3366 64.2272 79.7374 63.6095 78.9293 63.4516V63.4191L104.939 42.7323L106.123 43.1735L106.685 46.6987Z" fill="#37474F"/>
<path id="Vector_87" d="M81.5999 68.0915C81.8218 67.3158 81.871 66.5009 81.7439 65.7042C81.5395 64.6452 80.9311 64.0275 80.1043 63.8789L106.114 43.1874L106.708 46.7173L81.5999 68.0915Z" fill="#455A64"/>
<path id="Vector_88" d="M66.1568 73.8833L67.3133 80.9244L66.1939 81.844L65.8781 81.7279L64.703 74.7007L65.8363 73.7625L66.1568 73.8833Z" fill="#263238"/>
<path id="Vector_89" d="M66.1939 81.844L65.0188 74.8168L66.1568 73.8833L67.3133 80.9244L66.1939 81.844Z" fill="#37474F"/>
<path id="Vector_90" d="M66.0825 81.1706L66.0128 80.7618L67.1321 79.8376L67.1971 80.2509L66.0825 81.1706Z" fill="#263238"/>
<path id="Vector_91" d="M65.906 80.1302L65.8409 79.7214L66.9603 78.7972L67.0299 79.2105L65.906 80.1302Z" fill="#263238"/>
<path id="Vector_92" d="M65.7341 79.0944L65.6644 78.6857L66.7884 77.7568L66.8581 78.1702L65.7341 79.0944Z" fill="#263238"/>
<path id="Vector_93" d="M65.5622 78.0541L65.4926 77.6453L66.6212 76.7164L66.6862 77.1298L65.5622 78.0541Z" fill="#263238"/>
<path id="Vector_94" d="M65.3904 77.0183L65.3207 76.6096L66.4494 75.676L66.5144 76.0894L65.3904 77.0183Z" fill="#263238"/>
<path id="Vector_95" d="M65.2139 75.9779L65.1442 75.5692L66.2775 74.6357L66.3472 75.049L65.2139 75.9779Z" fill="#263238"/>
<path id="Vector_96" d="M65.2743 73.7021C65.3198 73.7239 65.3587 73.7573 65.3872 73.7988C65.4158 73.8404 65.4329 73.8887 65.4369 73.939L66.9881 83.2281C66.9988 83.371 66.9772 83.5145 66.9249 83.6479C66.8727 83.7814 66.7911 83.9014 66.6862 83.9991C66.6505 84.0365 66.6053 84.0636 66.5554 84.0775C66.5056 84.0914 66.4529 84.0916 66.4029 84.078L65.8038 83.8551C65.7574 83.8333 65.7177 83.7994 65.6891 83.7568C65.6605 83.7143 65.6439 83.6648 65.6412 83.6136L64.1085 74.3013C64.0935 74.1624 64.1114 74.022 64.1606 73.8913C64.2098 73.7606 64.289 73.6433 64.3918 73.5489C64.427 73.5106 64.4722 73.4829 64.5222 73.469C64.5723 73.455 64.6253 73.4553 64.6751 73.4699L65.2743 73.7021Z" fill="#37474F"/>
<path id="Vector_97" d="M66.2404 83.8226L64.7123 74.5335C64.6969 74.3946 64.7146 74.2541 64.7638 74.1233C64.8131 73.9926 64.8925 73.8753 64.9956 73.7811C65.1953 73.6092 65.3951 73.6835 65.4601 73.939L67.0114 83.2281C67.022 83.371 67.0004 83.5145 66.9481 83.6479C66.8959 83.7814 66.8143 83.9014 66.7095 83.9991C66.4819 84.157 66.2868 84.0827 66.2404 83.8226Z" fill="#455A64"/>
<path id="Vector_98" d="M85.2133 64.5942C85.1924 64.5935 85.1723 64.5859 85.1563 64.5724C85.1403 64.5589 85.1293 64.5404 85.1251 64.5198L84.4934 60.6974C84.4893 60.6746 84.4943 60.6512 84.5074 60.6321C84.5204 60.6129 84.5404 60.5997 84.5631 60.5952C84.5862 60.5935 84.6091 60.6 84.6278 60.6136C84.6466 60.6272 84.6598 60.647 84.6653 60.6695L85.3016 64.4688C85.3043 64.4804 85.3045 64.4925 85.3021 64.5043C85.2997 64.516 85.2948 64.5271 85.2878 64.5368C85.2807 64.5465 85.2717 64.5546 85.2612 64.5605C85.2508 64.5663 85.2392 64.5699 85.2273 64.5709L85.2133 64.5942Z" fill="#E0E0E0"/>
<path id="Vector_99" d="M91.0515 59.6338C91.0306 59.6331 91.0105 59.6255 90.9945 59.612C90.9785 59.5985 90.9675 59.58 90.9633 59.5595L90.3781 56.0528C90.3761 56.0412 90.3765 56.0293 90.3791 56.0179C90.3818 56.0064 90.3868 55.9956 90.3937 55.9861C90.4006 55.9765 90.4094 55.9685 90.4195 55.9624C90.4295 55.9563 90.4407 55.9523 90.4524 55.9506C90.4752 55.9465 90.4986 55.9516 90.5177 55.9646C90.5368 55.9776 90.5501 55.9976 90.5546 56.0203L91.1398 59.5269C91.1415 59.55 91.135 59.573 91.1214 59.5917C91.1078 59.6104 91.088 59.6237 91.0655 59.6291L91.0515 59.6338Z" fill="#E0E0E0"/>
<path id="Vector_100" d="M96.8804 54.6595C96.8598 54.6596 96.8398 54.6521 96.8244 54.6384C96.809 54.6246 96.7991 54.6057 96.7968 54.5852L96.2766 51.4687C96.2739 51.4573 96.2736 51.4456 96.2758 51.4341C96.2779 51.4227 96.2823 51.4118 96.2889 51.4022C96.2955 51.3926 96.304 51.3844 96.3138 51.3783C96.3237 51.3721 96.3348 51.3681 96.3463 51.3665C96.3691 51.3624 96.3925 51.3674 96.4117 51.3804C96.4308 51.3935 96.444 51.4135 96.4485 51.4362L96.9687 54.5573C96.9728 54.5801 96.9678 54.6035 96.9547 54.6226C96.9417 54.6417 96.9217 54.655 96.899 54.6595H96.8804Z" fill="#E0E0E0"/>
<path id="Vector_101" d="M102.705 49.5969C102.684 49.597 102.664 49.5895 102.649 49.5758C102.633 49.5621 102.623 49.5431 102.621 49.5226L102.157 46.7916C102.155 46.7685 102.161 46.7456 102.175 46.7268C102.189 46.7081 102.208 46.6949 102.231 46.6894C102.243 46.6874 102.254 46.6878 102.266 46.6905C102.277 46.6932 102.288 46.6981 102.298 46.705C102.307 46.712 102.315 46.7207 102.321 46.7308C102.327 46.7409 102.331 46.7521 102.333 46.7637L102.798 49.4947C102.8 49.5063 102.799 49.5182 102.797 49.5297C102.794 49.5411 102.789 49.552 102.782 49.5615C102.775 49.571 102.766 49.579 102.756 49.5851C102.746 49.5912 102.735 49.5952 102.723 49.5969H102.705Z" fill="#E0E0E0"/>
<path id="Vector_102" d="M66.0685 80.9848L66.0267 80.9383L106.374 46.3364L109.523 44.0281L109.56 44.0792L106.411 46.3875L66.0685 80.9848Z" fill="#E0E0E0"/>
<path id="Vector_103" d="M65.892 79.9444L65.8502 79.8933L106.29 45.8348L111.576 42.0542L111.613 42.1053L106.327 45.8813L65.892 79.9444Z" fill="#E0E0E0"/>
<path id="Vector_104" d="M65.7202 78.8994L65.6784 78.8529L106.207 45.3286L113.443 40.3217L113.48 40.3728L106.244 45.3797L65.7202 78.8994Z" fill="#E0E0E0"/>
<path id="Vector_105" d="M65.1907 75.7457L65.1535 75.6946L106.156 43.6472L109.017 41.0091L109.058 41.0556L106.197 43.6983L65.1907 75.7457Z" fill="#E0E0E0"/>
<path id="Vector_106" d="M65.3672 76.7861L65.3254 76.7397L106.239 44.1535L111.153 39.5322L111.195 39.5786L106.281 44.2L65.3672 76.7861Z" fill="#E0E0E0"/>
<path id="Vector_107" d="M65.539 77.8311L65.4972 77.78L106.323 44.6598L113.076 38.1481L113.118 38.1899L106.365 44.7062L65.539 77.8311Z" fill="#E0E0E0"/>
<path id="Vector_108" d="M113.113 38.5661L112.825 38.4593C112.772 38.432 112.727 38.3917 112.693 38.3422C112.66 38.2926 112.64 38.2354 112.635 38.176C112.616 38.0097 112.638 37.8415 112.696 37.6849C112.755 37.5283 112.85 37.3879 112.974 37.2749C113.016 37.2307 113.069 37.199 113.129 37.1834C113.188 37.1679 113.25 37.169 113.308 37.1867L113.587 37.2935L113.113 38.5661Z" fill="#E0E0E0"/>
<path id="Vector_109" d="M113.257 37.3817C113.494 37.1867 113.722 37.2749 113.777 37.5768C113.797 37.7421 113.777 37.9096 113.719 38.0655C113.661 38.2214 113.566 38.3612 113.443 38.4732C113.206 38.6683 112.978 38.5847 112.923 38.2828C112.903 38.1168 112.923 37.9486 112.981 37.7919C113.039 37.6353 113.134 37.4947 113.257 37.3817Z" fill="#F0F0F0"/>
<path id="Vector_110" d="M111.162 39.9084L110.874 39.8016C110.821 39.7743 110.776 39.734 110.743 39.6844C110.709 39.6349 110.689 39.5777 110.684 39.5182C110.665 39.3519 110.686 39.1836 110.745 39.027C110.804 38.8703 110.899 38.7299 111.023 38.6172C111.065 38.573 111.119 38.5413 111.178 38.5257C111.237 38.5101 111.299 38.5113 111.357 38.529L111.641 38.6358L111.162 39.9084Z" fill="#E0E0E0"/>
<path id="Vector_111" d="M111.306 38.724C111.543 38.529 111.771 38.6126 111.827 38.9191C111.846 39.0843 111.826 39.2518 111.767 39.4076C111.709 39.5635 111.615 39.7033 111.492 39.8155C111.255 40.0106 111.028 39.927 110.972 39.6204C110.953 39.4552 110.973 39.2878 111.031 39.1319C111.089 38.9761 111.184 38.8363 111.306 38.724Z" fill="#F0F0F0"/>
<path id="Vector_112" d="M109.184 41.1903L108.896 41.0835C108.843 41.0562 108.797 41.0159 108.764 40.9664C108.731 40.9168 108.711 40.8596 108.705 40.8001C108.687 40.6339 108.708 40.4655 108.767 40.3089C108.826 40.1522 108.921 40.0118 109.045 39.8991C109.087 39.8549 109.14 39.8232 109.199 39.8076C109.258 39.792 109.32 39.7932 109.379 39.8109L109.658 39.9177L109.184 41.1903Z" fill="#E0E0E0"/>
<path id="Vector_113" d="M109.328 40.0013C109.565 39.8062 109.792 39.8898 109.848 40.1917C109.868 40.3576 109.848 40.5259 109.789 40.6825C109.731 40.8392 109.637 40.9798 109.514 41.0927C109.277 41.2878 109.049 41.2042 108.993 40.8977C108.974 40.7324 108.994 40.565 109.053 40.4092C109.111 40.2533 109.205 40.1135 109.328 40.0013Z" fill="#F0F0F0"/>
<path id="Vector_114" d="M113.605 41.5108L113.322 41.4039C113.268 41.3786 113.221 41.3388 113.187 41.2888C113.154 41.2389 113.135 41.1807 113.132 41.1206C113.112 40.9547 113.133 40.7866 113.191 40.63C113.249 40.4734 113.343 40.3327 113.466 40.2196C113.509 40.177 113.563 40.1468 113.622 40.1321C113.681 40.1174 113.742 40.1187 113.801 40.136L114.084 40.2381L113.605 41.5108Z" fill="#E0E0E0"/>
<path id="Vector_115" d="M113.754 40.3264C113.991 40.1313 114.219 40.2196 114.274 40.5215C114.293 40.6877 114.271 40.856 114.213 41.0126C114.154 41.1691 114.059 41.3096 113.935 41.4225C113.698 41.6176 113.471 41.5293 113.415 41.2274C113.397 41.0612 113.418 40.8929 113.477 40.7364C113.536 40.5798 113.631 40.4393 113.754 40.3264Z" fill="#F0F0F0"/>
<path id="Vector_116" d="M111.715 43.2571L111.432 43.1503C111.378 43.1245 111.331 43.0846 111.298 43.0347C111.264 42.9849 111.245 42.9269 111.241 42.867C111.222 42.701 111.242 42.5329 111.3 42.3763C111.359 42.2197 111.453 42.0791 111.576 41.9659C111.619 41.923 111.672 41.8922 111.731 41.8767C111.79 41.8612 111.852 41.8615 111.91 41.8777L112.194 41.9845L111.715 43.2571Z" fill="#E0E0E0"/>
<path id="Vector_117" d="M111.864 42.0728C112.101 41.8777 112.328 41.9659 112.384 42.2678C112.402 42.4341 112.381 42.6023 112.322 42.7589C112.263 42.9155 112.168 43.0559 112.045 43.1689C111.808 43.3639 111.58 43.2757 111.525 42.9738C111.506 42.8075 111.528 42.6393 111.586 42.4827C111.645 42.3262 111.74 42.1857 111.864 42.0728Z" fill="#F0F0F0"/>
<path id="Vector_118" d="M109.825 45.036L109.537 44.9292C109.484 44.9019 109.438 44.8616 109.405 44.812C109.372 44.7625 109.352 44.7053 109.346 44.6458C109.328 44.4796 109.349 44.3113 109.408 44.1548C109.467 43.9982 109.562 43.8577 109.685 43.7448C109.728 43.7006 109.781 43.6689 109.84 43.6533C109.899 43.6377 109.961 43.6388 110.02 43.6565L110.303 43.7634L109.825 45.036Z" fill="#E0E0E0"/>
<path id="Vector_119" d="M109.983 43.8516C110.22 43.6565 110.447 43.7401 110.503 44.0467C110.522 44.2119 110.502 44.3793 110.444 44.5352C110.386 44.691 110.291 44.8309 110.168 44.9431C109.932 45.1382 109.704 45.0545 109.648 44.7527C109.629 44.5867 109.649 44.4185 109.707 44.2618C109.765 44.1052 109.86 43.9646 109.983 43.8516Z" fill="#F0F0F0"/>
</g>
<path id="Vector_120" d="M64.6891 63.1218C66.8302 64.4316 71.1125 64.1111 73.2443 64.4595C75.3762 64.8078 75.7292 64.7196 75.144 65.7274C74.4937 66.8468 72.1668 66.1594 71.577 66.7446C73.2076 68.0458 75.0195 69.102 76.9553 69.8797C80.0718 71.1058 78.8643 72.5828 76.4073 73.9297C73.9503 75.2766 71.577 74.5428 68.3118 72.7964C65.2325 71.1523 62.4551 68.7278 60.2582 67.6456C58.0613 66.5635 64.6891 63.1218 64.6891 63.1218Z" fill="#B16668"/>
<path id="Vector_121" d="M55.753 30.5636C50.644 31.8872 49.5943 32.7558 48.4703 35.8909C47.5414 38.4872 45.0101 50.3261 44.476 54.469C44.0116 58.0035 44.2717 58.9557 46.4174 60.5673C49.3342 62.7503 62.1625 68.5374 62.1625 68.5374C62.1625 68.5374 64.6194 68.5978 65.5716 66.7399C66.5005 64.9797 66.2404 64.3155 66.2404 64.3155L53.0452 54.3576C53.0452 54.3576 55.047 46.2993 55.2235 45.807C55.5904 44.7434 59.8216 35.4821 55.753 30.5636Z" fill="#B16668"/>
<path id="Vector_122" d="M102.951 53.9256C104.641 52.8713 105.631 51.7566 105.909 49.6666C106.221 47.3443 105.979 45.7373 105.06 45.3704C104.14 45.0035 103.034 45.6398 102.017 46.4154C100.856 47.3072 100.624 48.5147 100.489 49.9453C100.426 50.7901 100.15 51.6051 99.6858 52.314L96.7086 54.8035C96.7086 54.8035 99.6114 56.011 102.951 53.9256Z" fill="#B16668"/>
<g id="Head">
<path id="Vector_123" d="M74.1036 13.049C73.1468 8.73883 69.5612 5.55267 63.9228 6.72309C58.2843 7.89352 55.5904 13.1279 56.6865 17.0758C57.7827 21.0237 59.3572 22.8397 59.3572 22.8397L74.1036 13.049Z" fill="#263238"/>
<path id="Vector_124" d="M56.9141 16.1329C58.6744 14.9625 59.8541 17.2476 59.8541 17.2476C61.7445 18.3623 62.1996 12.4591 63.514 11.4605C65.4973 9.95105 67.0207 9.93247 69.7656 10.03C72.0879 10.109 74.6795 10.5409 74.7027 17.7492C74.7027 23.3784 72.7892 26.063 71.8464 26.6018C70.9035 27.1405 69.7284 27.3077 67.8428 27.1963V30.3499C67.8428 30.3499 70.5645 32.3517 69.3847 35.3335C67.5668 35.1686 65.7821 34.7431 64.0853 34.0702C60.2861 32.3982 59.5429 30.4474 59.5429 30.4474L59.3107 21.5299C59.19 22.1476 58.1728 22.2359 57.3414 21.0051C56.106 19.1891 56.4265 16.4581 56.9141 16.1329Z" fill="#B16668"/>
<path id="Vector_125" d="M73.4952 14.6746L71.6745 13.8757C71.7207 13.7548 71.7911 13.6447 71.8813 13.5519C71.9715 13.4591 72.0797 13.3857 72.1992 13.3362C72.3188 13.2866 72.4471 13.262 72.5765 13.2637C72.7059 13.2654 72.8336 13.2935 72.9518 13.3462C73.1948 13.4564 73.3865 13.6554 73.4876 13.9023C73.5886 14.1493 73.5913 14.4256 73.4952 14.6746Z" fill="#263238"/>
<path id="Vector_126" d="M66.0639 14.2519L64.3501 15.2551C64.279 15.1467 64.2308 15.025 64.2084 14.8973C64.186 14.7696 64.19 14.6387 64.22 14.5126C64.25 14.3865 64.3054 14.2678 64.3829 14.1639C64.4604 14.06 64.5582 13.973 64.6705 13.9082C64.9028 13.7768 65.1765 13.7392 65.4355 13.8031C65.6946 13.867 65.9194 14.0276 66.0639 14.2519Z" fill="#263238"/>
<path id="Vector_127" d="M66.6259 21.9201L69.4126 22.7236C69.3562 22.9182 69.2598 23.099 69.1296 23.2543C68.9995 23.4097 68.8383 23.5361 68.6565 23.6257C68.4747 23.7153 68.2763 23.766 68.0738 23.7746C67.8713 23.7832 67.6692 23.7495 67.4805 23.6757C67.3079 23.6183 67.1485 23.5269 67.0117 23.4071C66.8749 23.2872 66.7634 23.1412 66.6838 22.9777C66.6042 22.8141 66.5581 22.6363 66.5481 22.4547C66.5382 22.2731 66.5646 22.0913 66.6259 21.9201Z" fill="#9A4A4D"/>
<path id="Vector_128" d="M68.2886 23.7314C68.2338 23.3569 68.0419 23.0161 67.7502 22.775C67.4584 22.5339 67.0876 22.4097 66.7095 22.4263C66.6631 22.4263 66.6166 22.4263 66.5702 22.4263C66.572 22.7041 66.6634 22.9739 66.8307 23.1956C66.998 23.4173 67.2324 23.5792 67.4991 23.6571C67.7528 23.7434 68.0233 23.7689 68.2886 23.7314Z" fill="#F28F8F"/>
<path id="Vector_129" d="M69.041 15.6174L69.3336 20.7775L72.1668 19.9275L69.041 15.6174Z" fill="#9A4A4D"/>
<path id="Vector_130" d="M66.886 17.0386C66.9696 17.5031 66.4633 17.0061 65.9571 17.1269C65.4508 17.2476 65.135 17.9536 65.056 17.4752C65.026 17.2318 65.088 16.9859 65.2297 16.7858C65.3715 16.5856 65.5828 16.4456 65.8224 16.393C65.9347 16.3598 66.0527 16.3504 66.1689 16.3655C66.2851 16.3806 66.3968 16.4198 66.497 16.4806C66.5971 16.5413 66.6835 16.6224 66.7504 16.7185C66.8174 16.8146 66.8636 16.9236 66.886 17.0386Z" fill="#263238"/>
<path id="Vector_131" d="M73.119 16.6206C73.0446 17.0851 72.7242 16.4581 72.1901 16.4116C71.6559 16.3652 71.1543 16.9365 71.224 16.4581C71.2734 16.2173 71.4106 16.0036 71.6089 15.8585C71.8073 15.7134 72.0525 15.6474 72.2969 15.6731C72.4148 15.6762 72.5309 15.7038 72.6376 15.7542C72.7443 15.8046 72.8393 15.8767 72.9166 15.9658C72.994 16.0549 73.0519 16.1592 73.0867 16.2719C73.1216 16.3846 73.1325 16.5034 73.119 16.6206Z" fill="#263238"/>
<path id="Vector_132" d="M67.8428 27.1963C66.0128 26.9594 62.6548 26.0258 62.0649 24.5396C62.0649 24.5396 62.0138 25.7611 63.4583 26.8015C64.6566 27.67 67.852 28.153 67.852 28.153L67.8428 27.1963Z" fill="#9A4A4D"/>
<path id="Vector_133" d="M65.2743 0.624801C61.1314 -1.64174 53.3239 2.48262 54.0902 9.37048C54.8566 16.2583 71.5166 5.42726 65.2743 0.624801Z" fill="#BA68C8"/>
<path id="Vector_134" opacity="0.55" d="M65.2743 0.624801C61.1314 -1.64174 53.3239 2.48262 54.0902 9.37048C54.8566 16.2583 71.5166 5.42726 65.2743 0.624801Z" fill="black"/>
<path id="Vector_135" d="M74.1036 13.049C73.1143 10.8289 71.916 8.72024 67.2297 8.93854C62.7848 9.14754 61.7305 11.1122 60.8341 12.552C59.7659 14.2705 58.4422 17.0758 58.0474 19.4259C57.5829 22.2963 59.3154 21.5299 59.3154 21.5299L59.4408 26.2488C58.9484 23.044 55.2607 18.4366 54.55 16.5324C53.3936 13.5366 52.9291 9.18006 56.4636 5.13001C59.8077 1.29826 65.1536 -0.907901 69.0457 0.819871C71.8974 2.0739 74.4752 9.37977 74.1036 13.049Z" fill="#BA68C8"/>
<path id="Vector_136" opacity="0.4" d="M74.1036 13.049C73.1143 10.8289 71.916 8.72024 67.2297 8.93854C62.7848 9.14754 61.7305 11.1122 60.8341 12.552C59.7659 14.2705 58.4422 17.0758 58.0474 19.4259C57.5829 22.2963 59.3154 21.5299 59.3154 21.5299L59.4408 26.2488C58.9484 23.044 55.2607 18.4366 54.55 16.5324C53.3936 13.5366 52.9291 9.18006 56.4636 5.13001C59.8077 1.29826 65.1536 -0.907901 69.0457 0.819871C71.8974 2.0739 74.4752 9.37977 74.1036 13.049Z" fill="black"/>
<path id="Vector_137" d="M57.1324 20.2062C57.1696 20.2759 57.2067 20.3456 57.2485 20.4106C58.3102 22.2153 59.0504 24.1907 59.4361 26.2488L59.3107 21.5299C59.3107 21.5299 57.5504 22.2963 58.0428 19.4259C58.4422 17.0758 59.7659 14.2705 60.8295 12.552C61.7259 11.1122 62.7802 9.14755 67.2297 8.93854C69.812 8.81314 71.3355 9.403 72.3387 10.3319L73.6299 8.67845L74.1408 8.00963C74.1175 5.97068 73.5695 3.40688 71.1172 2.79845C70.475 2.65845 69.8132 2.63173 69.1618 2.71949C65.0328 3.18395 58.7116 3.99674 56.6726 9.403C54.6337 14.8093 55.5254 17.3359 57.1324 20.2062Z" fill="#BA68C8"/>
<path id="Vector_138" opacity="0.3" d="M57.1324 20.2062C57.1696 20.2759 57.2067 20.3456 57.2485 20.4106C58.3102 22.2153 59.0504 24.1907 59.4361 26.2488L59.3107 21.5299C59.3107 21.5299 57.5504 22.2963 58.0428 19.4259C58.4422 17.0758 59.7659 14.2705 60.8295 12.552C61.7259 11.1122 62.7802 9.14755 67.2297 8.93854C69.812 8.81314 71.3355 9.403 72.3387 10.3319L73.6299 8.67845L74.1408 8.00963C74.1175 5.97068 73.5695 3.40688 71.1172 2.79845C70.475 2.65845 69.8132 2.63173 69.1618 2.71949C65.0328 3.18395 58.7116 3.99674 56.6726 9.403C54.6337 14.8093 55.5254 17.3359 57.1324 20.2062Z" fill="black"/>
<path id="Vector_139" d="M74.6842 17.7492C74.672 16.3248 74.7464 14.9009 74.9071 13.4856C75.1115 11.9761 75.418 10.9218 74.9071 9.1011C73.9782 5.72916 67.787 3.10034 63.8949 6.01248C60.0027 8.92461 58.5815 12.3291 58.7859 16.7228C58.7859 16.7228 60.9967 11.1493 65.3858 9.68631C68.637 8.59949 71.9253 8.83636 73.5509 12.2455C74.3428 13.9698 74.7304 15.8523 74.6842 17.7492Z" fill="#BA68C8"/>
<path id="Vector_140" d="M69.1525 8.83636C69.8692 8.57242 70.6052 8.36434 71.354 8.21399C72.11 8.06167 72.8952 8.168 73.5834 8.51589C73.9181 8.69265 74.1952 8.96151 74.3821 9.29072C74.5689 9.61992 74.6576 9.99571 74.6377 10.3737C74.5213 10.741 74.4787 11.1278 74.5123 11.5116C74.5718 11.6664 74.6647 11.8061 74.7843 11.9209C74.9039 12.0357 75.0473 12.1227 75.2044 12.1758C75.5109 12.3012 75.8453 12.3476 76.1333 12.4545C76.486 12.5611 76.804 12.7597 77.0545 13.0299C77.3051 13.3001 77.4793 13.6321 77.5591 13.9918C77.6184 14.3543 77.5321 14.7256 77.319 15.0248C77.1059 15.324 76.7832 15.527 76.4212 15.5895C76.5224 15.4526 76.5941 15.2961 76.6317 15.13C76.6693 14.9639 76.672 14.7919 76.6397 14.6247C76.6074 14.4575 76.5408 14.2988 76.444 14.1587C76.3473 14.0186 76.2225 13.9001 76.0775 13.8107C75.4784 13.4809 74.7399 13.7224 74.0618 13.6806C73.2378 13.5707 72.4768 13.1803 71.9067 12.5752C71.3122 12.0086 70.8199 11.3398 70.2161 10.7824C69.6123 10.2251 68.9296 10.0718 67.7173 9.99285C67.5594 9.99285 67.3829 9.21257 67.6152 9.17076C67.9635 9.10574 68.9528 8.90138 69.1525 8.83636Z" fill="#263238"/>
<g id="Earing">
<path id="Vector_141" d="M58.7859 26.4949C58.168 26.4965 57.5636 26.3146 57.0492 25.9723C56.5348 25.63 56.1336 25.1428 55.8963 24.5723C55.6591 24.0018 55.5965 23.3737 55.7165 22.7676C55.8365 22.1615 56.1337 21.6047 56.5704 21.1676C56.618 21.1222 56.6812 21.0969 56.7469 21.0969C56.8127 21.0969 56.8759 21.1222 56.9234 21.1676C56.9699 21.2146 56.996 21.278 56.996 21.3441C56.996 21.4102 56.9699 21.4737 56.9234 21.5206C56.6776 21.7633 56.4827 22.0526 56.3503 22.3717C56.2179 22.6907 56.1506 23.033 56.1524 23.3784C56.1515 23.8986 56.3049 24.4073 56.5932 24.8402C56.8815 25.2731 57.2917 25.6108 57.772 25.8105C58.2523 26.0101 58.781 26.0629 59.2912 25.962C59.8015 25.8611 60.2703 25.611 60.6384 25.2436C61.0066 24.8761 61.2574 24.4077 61.3592 23.8977C61.461 23.3876 61.4092 22.8588 61.2104 22.3782C61.0116 21.8975 60.6746 21.4867 60.2422 21.1976C59.8098 20.9086 59.3014 20.7543 58.7812 20.7543C58.7457 20.7591 58.7096 20.7563 58.6753 20.7461C58.641 20.7358 58.6093 20.7183 58.5823 20.6948C58.5553 20.6713 58.5337 20.6422 58.5189 20.6096C58.504 20.577 58.4964 20.5416 58.4964 20.5058C58.4964 20.47 58.504 20.4346 58.5189 20.402C58.5337 20.3694 58.5553 20.3403 58.5823 20.3168C58.6093 20.2933 58.641 20.2758 58.6753 20.2655C58.7096 20.2552 58.7457 20.2525 58.7812 20.2573C59.609 20.2573 60.4029 20.5861 60.9882 21.1715C61.5735 21.7568 61.9024 22.5507 61.9024 23.3784C61.9024 24.2062 61.5735 25.0001 60.9882 25.5854C60.4029 26.1708 59.609 26.4996 58.7812 26.4996L58.7859 26.4949Z" fill="#37474F"/>
</g>
</g>
</g>
</g>
<g id="Microphone">
<g id="microphone">
<g id="Cable">
<path id="Vector_142" d="M113.006 161.122C112.883 161.122 112.765 161.073 112.678 160.986C112.591 160.899 112.542 160.781 112.542 160.657C112.542 158.484 114.483 155.702 116.545 152.762C118.868 149.408 121.543 145.614 121.543 142.353C121.543 139.487 119.722 136.78 117.795 133.919C115.63 130.705 113.396 127.384 113.396 123.408C113.396 119.432 115.589 116.181 117.711 112.995C119.681 110.036 121.538 107.24 121.538 104.17C121.538 100.761 119.267 97.3475 116.861 93.7387C114.762 90.5897 112.598 87.3339 111.864 83.8876C110.317 76.6282 111.864 68.7789 111.864 68.6999C111.876 68.6389 111.899 68.5809 111.934 68.5291C111.968 68.4773 112.012 68.4328 112.064 68.398C112.115 68.3633 112.173 68.3391 112.234 68.3267C112.295 68.3144 112.358 68.3142 112.419 68.3261C112.48 68.3379 112.538 68.3617 112.59 68.3961C112.641 68.4304 112.686 68.4746 112.721 68.5261C112.755 68.5777 112.78 68.6355 112.792 68.6964C112.804 68.7573 112.805 68.8201 112.793 68.8811C112.793 68.9554 111.288 76.6235 112.793 83.6925C113.489 86.9437 115.607 90.1485 117.656 93.2231C120.145 96.9388 122.49 100.483 122.49 104.17C122.49 107.528 120.558 110.44 118.505 113.52C116.453 116.599 114.349 119.771 114.349 123.417C114.349 127.063 116.504 130.314 118.589 133.408C120.596 136.394 122.495 139.213 122.495 142.362C122.495 145.916 119.75 149.84 117.33 153.305C115.356 156.124 113.494 158.79 113.494 160.671C113.492 160.733 113.478 160.794 113.453 160.85C113.427 160.907 113.39 160.957 113.345 160.999C113.299 161.041 113.246 161.074 113.188 161.095C113.13 161.116 113.068 161.125 113.006 161.122Z" fill="#263238"/>
</g>
<g id="pop-filter">
<path id="Vector_143" d="M118.041 83.7111C117.919 83.7129 117.798 83.6807 117.693 83.6182L111.19 79.8608C108.324 78.1996 105.944 75.8155 104.288 72.9467C102.632 70.0778 101.758 66.8246 101.753 63.512V59.9078C101.753 59.723 101.826 59.5458 101.957 59.4152C102.087 59.2845 102.264 59.2111 102.449 59.2111C102.634 59.2111 102.811 59.2845 102.942 59.4152C103.073 59.5458 103.146 59.723 103.146 59.9078V63.512C103.151 66.5799 103.961 69.5929 105.495 72.2498C107.028 74.9068 109.233 77.1148 111.887 78.6532L118.389 82.4107C118.522 82.4872 118.626 82.6056 118.685 82.7474C118.744 82.8892 118.754 83.0464 118.715 83.1947C118.675 83.343 118.587 83.474 118.466 83.5674C118.344 83.6608 118.195 83.7113 118.041 83.7111Z" fill="#263238"/>
<path id="Vector_144" d="M112.138 44.7016C112.138 44.6365 112.138 44.5715 112.138 44.5065V44.2557C112.138 44.1628 112.138 44.0653 112.115 43.9724C112.115 43.9027 112.115 43.833 112.091 43.7634C112.094 43.7511 112.094 43.7385 112.091 43.7262C112.091 43.6519 112.091 43.5822 112.063 43.5079C112.036 43.4336 112.036 43.3128 112.017 43.2199C111.998 43.1271 111.989 43.0574 111.971 42.9738V42.9134C111.971 42.8252 111.933 42.7369 111.91 42.6487C111.887 42.5604 111.85 42.4211 111.817 42.3143C111.785 42.2074 111.766 42.1564 111.738 42.0774C111.71 41.9984 111.673 41.8963 111.641 41.808C111.608 41.7198 111.571 41.6408 111.534 41.5572C111.501 41.4782 111.464 41.3993 111.427 41.325L111.325 41.1346L111.265 41.0277L111.144 40.8327C111.102 40.7723 111.065 40.7119 111.018 40.6515C110.972 40.5911 110.907 40.4982 110.847 40.4239C110.786 40.3496 110.758 40.3125 110.712 40.2614L110.559 40.1035C110.484 40.0291 110.41 39.9548 110.331 39.8898L110.192 39.7737L110.159 39.7458L110.043 39.6576L109.959 39.5972H109.936L109.797 39.5043C109.709 39.4397 109.616 39.3822 109.518 39.3325L108.622 38.8076C107.057 37.9205 104.906 38.0552 102.533 39.43C97.7536 42.1842 93.8801 48.8909 93.8801 54.4087C93.8801 57.1954 94.8647 59.1368 96.4578 60.0286L97.3867 60.5673L97.4331 60.5952L97.5121 60.637L97.6607 60.7113L97.7397 60.7485H97.7676L97.9162 60.8135L98.1112 60.8832H98.167L98.376 60.9482L98.585 60.9993H98.6268L98.8358 61.0364H98.8822C98.9606 61.0506 99.0397 61.0599 99.1191 61.0643H99.3281H99.6393C101.008 61.0129 102.34 60.6063 103.504 59.8846C108.278 57.1257 112.152 50.419 112.152 44.9059C112.142 44.8781 112.142 44.7898 112.138 44.7016ZM103.494 59.0997C99.1238 61.6263 95.5985 59.5641 95.5985 54.5294C95.5985 49.4947 99.1423 43.35 103.494 40.8234C107.846 38.2967 111.39 40.3589 111.39 45.3936C111.39 50.4283 107.865 56.5777 103.48 59.0997H103.494Z" fill="#455A64"/>
<path id="Vector_145" d="M111.409 45.3936C111.409 50.4376 107.865 56.5777 103.513 59.0997C101.074 60.493 98.8962 60.493 97.4471 59.3365C98.8404 59.8799 100.601 59.6616 102.556 58.5423C106.931 56.0157 110.475 49.8802 110.475 44.8316C110.475 42.5976 109.778 40.9534 108.617 40.0291C110.317 40.7258 111.409 42.5836 111.409 45.3936Z" fill="#263238"/>
<path id="Vector_146" d="M103.48 39.9781C98.7011 42.7323 94.8322 49.439 94.8322 54.9567C94.8322 60.4744 98.7011 62.7085 103.48 59.9496C108.26 57.1907 112.129 50.484 112.129 44.9709C112.129 39.4579 108.269 37.2192 103.48 39.9781ZM103.48 59.0997C99.1098 61.6263 95.5846 59.5641 95.5846 54.5294C95.5846 49.4947 99.1284 43.3454 103.48 40.8234C107.832 38.3014 111.376 40.3589 111.376 45.3936C111.376 50.4283 107.865 56.5777 103.48 59.0997Z" fill="#37474F"/>
<path id="Vector_147" opacity="0.5" d="M108.715 40.0802C107.321 39.4718 105.496 39.6669 103.494 40.8234C99.1238 43.35 95.5986 49.4855 95.5986 54.5294C95.5986 56.9353 96.4021 58.6538 97.7118 59.527C99.1052 60.1354 100.93 59.9357 102.928 58.7792C107.298 56.2572 110.823 50.1218 110.823 45.0731C110.823 42.6765 110.025 40.9534 108.715 40.0802Z" fill="black"/>
</g>
<path id="Vector_148" d="M117.358 63.8417V63.8882L116.68 64.2272C116.629 64.0267 116.541 63.8376 116.42 63.6699C116.161 63.3049 115.82 63.0045 115.426 62.7921C114.45 62.2967 113.37 62.0386 112.275 62.0386C111.18 62.0386 110.1 62.2967 109.123 62.7921C108.73 63.0056 108.389 63.3039 108.125 63.6653C108.006 63.8362 107.918 64.0263 107.865 64.2272L107.187 63.8417C107.187 63.0893 107.684 62.3416 108.678 61.7656C109.792 61.2001 111.025 60.9054 112.275 60.9054C113.525 60.9054 114.757 61.2001 115.872 61.7656C116.861 62.3416 117.358 63.0893 117.358 63.8417Z" fill="#455A64"/>
<path id="Vector_149" d="M115.426 62.0211C114.449 61.5257 113.37 61.2676 112.275 61.2676C111.18 61.2676 110.1 61.5257 109.123 62.0211C108.25 62.5227 107.814 63.1822 107.814 63.8417C107.815 63.9719 107.832 64.1014 107.865 64.2272C107.918 64.0263 108.006 63.8362 108.125 63.6652C108.389 63.3039 108.73 63.0056 109.123 62.7921C110.1 62.2967 111.18 62.0386 112.275 62.0386C113.37 62.0386 114.449 62.2967 115.426 62.7921C115.82 63.0045 116.161 63.3049 116.42 63.6699C116.541 63.8376 116.629 64.0267 116.68 64.2272C116.715 64.1018 116.732 63.972 116.731 63.8417C116.731 63.1822 116.295 62.5227 115.426 62.0211Z" fill="#263238"/>
<g id="microphone_2">
<path id="Vector_150" d="M115.909 67.8825H114.98C114.839 67.7502 114.684 67.6348 114.516 67.5388C113.821 67.1863 113.054 67.0026 112.275 67.0026C111.496 67.0026 110.728 67.1863 110.034 67.5388C109.867 67.6363 109.711 67.7515 109.569 67.8825H108.64L109.175 69.2108C109.343 69.6115 109.648 69.9402 110.034 70.1397C110.729 70.4901 111.496 70.6726 112.275 70.6726C113.053 70.6726 113.821 70.4901 114.516 70.1397C114.902 69.9402 115.206 69.6115 115.375 69.2108L115.909 67.8825Z" fill="#BA68C8"/>
<path id="Vector_151" opacity="0.3" d="M115.909 67.8825H114.98C114.839 67.7502 114.684 67.6348 114.516 67.5388C113.821 67.1863 113.054 67.0026 112.275 67.0026C111.496 67.0026 110.728 67.1863 110.034 67.5388C109.867 67.6363 109.711 67.7515 109.569 67.8825H108.64L109.175 69.2108C109.343 69.6115 109.648 69.9402 110.034 70.1397C110.729 70.4901 111.496 70.6726 112.275 70.6726C113.053 70.6726 113.821 70.4901 114.516 70.1397C114.902 69.9402 115.206 69.6115 115.375 69.2108L115.909 67.8825Z" fill="black"/>
<path id="Vector_152" d="M116.021 67.3948V57.8131H108.543V67.3995C108.574 67.7273 108.691 68.0412 108.882 68.3089C109.074 68.5766 109.334 68.7885 109.634 68.9229C110.452 69.3374 111.356 69.5535 112.272 69.5535C113.189 69.5535 114.093 69.3374 114.911 68.9229C115.64 68.5002 116.021 67.9475 116.021 67.3948Z" fill="#BA68C8"/>
<path id="Vector_153" opacity="0.15" d="M116.021 67.3948V57.8131H108.543V67.3995C108.574 67.7273 108.691 68.0412 108.882 68.3089C109.074 68.5766 109.334 68.7885 109.634 68.9229C110.452 69.3374 111.356 69.5535 112.272 69.5535C113.189 69.5535 114.093 69.3374 114.911 68.9229C115.64 68.5002 116.021 67.9475 116.021 67.3948Z" fill="black"/>
<path id="Vector_154" d="M115.881 57.841C115.691 57.6639 115.483 57.5081 115.259 57.3765C114.334 56.9095 113.311 56.6662 112.275 56.6662C111.238 56.6662 110.216 56.9095 109.291 57.3765C109.066 57.5069 108.857 57.6628 108.668 57.841H108.055V59.1043C108.055 59.7313 108.464 60.3537 109.291 60.8274C110.215 61.297 111.238 61.5417 112.275 61.5417C113.312 61.5417 114.334 61.297 115.259 60.8274C116.081 60.363 116.494 59.7313 116.494 59.1043V57.841H115.881Z" fill="#BA68C8"/>
<path id="Vector_155" d="M109.291 59.5641C110.215 60.0337 111.238 60.2784 112.275 60.2784C113.312 60.2784 114.334 60.0337 115.259 59.5641C116.903 58.612 116.903 57.07 115.259 56.1179C114.334 55.6483 113.312 55.4036 112.275 55.4036C111.238 55.4036 110.215 55.6483 109.291 56.1179C107.66 57.07 107.66 58.612 109.291 59.5641Z" fill="#BA68C8"/>
<path id="Vector_156" opacity="0.3" d="M109.291 59.5641C110.215 60.0337 111.238 60.2784 112.275 60.2784C113.312 60.2784 114.334 60.0337 115.259 59.5641C116.903 58.612 116.903 57.07 115.259 56.1179C114.334 55.6483 113.312 55.4036 112.275 55.4036C111.238 55.4036 110.215 55.6483 109.291 56.1179C107.66 57.07 107.66 58.612 109.291 59.5641Z" fill="white"/>
<path id="Vector_157" d="M109.221 62.6527L108.896 62.8385V68.8207C109.026 68.9288 109.164 69.0267 109.309 69.1133C109.603 69.2791 109.915 69.4116 110.238 69.5081L110.563 69.3177V63.433L109.221 62.6527Z" fill="#BA68C8"/>
<path id="Vector_158" opacity="0.25" d="M108.896 68.8207C109.026 68.9288 109.164 69.0267 109.309 69.1133C109.603 69.2791 109.915 69.4116 110.238 69.5081V63.6234L108.882 62.8385L108.896 68.8207Z" fill="black"/>
<path id="Vector_159" opacity="0.3" d="M108.896 62.8385L109.221 62.6527L110.577 63.433L110.252 63.6234L108.896 62.8385Z" fill="white"/>
<path id="Vector_160" d="M109.597 63.786C109.562 63.7609 109.521 63.7451 109.478 63.7402C109.435 63.7354 109.391 63.7415 109.351 63.7581L109.193 63.851C109.158 63.876 109.13 63.9098 109.112 63.9489C109.094 63.988 109.087 64.0311 109.091 64.074C109.098 64.1937 109.132 64.3102 109.192 64.4142C109.252 64.5182 109.335 64.6069 109.435 64.6731C109.47 64.6979 109.512 64.7131 109.555 64.7172C109.598 64.7212 109.641 64.7141 109.681 64.6963L109.839 64.6035C109.874 64.5788 109.902 64.5451 109.92 64.5059C109.938 64.4667 109.945 64.4234 109.941 64.3805C109.935 64.2613 109.901 64.1451 109.841 64.0418C109.781 63.9384 109.698 63.8507 109.597 63.786Z" fill="#BA68C8"/>
<path id="Vector_161" d="M109.597 63.786C109.562 63.7609 109.521 63.7451 109.478 63.7402C109.435 63.7354 109.391 63.7415 109.351 63.7581L109.193 63.851C109.158 63.876 109.13 63.9098 109.112 63.9489C109.094 63.988 109.087 64.0311 109.091 64.074C109.098 64.1937 109.132 64.3102 109.192 64.4142C109.252 64.5182 109.335 64.6069 109.435 64.6731C109.47 64.6979 109.512 64.7131 109.555 64.7172C109.598 64.7212 109.641 64.7141 109.681 64.6963L109.839 64.6035C109.874 64.5788 109.902 64.5451 109.92 64.5059C109.938 64.4667 109.945 64.4234 109.941 64.3805C109.935 64.2613 109.901 64.1451 109.841 64.0418C109.781 63.9384 109.698 63.8507 109.597 63.786Z" fill="#BA68C8"/>
<path id="Vector_162" opacity="0.15" d="M109.435 63.8743C109.536 63.9397 109.62 64.0281 109.68 64.1322C109.741 64.2363 109.776 64.3532 109.783 64.4734C109.783 64.6917 109.625 64.7799 109.435 64.6731C109.335 64.6069 109.252 64.5182 109.192 64.4142C109.132 64.3102 109.098 64.1937 109.091 64.074C109.091 63.8557 109.244 63.7674 109.435 63.8743Z" fill="black"/>
<path id="Vector_163" d="M109.597 65.5091C109.562 65.4843 109.52 65.4692 109.477 65.4651C109.434 65.461 109.391 65.4682 109.351 65.4859L109.193 65.5788C109.158 65.6038 109.13 65.6375 109.112 65.6766C109.094 65.7158 109.087 65.7589 109.091 65.8017C109.097 65.921 109.131 66.0371 109.191 66.1405C109.251 66.2439 109.334 66.3315 109.435 66.3962C109.472 66.4183 109.514 66.43 109.558 66.43C109.601 66.43 109.644 66.4183 109.681 66.3962L109.839 66.308C109.874 66.283 109.902 66.2493 109.92 66.2102C109.937 66.171 109.945 66.1279 109.941 66.0851C109.931 65.9692 109.895 65.8571 109.836 65.7572C109.776 65.6574 109.695 65.5725 109.597 65.5091Z" fill="#BA68C8"/>
<path id="Vector_164" d="M109.597 65.5091C109.562 65.4843 109.52 65.4692 109.477 65.4651C109.434 65.461 109.391 65.4682 109.351 65.4859L109.193 65.5788C109.158 65.6038 109.13 65.6375 109.112 65.6766C109.094 65.7158 109.087 65.7589 109.091 65.8017C109.097 65.921 109.131 66.0371 109.191 66.1405C109.251 66.2439 109.334 66.3315 109.435 66.3962C109.472 66.4183 109.514 66.43 109.558 66.43C109.601 66.43 109.644 66.4183 109.681 66.3962L109.839 66.308C109.874 66.283 109.902 66.2493 109.92 66.2102C109.937 66.171 109.945 66.1279 109.941 66.0851C109.931 65.9692 109.895 65.8571 109.836 65.7572C109.776 65.6574 109.695 65.5725 109.597 65.5091Z" fill="#BA68C8"/>
<path id="Vector_165" opacity="0.15" d="M109.435 65.602C109.535 65.6671 109.619 65.7547 109.679 65.8579C109.74 65.9612 109.775 66.0771 109.783 66.1965C109.783 66.4195 109.625 66.5077 109.435 66.3963C109.334 66.3315 109.251 66.2439 109.191 66.1405C109.131 66.0371 109.097 65.921 109.091 65.8018C109.091 65.5835 109.244 65.4906 109.435 65.602Z" fill="black"/>
<path id="Vector_166" d="M109.597 67.2369C109.562 67.2112 109.521 67.1955 109.477 67.1914C109.434 67.1873 109.39 67.195 109.351 67.2137L109.193 67.3066C109.158 67.3312 109.13 67.3649 109.112 67.4041C109.094 67.4433 109.087 67.4866 109.091 67.5295C109.098 67.6486 109.132 67.7644 109.192 67.8677C109.252 67.971 109.335 68.0588 109.435 68.124C109.472 68.1461 109.514 68.1577 109.558 68.1577C109.601 68.1577 109.644 68.1461 109.681 68.124L109.839 68.0358C109.874 68.0097 109.902 67.9751 109.919 67.9353C109.937 67.8955 109.945 67.8517 109.941 67.8082C109.931 67.6931 109.894 67.5819 109.835 67.4829C109.775 67.384 109.694 67.2998 109.597 67.2369Z" fill="#BA68C8"/>
<path id="Vector_167" d="M109.597 67.2369C109.562 67.2112 109.521 67.1955 109.477 67.1914C109.434 67.1873 109.39 67.195 109.351 67.2137L109.193 67.3066C109.158 67.3312 109.13 67.3649 109.112 67.4041C109.094 67.4433 109.087 67.4866 109.091 67.5295C109.098 67.6486 109.132 67.7644 109.192 67.8677C109.252 67.971 109.335 68.0588 109.435 68.124C109.472 68.1461 109.514 68.1577 109.558 68.1577C109.601 68.1577 109.644 68.1461 109.681 68.124L109.839 68.0358C109.874 68.0097 109.902 67.9751 109.919 67.9353C109.937 67.8955 109.945 67.8517 109.941 67.8082C109.931 67.6931 109.894 67.5819 109.835 67.4829C109.775 67.384 109.694 67.2998 109.597 67.2369Z" fill="#BA68C8"/>
<path id="Vector_168" opacity="0.15" d="M109.435 67.3298C109.536 67.3943 109.62 67.4818 109.68 67.5851C109.741 67.6885 109.776 67.8047 109.783 67.9243C109.783 68.1426 109.625 68.2355 109.435 68.124C109.335 68.0588 109.252 67.971 109.192 67.8677C109.132 67.7644 109.098 67.6486 109.091 67.5295C109.091 67.3066 109.244 67.1998 109.435 67.3298Z" fill="black"/>
<path id="Vector_169" d="M116.021 54.4272L115.784 50.1775L115.607 47.1585C115.577 46.9056 115.492 46.6623 115.358 46.4456C115.224 46.229 115.045 46.0443 114.832 45.9045L114.497 45.7094C114.273 45.5971 114.026 45.5385 113.775 45.5385C113.524 45.5385 113.277 45.5971 113.053 45.7094L109.741 47.623C109.528 47.7623 109.347 47.946 109.212 48.1617C109.076 48.3774 108.989 48.6198 108.956 48.8724L108.557 54.4458V57.8224C108.557 58.3751 108.919 58.9325 109.648 59.3551C110.466 59.7697 111.37 59.9857 112.286 59.9857C113.203 59.9857 114.107 59.7697 114.925 59.3551C115.658 58.9325 116.021 58.3751 116.016 57.8224L116.021 54.4272Z" fill="#263238"/>
<path id="Vector_170" d="M109.727 48.459L110.066 48.6494C110.29 48.764 110.537 48.8237 110.789 48.8237C111.04 48.8237 111.287 48.764 111.511 48.6494L114.818 46.7405C114.896 46.7025 114.962 46.6431 115.009 46.5692C115.055 46.4952 115.08 46.4098 115.08 46.3225C115.08 46.2353 115.055 46.1498 115.009 46.0758C114.962 46.0019 114.896 45.9425 114.818 45.9045L114.483 45.7094C114.259 45.5971 114.012 45.5385 113.761 45.5385C113.51 45.5385 113.263 45.5971 113.039 45.7094L109.727 47.623C109.649 47.661 109.583 47.7204 109.536 47.7943C109.49 47.8683 109.465 47.9537 109.465 48.041C109.465 48.1282 109.49 48.2137 109.536 48.2877C109.583 48.3616 109.649 48.421 109.727 48.459Z" fill="#455A64"/>
<path id="Vector_171" d="M113.629 55.4026C114.938 54.6455 115.9 52.3093 115.77 50.1775L115.593 47.1585C115.61 47.0625 115.596 46.9637 115.554 46.876C115.511 46.7884 115.442 46.7164 115.356 46.6701C115.27 46.6239 115.172 46.6058 115.076 46.6185C114.979 46.6311 114.889 46.6738 114.818 46.7405L111.511 48.6494C111.303 48.7854 111.132 48.9715 111.014 49.1906C110.897 49.4097 110.836 49.6548 110.837 49.9034C110.879 50.6094 110.949 51.7009 111.023 52.9224C111.153 55.0496 112.305 56.1643 113.629 55.4026Z" fill="#37474F"/>
<path id="Vector_172" d="M114.818 45.9045L114.483 45.7094H114.414L110.141 48.1803C110.005 48.2541 109.891 48.3618 109.81 48.4929C109.728 48.624 109.682 48.7739 109.676 48.9281L109.342 59.1461C109.435 59.2154 109.533 59.279 109.634 59.3365L109.746 59.4016L110.085 49.1603C110.091 49.0055 110.136 48.8547 110.218 48.7229C110.299 48.591 110.413 48.4825 110.549 48.4079L114.818 45.9417V45.9045Z" fill="#BA68C8"/>
<path id="Vector_173" opacity="0.3" d="M114.414 45.7094L110.141 48.1803C110.004 48.2576 109.89 48.3698 109.811 48.5054L110.066 48.6494C110.118 48.6813 110.172 48.7077 110.229 48.7284C110.306 48.5969 110.417 48.488 110.549 48.4126L114.818 45.9463V45.9045L114.483 45.7094H114.414Z" fill="white"/>
</g>
<path id="Vector_174" d="M117.358 63.8882V64.6081C117.358 65.3605 116.866 66.1129 115.872 66.6842C114.757 67.2497 113.525 67.5444 112.275 67.5444C111.025 67.5444 109.792 67.2497 108.678 66.6842C108.239 66.4443 107.858 66.1133 107.558 65.7135C107.321 65.3932 107.191 65.0064 107.187 64.6081V63.8417L107.865 64.2272C107.969 64.538 108.134 64.8249 108.35 65.0713C108.566 65.3177 108.829 65.5186 109.123 65.6624C110.1 66.1577 111.18 66.4159 112.275 66.4159C113.37 66.4159 114.45 66.1577 115.426 65.6624C115.72 65.5185 115.982 65.3175 116.198 65.0711C116.413 64.8247 116.577 64.5378 116.68 64.2272L117.358 63.8882Z" fill="#37474F"/>
<path id="Vector_175" d="M116.68 64.2272C116.577 64.5378 116.413 64.8247 116.198 65.0711C115.982 65.3175 115.72 65.5185 115.426 65.6624C114.45 66.1577 113.37 66.4159 112.275 66.4159C111.18 66.4159 110.1 66.1577 109.123 65.6624C108.829 65.5186 108.566 65.3177 108.35 65.0713C108.134 64.8249 107.969 64.538 107.865 64.2272L107.187 63.8417C107.203 64.1748 107.296 64.4998 107.457 64.7919C107.618 65.084 107.843 65.3356 108.116 65.5277C108.292 65.6746 108.482 65.8052 108.682 65.9178C109.797 66.4833 111.029 66.7781 112.279 66.7781C113.529 66.7781 114.762 66.4833 115.877 65.9178C116.076 65.8041 116.266 65.6736 116.443 65.5277C116.709 65.3397 116.931 65.0953 117.091 64.8119C117.252 64.5284 117.348 64.213 117.372 63.8882L116.68 64.2272Z" fill="#455A64"/>
<g id="Stand">
<path id="Vector_176" d="M127.168 157.824C127.172 157.587 127.149 157.35 127.098 157.118C126.68 154.475 123.847 152.632 121.733 151.865H114.906C112.872 152.492 109.964 154.475 109.541 157.114C109.491 157.347 109.467 157.585 109.472 157.824C109.472 157.861 109.472 157.94 109.472 157.94C109.555 159.185 110.401 160.411 112.05 161.359C115.51 163.356 121.116 163.356 124.59 161.359C126.229 160.43 127.084 159.185 127.168 157.94C127.168 157.94 127.168 157.861 127.168 157.824Z" fill="#37474F"/>
<path id="Vector_177" d="M114.051 152.269C111.701 153.626 111.701 155.827 114.051 157.183C116.401 158.539 120.21 158.539 122.56 157.183C124.91 155.827 124.91 153.626 122.56 152.269C120.21 150.913 116.401 150.913 114.051 152.269Z" fill="#455A64"/>
<path id="Vector_178" d="M119.007 88.5275C118.791 88.4171 118.553 88.3595 118.31 88.3595C118.068 88.3595 117.829 88.4171 117.614 88.5275C117.534 88.5633 117.466 88.6196 117.415 88.6906C117.365 88.7616 117.334 88.8448 117.326 88.9316V154.466C117.334 154.553 117.365 154.636 117.415 154.707C117.466 154.778 117.534 154.834 117.614 154.87C117.83 154.979 118.069 155.035 118.31 155.035C118.552 155.035 118.791 154.979 119.007 154.87C119.088 154.835 119.157 154.78 119.209 154.708C119.26 154.637 119.292 154.554 119.3 154.466V88.9316C119.292 88.8441 119.26 88.7604 119.209 88.6893C119.157 88.6182 119.088 88.5623 119.007 88.5275Z" fill="#37474F"/>
<path id="Vector_179" opacity="0.25" d="M117.878 88.7086C117.778 88.7348 117.681 88.7738 117.59 88.8248C117.537 88.8527 117.489 88.8887 117.447 88.9316H117.303V154.466C117.31 154.553 117.341 154.636 117.392 154.707C117.442 154.778 117.511 154.834 117.59 154.87C117.681 154.921 117.778 154.96 117.878 154.986V88.7086Z" fill="black"/>
<path id="Vector_180" opacity="0.25" d="M119.007 88.8248C118.791 88.7143 118.553 88.6567 118.31 88.6567C118.068 88.6567 117.829 88.7143 117.614 88.8248C117.56 88.8527 117.512 88.8888 117.47 88.9316H117.326V90.599C117.972 90.8051 118.668 90.7969 119.309 90.5758V88.9316H119.165C119.117 88.8891 119.064 88.8532 119.007 88.8248Z" fill="black"/>
<path id="Vector_181" d="M119.89 80.9244C119.804 80.8443 119.709 80.7756 119.606 80.72C119.191 80.5095 118.732 80.3997 118.266 80.3997C117.801 80.3997 117.342 80.5095 116.926 80.72C116.826 80.7767 116.732 80.8453 116.648 80.9244H116.374V89.0012C116.387 89.1684 116.446 89.3287 116.543 89.4653C116.64 89.6019 116.773 89.7095 116.926 89.7769C117.342 89.9874 117.801 90.0972 118.266 90.0972C118.732 90.0972 119.191 89.9874 119.606 89.7769C119.761 89.7102 119.894 89.6028 119.992 89.4662C120.09 89.3296 120.15 89.1689 120.164 89.0012V80.9244H119.89Z" fill="#37474F"/>
<path id="Vector_182" opacity="0.25" d="M117.474 80.5017C117.282 80.5485 117.098 80.622 116.926 80.72C116.826 80.7767 116.732 80.8453 116.648 80.9244H116.374V89.0013C116.387 89.1684 116.446 89.3287 116.543 89.4653C116.64 89.6019 116.773 89.7095 116.926 89.7769C117.099 89.8715 117.283 89.9433 117.474 89.9906V80.5017Z" fill="black"/>
<path id="Vector_183" d="M116.95 81.6954C117.365 81.9059 117.824 82.0156 118.289 82.0156C118.755 82.0156 119.214 81.9059 119.629 81.6954C120.373 81.2681 120.373 80.576 119.629 80.1487C119.214 79.9382 118.755 79.8285 118.289 79.8285C117.824 79.8285 117.365 79.9382 116.95 80.1487C116.188 80.576 116.188 81.2681 116.95 81.6954Z" fill="#455A64"/>
<path id="Vector_184" d="M119.481 82.4942C119.567 82.4315 119.668 82.3924 119.774 82.381C119.88 82.3696 119.987 82.3862 120.085 82.4292L120.479 82.6614C120.567 82.7229 120.636 82.8065 120.68 82.9037C120.724 83.0009 120.741 83.108 120.73 83.2141C120.714 83.5101 120.628 83.798 120.479 84.0545C120.331 84.3111 120.124 84.5292 119.876 84.6911C119.789 84.7531 119.688 84.7913 119.582 84.8019C119.476 84.8125 119.369 84.7951 119.272 84.7515L118.882 84.5286C118.793 84.4673 118.722 84.3831 118.677 84.285C118.632 84.1869 118.615 84.0785 118.626 83.9712C118.643 83.6753 118.729 83.3874 118.877 83.1308C119.026 82.8742 119.233 82.6562 119.481 82.4942Z" fill="#BA68C8"/>
<path id="Vector_185" d="M119.481 82.4942C119.567 82.4315 119.668 82.3924 119.774 82.381C119.88 82.3696 119.987 82.3862 120.085 82.4292L120.479 82.6614C120.567 82.7229 120.636 82.8065 120.68 82.9037C120.724 83.0009 120.741 83.108 120.73 83.2141C120.714 83.5101 120.628 83.798 120.479 84.0545C120.331 84.3111 120.124 84.5292 119.876 84.6911C119.789 84.7531 119.688 84.7913 119.582 84.8019C119.476 84.8125 119.369 84.7951 119.272 84.7515L118.882 84.5286C118.793 84.4673 118.722 84.3831 118.677 84.285C118.632 84.1869 118.615 84.0785 118.626 83.9712C118.643 83.6753 118.729 83.3874 118.877 83.1308C119.026 82.8742 119.233 82.6562 119.481 82.4942Z" fill="#BA68C8"/>
<path id="Vector_186" opacity="0.15" d="M119.876 82.7218C119.625 82.8818 119.417 83.0994 119.269 83.3564C119.12 83.6134 119.035 83.9022 119.021 84.1988C119.021 84.7422 119.402 84.9651 119.876 84.6911C120.124 84.5292 120.331 84.3111 120.479 84.0545C120.627 83.798 120.714 83.5101 120.73 83.2141C120.73 82.6707 120.345 82.4478 119.876 82.7218Z" fill="black"/>
<path id="Vector_187" d="M119.156 69.5499C119.11 69.5095 119.06 69.4737 119.007 69.4431C118.791 69.3348 118.552 69.2784 118.31 69.2784C118.069 69.2784 117.83 69.3348 117.614 69.4431C117.561 69.4726 117.513 69.5085 117.47 69.5499H117.326V80.8408C117.334 80.9276 117.365 81.0108 117.415 81.0818C117.466 81.1528 117.534 81.209 117.614 81.2449C117.829 81.3553 118.068 81.4129 118.31 81.4129C118.553 81.4129 118.791 81.3553 119.007 81.2449C119.088 81.2101 119.157 81.1542 119.209 81.0831C119.26 81.012 119.292 80.9282 119.3 80.8408V69.5499H119.156Z" fill="#37474F"/>
<path id="Vector_188" opacity="0.25" d="M117.878 69.3316C117.777 69.3541 117.68 69.3917 117.59 69.4431C117.538 69.4726 117.49 69.5085 117.447 69.5499H117.303V80.8408C117.31 80.9276 117.341 81.0108 117.392 81.0818C117.442 81.1527 117.511 81.209 117.59 81.2449C117.681 81.2958 117.778 81.3348 117.878 81.361V69.3316Z" fill="black"/>
<path id="Vector_189" d="M117.604 69.954C117.821 70.0623 118.059 70.1187 118.301 70.1187C118.543 70.1187 118.782 70.0623 118.998 69.954C119.082 69.925 119.155 69.8705 119.207 69.7981C119.258 69.7257 119.286 69.6389 119.286 69.5499C119.286 69.4609 119.258 69.3741 119.207 69.3017C119.155 69.2292 119.082 69.1748 118.998 69.1458C118.782 69.0375 118.543 68.9811 118.301 68.9811C118.059 68.9811 117.821 69.0375 117.604 69.1458C117.52 69.1748 117.447 69.2292 117.396 69.3017C117.344 69.3741 117.316 69.4609 117.316 69.5499C117.316 69.6389 117.344 69.7257 117.396 69.7981C117.447 69.8705 117.52 69.925 117.604 69.954Z" fill="#455A64"/>
<path id="Vector_190" d="M119.736 67.7989C119.659 67.7289 119.575 67.6667 119.485 67.6131C119.114 67.4253 118.703 67.3275 118.287 67.3275C117.871 67.3275 117.46 67.4253 117.089 67.6131C116.999 67.6667 116.915 67.7289 116.838 67.7989H116.592V69.3548C116.606 69.5038 116.66 69.6464 116.747 69.768C116.834 69.8896 116.952 69.9858 117.089 70.0469C117.46 70.2346 117.871 70.3324 118.287 70.3324C118.703 70.3324 119.114 70.2346 119.485 70.0469C119.623 69.9866 119.741 69.8906 119.829 69.7689C119.916 69.6471 119.969 69.5041 119.982 69.3548V67.7989H119.736Z" fill="#BA68C8"/>
<path id="Vector_191" opacity="0.25" d="M117.595 67.4227C117.425 67.4642 117.261 67.5283 117.107 67.6131C117.018 67.6667 116.934 67.7289 116.857 67.7989H116.61V69.3548C116.625 69.5038 116.678 69.6464 116.765 69.768C116.853 69.8896 116.971 69.9858 117.107 70.0469C117.261 70.1332 117.425 70.1988 117.595 70.2419V67.4227Z" fill="black"/>
<path id="Vector_192" d="M117.107 68.4909C117.479 68.6787 117.889 68.7765 118.306 68.7765C118.722 68.7765 119.133 68.6787 119.504 68.4909C120.168 68.1101 120.168 67.4877 119.504 67.0976C119.133 66.9098 118.722 66.812 118.306 66.812C117.889 66.812 117.479 66.9098 117.107 67.0976C116.448 67.4877 116.448 68.1286 117.107 68.4909Z" fill="#BA68C8"/>
<path id="Vector_193" opacity="0.3" d="M117.107 68.4909C117.479 68.6787 117.889 68.7765 118.306 68.7765C118.722 68.7765 119.133 68.6787 119.504 68.4909C120.168 68.1101 120.168 67.4877 119.504 67.0976C119.133 66.9098 118.722 66.812 118.306 66.812C117.889 66.812 117.479 66.9098 117.107 67.0976C116.448 67.4877 116.448 68.1286 117.107 68.4909Z" fill="white"/>
<path id="Vector_194" d="M119.448 64.9146C119.39 64.8586 119.324 64.8103 119.253 64.7706C118.96 64.6217 118.635 64.5441 118.306 64.5441C117.977 64.5441 117.652 64.6217 117.358 64.7706C117.289 64.8126 117.224 64.8608 117.163 64.9146H116.95V67.7014C116.96 67.819 117.002 67.9317 117.071 68.028C117.139 68.1243 117.232 68.2007 117.34 68.2494C117.633 68.3983 117.958 68.476 118.287 68.476C118.616 68.476 118.941 68.3983 119.235 68.2494C119.342 68.2007 119.435 68.1243 119.504 68.028C119.572 67.9317 119.614 67.819 119.625 67.7014V64.9146H119.448Z" fill="#37474F"/>
<path id="Vector_195" opacity="0.25" d="M117.748 64.6174C117.613 64.6522 117.482 64.7037 117.358 64.7706C117.289 64.8126 117.224 64.8608 117.163 64.9146H116.95V67.7014C116.96 67.819 117.002 67.9317 117.071 68.028C117.139 68.1243 117.232 68.2007 117.34 68.2494C117.463 68.3163 117.594 68.3678 117.73 68.4027L117.748 64.6174Z" fill="black"/>
<path id="Vector_196" d="M117.358 65.4627C117.652 65.6116 117.977 65.6892 118.306 65.6892C118.635 65.6892 118.96 65.6116 119.253 65.4627C119.367 65.4242 119.467 65.3508 119.537 65.2529C119.607 65.155 119.645 65.0375 119.645 64.917C119.645 64.7964 119.607 64.6789 119.537 64.581C119.467 64.4831 119.367 64.4097 119.253 64.3712C118.96 64.2223 118.635 64.1447 118.306 64.1447C117.977 64.1447 117.652 64.2223 117.358 64.3712C117.244 64.4097 117.145 64.4831 117.074 64.581C117.004 64.6789 116.966 64.7964 116.966 64.917C116.966 65.0375 117.004 65.155 117.074 65.2529C117.145 65.3508 117.244 65.4242 117.358 65.4627Z" fill="#455A64"/>
<path id="Vector_197" d="M119.202 65.8621C119.245 65.8309 119.296 65.8116 119.349 65.8059C119.402 65.8002 119.455 65.8083 119.504 65.8296L119.704 65.9457C119.748 65.9765 119.783 66.0186 119.805 66.0677C119.827 66.1168 119.835 66.1709 119.829 66.2244C119.823 66.3735 119.781 66.5188 119.706 66.6482C119.632 66.7775 119.528 66.8871 119.402 66.9675C119.359 66.9993 119.308 67.0187 119.255 67.0236C119.202 67.0285 119.148 67.0188 119.1 66.9954L118.9 66.8839C118.856 66.8532 118.821 66.811 118.799 66.7619C118.777 66.7128 118.769 66.6587 118.775 66.6052C118.781 66.4562 118.823 66.3108 118.898 66.1814C118.972 66.0521 119.076 65.9426 119.202 65.8621Z" fill="#BA68C8"/>
<path id="Vector_198" d="M119.202 65.8621C119.245 65.8309 119.296 65.8116 119.349 65.8059C119.402 65.8002 119.455 65.8083 119.504 65.8296L119.704 65.9457C119.748 65.9765 119.783 66.0186 119.805 66.0677C119.827 66.1168 119.835 66.1709 119.829 66.2244C119.823 66.3735 119.781 66.5188 119.706 66.6482C119.632 66.7775 119.528 66.8871 119.402 66.9675C119.359 66.9993 119.308 67.0187 119.255 67.0236C119.202 67.0285 119.148 67.0188 119.1 66.9954L118.9 66.8839C118.856 66.8532 118.821 66.811 118.799 66.7619C118.777 66.7128 118.769 66.6587 118.775 66.6052C118.781 66.4562 118.823 66.3108 118.898 66.1814C118.972 66.0521 119.076 65.9426 119.202 65.8621Z" fill="#BA68C8"/>
<path id="Vector_199" opacity="0.15" d="M119.402 65.9736C119.277 66.0561 119.174 66.1668 119.099 66.2967C119.025 66.4265 118.982 66.572 118.975 66.7213C118.975 66.9954 119.165 67.1022 119.402 66.9675C119.528 66.8871 119.632 66.7775 119.706 66.6482C119.781 66.5188 119.823 66.3735 119.829 66.2244C119.829 65.9504 119.639 65.8389 119.402 65.9736Z" fill="black"/>
</g>
</g>
</g>
</g>
</svg>
