<svg width="104" height="161" viewBox="0 0 104 161" fill="none" xmlns="http://www.w3.org/2000/svg">
<g id="Character">
<g id="musical-notes">
<path id="musical-note" d="M82.8817 40.4957L79.8913 43.3702C79.796 43.1612 79.6366 42.9879 79.4362 42.8755C79.2359 42.7631 79.005 42.7174 78.7769 42.7449C78.5489 42.7725 78.3355 42.8719 78.1677 43.0288C77.9999 43.1857 77.8863 43.3919 77.8435 43.6176C77.8007 43.8433 77.8308 44.0768 77.9295 44.2842C78.0282 44.4917 78.1904 44.6623 78.3925 44.7715C78.5946 44.8807 78.8262 44.9227 79.0538 44.8914C79.2814 44.8602 79.4932 44.7574 79.6584 44.5978L82.3366 42.0426L85.6307 44.0749L82.9746 46.6372C82.9262 46.5227 82.8573 46.418 82.7713 46.3281C82.6197 46.1764 82.4265 46.0729 82.2162 46.0307C82.0058 45.9885 81.7877 46.0096 81.5893 46.0912C81.3909 46.1727 81.221 46.3112 81.1011 46.4891C80.9813 46.6671 80.9168 46.8765 80.9157 47.091C80.9147 47.3056 80.9772 47.5156 81.0953 47.6947C81.2134 47.8738 81.3819 48.0139 81.5795 48.0975C81.7771 48.181 81.9951 48.2041 82.2058 48.164C82.4166 48.1239 82.6107 48.0223 82.7638 47.872L87.1832 43.5536L82.8817 40.4957Z" fill="#FEA1BF"/>
<path id="musical-note_2" d="M20.292 6.98255L21.068 11.0557C20.9464 11.0342 20.8219 11.0356 20.7009 11.0598C20.491 11.1011 20.2981 11.2036 20.1465 11.3545C19.9949 11.5053 19.8913 11.6977 19.849 11.9073C19.8066 12.117 19.8273 12.3345 19.9085 12.5323C19.9897 12.7302 20.1277 12.8996 20.305 13.0191C20.4824 13.1386 20.6912 13.2029 20.9051 13.2038C21.119 13.2047 21.3283 13.1422 21.5067 13.0243C21.6851 12.9063 21.8245 12.7381 21.9074 12.5409C21.9903 12.3437 22.0128 12.1264 21.9723 11.9164L21.2761 8.27868L24.7397 6.60471L25.4315 10.2411C25.3084 10.2213 25.1828 10.2223 25.0599 10.2438C24.8531 10.2948 24.6659 10.4054 24.5215 10.562C24.377 10.7185 24.2818 10.9141 24.2475 11.1243C24.2133 11.3345 24.2416 11.5501 24.3289 11.7444C24.4162 11.9387 24.5586 12.1031 24.7386 12.217C24.9185 12.331 25.1279 12.3897 25.3409 12.3856C25.5538 12.3816 25.7609 12.315 25.9363 12.1943C26.1118 12.0735 26.2479 11.9039 26.3278 11.7065C26.4076 11.509 26.4277 11.2924 26.3855 11.0837L25.2009 5.04548L20.292 6.98255Z" fill="#FEA1BF"/>
<path id="musical-note_3" d="M8.90475 14.1822L5.95596 17.0945C5.85765 16.8867 5.69575 16.7157 5.49372 16.6061C5.29168 16.4965 5.06 16.4541 4.83225 16.485C4.6045 16.5159 4.39251 16.6185 4.22698 16.778C4.06145 16.9374 3.95099 17.1455 3.9116 17.3719C3.87221 17.5983 3.90593 17.8314 4.00789 18.0374C4.10985 18.2434 4.27474 18.4116 4.47867 18.5176C4.68261 18.6236 4.915 18.6619 5.14217 18.627C5.36934 18.5921 5.5795 18.4857 5.74219 18.3234L8.38889 15.7142L11.7131 17.683L9.10568 20.2609C9.05479 20.1482 8.98341 20.0459 8.89516 19.9593C8.74402 19.8081 8.55149 19.7051 8.34188 19.6632C8.13226 19.6213 7.91494 19.6425 7.71732 19.724C7.5197 19.8055 7.35065 19.9437 7.23148 20.1211C7.11231 20.2986 7.04837 20.5074 7.04772 20.7211C7.04707 20.9349 7.10974 21.1441 7.22782 21.3222C7.3459 21.5004 7.51411 21.6396 7.71123 21.7223C7.90834 21.805 8.12554 21.8275 8.33541 21.7869C8.54528 21.7463 8.73843 21.6445 8.89048 21.4942L13.2553 17.1633L8.90475 14.1822Z" fill="#FEA1BF"/>
<path id="musical-note_4" d="M71.5904 30.8541C71.8732 30.6367 72.1988 30.4818 72.5459 30.3997C73.0065 30.2967 73.4789 30.2562 73.9502 30.2796C74.581 30.3218 75.2143 30.3028 75.8414 30.2229C76.1582 30.1823 76.4632 30.0768 76.7373 29.9129C77.0114 29.7491 77.2488 29.5305 77.4346 29.2707C77.0795 29.3804 76.7038 29.4068 76.3368 29.3478C75.4598 29.2079 74.6572 28.5016 73.7883 28.1692C72.5536 27.6999 71.4815 27.9706 70.2178 28.5797C70.4539 29.7139 70.6578 30.8573 70.8733 31.9947C71.0469 32.8829 71.2176 33.7749 71.3854 34.671C71.4025 34.7545 71.5887 35.8922 71.5887 35.8922C71.2494 35.8 70.8937 35.7859 70.5483 35.8511C70.1694 35.9244 69.8208 36.1084 69.5465 36.3799C69.2722 36.6513 69.0846 36.998 69.0074 37.3761C68.9303 37.7542 68.9669 38.1467 69.1129 38.504C69.2588 38.8612 69.5074 39.1671 69.8272 39.3831C70.1471 39.599 70.5238 39.7152 70.9096 39.717C71.2955 39.7188 71.6733 39.6061 71.9951 39.3932C72.3169 39.1803 72.5684 38.8767 72.7176 38.5208C72.8669 38.1649 72.9072 37.7728 72.8336 37.394L71.5904 30.8541Z" fill="#FEA1BF"/>
<path id="musical-note_5" d="M22.79 26.168C23.1252 26.2846 23.431 26.4726 23.6863 26.719C24.0236 27.0538 24.3158 27.4312 24.5553 27.8416C24.8614 28.3931 25.2205 28.9135 25.6275 29.3953C25.8312 29.6381 26.0824 29.8366 26.3656 29.9786C26.6489 30.1207 26.9582 30.2032 27.2746 30.2212C26.9924 29.979 26.7677 29.677 26.6168 29.3371C26.2611 28.5303 26.4133 27.4476 26.2287 26.5786C25.9556 25.2862 25.1436 24.5331 23.9486 23.8034C23.1234 24.6117 22.2732 25.4072 21.4362 26.2069C20.7764 26.8342 20.1196 27.4624 19.4657 28.0916L18.5498 28.9245C18.4404 28.5891 18.2595 28.2815 18.0196 28.0228C17.7524 27.7444 17.4086 27.5516 17.0318 27.4687C16.655 27.3858 16.262 27.4165 15.9026 27.5569C15.5432 27.6973 15.2335 27.9412 15.0128 28.2576C14.792 28.574 14.67 28.9488 14.6622 29.3346C14.6545 29.7204 14.7613 30.0998 14.9692 30.4248C15.177 30.7499 15.4766 31.006 15.8301 31.1607C16.1835 31.3155 16.5749 31.362 16.9548 31.2943C17.3347 31.2266 17.6859 31.0477 17.9641 30.7804L22.79 26.168Z" fill="#FEA1BF"/>
</g>
<path id="Vector" d="M73.7488 21.509L72.4527 28.668L73.0273 35.788L77.931 34.6086L80.601 31.4892L82.8433 28.897C82.8433 28.897 86.7317 31.3812 89.7906 27.9983C91.2681 26.3652 94.0332 22.7533 96.5002 19.4568C97.7798 17.7473 98.3685 15.6184 98.1492 13.4943C97.9298 11.3702 96.9184 9.40666 95.3164 7.99471L94.988 7.70092C91.2465 4.77167 86.6712 6.31406 83.8456 10.1333L73.7445 21.5263" fill="#F9F9F9"/>
<path id="Vector_2" d="M82.8735 28.8797C81.2718 27.5201 80.1095 25.7157 79.5339 23.6951C79.5339 23.6951 78.4149 27.0824 82.1002 29.787L82.8735 28.8797Z" fill="#AA6550"/>
<path id="Vector_3" d="M92.0977 18.9643C92.2143 18.9384 92.4044 19.5216 92.9618 19.9277C93.5191 20.3338 94.1542 20.3598 94.1672 20.4591C94.1801 20.5585 94.0203 20.5888 93.7351 20.5888C93.3651 20.5894 93.0047 20.4713 92.7068 20.2518C92.4065 20.0408 92.1834 19.7373 92.0717 19.3877C92.0156 19.1457 92.0458 18.9729 92.0977 18.9643Z" fill="#263238"/>
<path id="Vector_4" d="M86.5762 14.9031C86.6928 14.9031 86.8311 15.4906 87.3668 15.9443C87.9025 16.3979 88.516 16.4671 88.5204 16.5794C88.5247 16.6917 88.3605 16.696 88.0883 16.6744C87.7213 16.638 87.3751 16.4869 87.0989 16.2424C86.8207 16.0068 86.6241 15.6892 86.5373 15.3351C86.4768 15.0716 86.5243 14.9074 86.5762 14.9031Z" fill="#263238"/>
<path id="Vector_5" d="M87.5137 21.5825C87.8614 21.7388 88.1892 21.936 88.4901 22.17C88.637 22.2737 88.7882 22.3601 88.8919 22.2867C89.0256 22.159 89.1162 21.9929 89.1511 21.8114L89.6566 20.4376C90.3911 18.4977 91.0435 16.951 91.1212 16.9812C91.199 17.0115 90.6892 18.61 89.9374 20.5499C89.756 21.0251 89.5788 21.4788 89.4147 21.9108C89.3554 22.1473 89.2146 22.3554 89.0172 22.4984C88.9563 22.5295 88.889 22.5457 88.8206 22.5457C88.7523 22.5457 88.6849 22.5295 88.624 22.4984C88.5334 22.4514 88.4479 22.3949 88.3691 22.3299C88.054 22.1173 87.7666 21.8662 87.5137 21.5825Z" fill="#263238"/>
<path id="Vector_6" d="M87.626 13.0021C87.7729 12.8638 88.3605 13.257 89.1382 13.5378C89.9159 13.8186 90.6114 13.918 90.633 14.1168C90.633 14.2118 90.4559 14.3198 90.1319 14.3673C89.7117 14.4129 89.2868 14.3581 88.8919 14.2075C88.4925 14.0627 88.1329 13.8259 87.842 13.5162C87.626 13.2743 87.5569 13.0712 87.626 13.0021Z" fill="#263238"/>
<path id="Vector_7" d="M94.4134 16.9855C94.6165 16.9855 94.7374 17.4997 95.0399 17.9922C95.3423 18.4847 95.7052 18.8563 95.6274 19.0248C95.5842 19.1112 95.4071 19.1285 95.1652 19.0248C94.8554 18.8831 94.5984 18.6472 94.4307 18.3508C94.2532 18.0604 94.1688 17.7227 94.1887 17.383C94.219 17.1324 94.3227 16.9855 94.4134 16.9855Z" fill="#263238"/>
<path id="Vector_8" d="M81.8928 12.8941C81.8582 12.8206 80.1646 10.129 78.1729 12.5312C76.1812 14.9333 79.0068 16.4195 79.0673 16.3677C79.1277 16.3159 81.8928 12.8941 81.8928 12.8941Z" fill="#F9F9F9"/>
<path id="Vector_9" d="M79.0889 14.8512C79.0889 14.8512 79.0197 14.8512 78.9247 14.821C78.7904 14.7806 78.6762 14.6912 78.605 14.5704C78.5311 14.3435 78.519 14.1011 78.5699 13.868C78.6207 13.6349 78.7328 13.4195 78.8944 13.244C79.058 13.0312 79.2678 12.8584 79.5079 12.7385C79.5926 12.683 79.6894 12.6486 79.7901 12.6381C79.8908 12.6275 79.9925 12.6412 80.0869 12.678C80.1449 12.7059 80.1916 12.7529 80.2191 12.8111C80.2467 12.8693 80.2533 12.9352 80.2381 12.9978C80.2165 13.0928 80.1603 13.1274 80.169 13.1403C80.1776 13.1533 80.2554 13.1403 80.3202 13.028C80.3544 12.9568 80.3636 12.8761 80.3461 12.799C80.3225 12.6953 80.2588 12.6052 80.169 12.5484C80.0547 12.4849 79.926 12.4515 79.7952 12.4515C79.6645 12.4515 79.5358 12.4849 79.4215 12.5484C79.1469 12.6735 78.9068 12.8633 78.7216 13.1014C78.3371 13.5983 78.2118 14.255 78.4754 14.6438C78.5239 14.7154 78.5879 14.7751 78.6627 14.8185C78.7375 14.8619 78.8212 14.8879 78.9074 14.8944C79.0327 14.9074 79.0932 14.8642 79.0889 14.8512Z" fill="#AA6550"/>
<path id="Vector_10" d="M101.14 12.4577C101.067 12.1472 100.895 11.869 100.649 11.6655C100.403 11.4619 100.098 11.3442 99.7794 11.3301C99.9256 11.1496 100.027 10.9369 100.074 10.7096C100.122 10.4823 100.114 10.2469 100.053 10.023C99.9909 9.79914 99.8767 9.59319 99.7195 9.42227C99.5623 9.25135 99.3666 9.12038 99.1486 9.04025C99.3471 8.84181 99.4719 8.5815 99.5022 8.30244C99.5326 8.02339 99.4666 7.74235 99.3154 7.50588C99.1641 7.26942 98.9366 7.09174 98.6706 7.00227C98.4045 6.91281 98.1159 6.91693 97.8525 7.01397C97.8941 6.69881 97.8641 6.37833 97.7649 6.07632C97.6657 5.77431 97.4997 5.49852 97.2793 5.26942C97.059 5.04032 96.7898 4.86379 96.4919 4.75294C96.1939 4.64209 95.8749 4.59976 95.5583 4.62909C95.2178 4.06156 94.6816 3.63808 94.0505 3.43835C93.4195 3.23863 92.7373 3.27644 92.1322 3.54466C91.7244 3.2361 91.2344 3.05505 90.724 3.0243C90.2135 2.99355 89.7054 3.11447 89.2635 3.37184C88.9984 3.1745 88.6859 3.05054 88.3577 3.01248C88.0294 2.97441 87.6969 3.02358 87.3936 3.15503C87.0904 3.28648 86.8272 3.49557 86.6306 3.76119C86.434 4.02681 86.3109 4.33959 86.2737 4.66797C86.0632 4.62492 85.8457 4.63106 85.6379 4.68589C85.4302 4.74073 85.2379 4.84278 85.0761 4.98411C84.9143 5.12544 84.7873 5.30222 84.705 5.50068C84.6227 5.69914 84.5874 5.91392 84.6017 6.12828C84.3521 6.05975 84.0881 6.06361 83.8406 6.13939C83.5931 6.21518 83.3722 6.35978 83.2037 6.55633C83.0353 6.75288 82.9261 6.99327 82.8891 7.24947C82.8521 7.50568 82.8886 7.76713 82.9945 8.00334C82.6143 7.74412 82.0743 8.07679 81.8842 8.50019C81.6941 8.9236 81.9101 9.5371 81.5645 9.84385C81.33 10.1365 81.1685 10.4807 81.0934 10.848C81.0183 11.2154 81.0317 11.5954 81.1324 11.9565L80.0869 13.9223C80.0683 14.0265 80.0857 14.1338 80.1362 14.2267C80.1866 14.3197 80.2672 14.3927 80.3646 14.4339C80.462 14.4751 80.5705 14.482 80.6723 14.4534C80.7742 14.4248 80.8633 14.3625 80.925 14.2766C81.0719 14.0779 81.2102 13.9137 81.3571 13.9094C81.7278 13.941 82.1011 13.9133 82.4631 13.8273C82.9685 13.7183 83.4559 13.538 83.9104 13.2916C84.1108 13.1712 84.2668 12.989 84.3548 12.7724C84.4428 12.5558 84.4582 12.3165 84.3987 12.0905C84.6677 12.1827 84.9562 12.2025 85.2353 12.1479C85.5144 12.0933 85.7742 11.9662 85.9886 11.7794C86.4139 11.402 86.768 10.9513 87.0341 10.4487L88.3303 8.28849C88.7718 8.64265 89.3015 8.86996 89.8624 8.94607C90.4233 9.02218 90.9944 8.94421 91.5144 8.72054C91.5755 8.96493 91.6877 9.19361 91.8436 9.39153C91.9994 9.58946 92.1954 9.75213 92.4187 9.86886C92.6419 9.98558 92.8874 10.0537 93.1388 10.0688C93.3903 10.0838 93.6421 10.0454 93.8777 9.95618C93.6623 10.5037 93.6629 11.1126 93.8795 11.6596C94.0961 12.2067 94.5124 12.651 95.0442 12.9027C94.5257 13.3045 94.9967 14.5229 95.3596 15.0629C95.7225 15.603 96.889 15.5295 96.889 15.5295C96.889 15.5295 97.0057 17.0071 97.6105 17.2231C98.2154 17.4392 99.2955 17.396 99.4165 16.6788C99.8158 16.4511 100.156 16.133 100.41 15.7499C100.568 15.4869 100.647 15.184 100.637 14.8775C100.627 14.571 100.529 14.2738 100.354 14.0217C100.637 13.8815 100.867 13.6532 101.008 13.3711C101.15 13.089 101.197 12.7684 101.14 12.4577Z" fill="#263238"/>
<path id="Vector_11" d="M84.8825 16.3029C84.8264 16.3288 84.7443 16.2727 84.7313 16.169C84.7184 16.0653 84.7832 15.9875 84.8437 16.0005C84.8729 16.0116 84.8987 16.0304 84.918 16.055C84.9374 16.0796 84.9498 16.109 84.9538 16.14C84.9578 16.1711 84.9533 16.2026 84.9407 16.2313C84.9282 16.26 84.9081 16.2847 84.8825 16.3029Z" fill="#AA6550"/>
<path id="Vector_12" d="M85.8978 17.1367C85.9281 17.1929 85.8978 17.2707 85.7985 17.3139C85.7675 17.3358 85.7295 17.3453 85.6919 17.3405C85.6543 17.3357 85.6199 17.3169 85.5954 17.288C85.5695 17.2361 85.5954 17.154 85.6991 17.1151C85.8028 17.0763 85.8719 17.0806 85.8978 17.1367Z" fill="#AA6550"/>
<path id="Vector_13" d="M86.8829 18.1607C86.9011 18.1882 86.9076 18.2218 86.9012 18.2542C86.8947 18.2866 86.8757 18.315 86.8483 18.3335C86.8251 18.3557 86.7941 18.3681 86.7619 18.3681C86.7298 18.3681 86.6988 18.3557 86.6755 18.3335C86.6667 18.3202 86.6605 18.3053 86.6574 18.2896C86.6544 18.2739 86.6544 18.2577 86.6576 18.242C86.6609 18.2264 86.6672 18.2115 86.6762 18.1983C86.6852 18.185 86.6967 18.1737 86.7101 18.165C86.7328 18.1422 86.7635 18.1291 86.7956 18.1283C86.8278 18.1275 86.8591 18.1391 86.8829 18.1607Z" fill="#AA6550"/>
<path id="Vector_14" d="M84.1049 17.8194C84.0752 17.8266 84.044 17.8243 84.0156 17.8129C83.9873 17.8016 83.9632 17.7816 83.9467 17.7559C83.9302 17.7302 83.9221 17.7 83.9236 17.6695C83.9251 17.639 83.936 17.6097 83.9549 17.5857C83.9738 17.5617 83.9997 17.5442 84.0291 17.5356C84.0584 17.527 84.0896 17.5278 84.1185 17.5378C84.1474 17.5479 84.1724 17.5666 84.1901 17.5915C84.2078 17.6164 84.2172 17.6462 84.2172 17.6768C84.2198 17.7103 84.2097 17.7436 84.1889 17.77C84.168 17.7964 84.1381 17.814 84.1049 17.8194Z" fill="#AA6550"/>
<path id="Vector_15" d="M85.509 18.5927C85.509 18.6532 85.4658 18.7094 85.3751 18.7223C85.2843 18.7353 85.2152 18.6921 85.2152 18.6273C85.2198 18.5938 85.2356 18.5629 85.2598 18.5394C85.2841 18.5159 85.3155 18.5012 85.3491 18.4977C85.3827 18.4926 85.4169 18.4994 85.446 18.5167C85.4752 18.534 85.4974 18.5609 85.509 18.5927Z" fill="#AA6550"/>
<path id="Vector_16" d="M91.5922 21.5177C91.5317 21.5177 91.4539 21.4572 91.441 21.3362C91.428 21.2152 91.4928 21.1202 91.5533 21.1288C91.6138 21.1375 91.657 21.2196 91.6656 21.3146C91.6743 21.4097 91.6483 21.5004 91.5922 21.5177Z" fill="#AA6550"/>
<path id="Vector_17" d="M92.9185 21.9108C92.9531 21.9627 92.9185 22.0361 92.8278 22.0707C92.7371 22.1052 92.6636 22.0707 92.6464 22.0275C92.6402 21.9944 92.6459 21.9602 92.6625 21.931C92.6791 21.9017 92.7055 21.8793 92.7371 21.8676C92.7675 21.8518 92.8025 21.8475 92.8359 21.8554C92.8692 21.8634 92.8985 21.883 92.9185 21.9108Z" fill="#AA6550"/>
<path id="Vector_18" d="M91.5144 22.965C91.4582 22.9434 91.4539 22.844 91.5144 22.749C91.5749 22.6539 91.6527 22.6064 91.7045 22.641C91.7294 22.6723 91.7429 22.7111 91.7429 22.7511C91.7429 22.7911 91.7294 22.83 91.7045 22.8613C91.6613 22.9434 91.5792 22.9909 91.5144 22.965Z" fill="#AA6550"/>
<path id="Vector_19" d="M95.0399 4.09768C95.3743 4.17811 95.68 4.34939 95.9232 4.59259C96.1664 4.8358 96.3377 5.14149 96.4181 5.4759C96.7449 5.23449 97.1364 5.09641 97.5423 5.07946C97.9482 5.0625 98.3499 5.16743 98.6957 5.38075C99.0415 5.59406 99.3155 5.90599 99.4824 6.27637C99.6494 6.64675 99.7016 7.05863 99.6325 7.45897C99.9728 7.2999 100.346 7.22363 100.721 7.23639C101.097 7.24916 101.464 7.3506 101.793 7.53242C102.116 7.7212 102.378 7.9995 102.546 8.33375C102.715 8.668 102.783 9.04391 102.743 9.41613C102.686 9.78489 102.504 10.123 102.228 10.3744C101.953 10.6259 101.599 10.7755 101.227 10.7987C101.475 10.7527 101.73 10.7616 101.974 10.8246C102.218 10.8877 102.445 11.0034 102.64 11.1636C102.835 11.3238 102.992 11.5248 103.101 11.7522C103.21 11.9797 103.267 12.2282 103.27 12.4803C103.272 12.7325 103.22 12.9821 103.116 13.2118C103.011 13.4414 102.858 13.6454 102.667 13.8096C102.475 13.9738 102.25 14.0941 102.008 14.1621C101.765 14.2301 101.51 14.2441 101.261 14.2032C101.376 14.2734 101.475 14.3661 101.552 14.4758C101.629 14.5854 101.684 14.7096 101.712 14.8409C101.739 14.9722 101.74 15.1078 101.714 15.2394C101.688 15.371 101.635 15.496 101.559 15.6066C101.483 15.7172 101.385 15.8112 101.272 15.8829C101.159 15.9545 101.032 16.0024 100.899 16.0235C100.767 16.0445 100.631 16.0384 100.501 16.0055C100.371 15.9726 100.249 15.9135 100.142 15.832C99.8312 16.4671 98.8462 16.4455 98.3234 15.9573C97.8006 15.4691 97.6537 14.7259 97.5198 14.0304" fill="#263238"/>
<path id="Vector_20" d="M101.624 10.7425C101.63 10.8043 101.63 10.8665 101.624 10.9283C101.614 11.1046 101.588 11.2796 101.546 11.4511C101.375 12.0911 100.999 12.6573 100.475 13.0626C100.109 13.3476 99.6673 13.5189 99.2048 13.5551C98.6723 13.5827 98.1442 13.4454 97.6926 13.1619C97.1962 12.8541 96.8058 12.4018 96.5736 11.8658C96.4448 11.5794 96.3799 11.2683 96.3835 10.9542C96.3798 10.7841 96.4116 10.6151 96.4771 10.4581C96.5426 10.3011 96.6402 10.1596 96.7637 10.0426C96.899 9.93395 97.0606 9.86311 97.2321 9.8373C97.4036 9.81149 97.579 9.83164 97.7402 9.8957C97.8955 9.95328 98.0358 10.0454 98.1503 10.1652C98.2648 10.285 98.3506 10.4292 98.4012 10.587C98.4968 10.8757 98.507 11.186 98.4303 11.4803C98.3536 11.7747 98.1935 12.0406 97.9691 12.246C97.7639 12.4226 97.5207 12.5496 97.2585 12.617C96.9962 12.6844 96.722 12.6905 96.457 12.6348C96.0104 12.5452 95.5823 12.3801 95.1911 12.1466C95.0217 12.0444 94.8638 11.9242 94.7202 11.788C94.5819 11.6628 94.4566 11.5461 94.3443 11.4251C94.1401 11.2257 93.9822 10.9838 93.882 10.7166C93.8274 10.5451 93.8083 10.3643 93.8258 10.1852C93.8278 10.1224 93.8425 10.0606 93.869 10.0037C93.8612 10.235 93.8933 10.466 93.9641 10.6863C94.2672 11.2383 94.7154 11.6969 95.2602 12.0127C95.6397 12.2196 96.0494 12.3654 96.4743 12.4447C96.7111 12.4898 96.9551 12.4805 97.1878 12.4177C97.4205 12.3548 97.636 12.24 97.8179 12.0818C98.0089 11.9031 98.1449 11.6736 98.21 11.4203C98.275 11.167 98.2664 10.9004 98.1852 10.6518C98.1451 10.5249 98.0763 10.409 97.9842 10.3131C97.892 10.2172 97.7789 10.1438 97.6537 10.0988C97.5295 10.048 97.3939 10.0313 97.2611 10.0503C97.1282 10.0693 97.0028 10.1233 96.8977 10.2068C96.7994 10.3033 96.7221 10.4192 96.6708 10.5471C96.6195 10.675 96.5953 10.8121 96.5996 10.9499C96.5966 11.2324 96.6541 11.5123 96.7681 11.7708C96.9787 12.2733 97.3374 12.6998 97.7963 12.9934C98.2093 13.262 98.6952 13.3963 99.1875 13.378C99.6154 13.3508 100.026 13.2008 100.371 12.9459C100.88 12.5688 101.258 12.0414 101.451 11.4381C101.598 10.9974 101.598 10.7425 101.624 10.7425Z" fill="#455A64"/>
<path id="Vector_21" d="M64.7321 53.9727L72.2885 57.779L69.4024 63.9313H61.306L62.4725 57.2001L64.7321 53.9727Z" fill="#455A64"/>
<path id="Vector_22" d="M76.1293 38.1427L79.5598 34.4098L78.9117 33.3643L76.3929 36.4923L76.1293 38.1427Z" fill="#455A64"/>
<path id="Vector_23" d="M26.9887 114.221C29.4717 112.942 32.3895 112.774 35.1387 113.231C36.6166 113.475 38.1597 113.916 39.1649 115.031C40.17 116.146 40.3656 118.099 39.2083 119.056C38.4608 119.559 37.5619 119.786 36.6655 119.698C34.4922 119.698 32.1232 119.295 30.4008 120.59C29.4174 121.335 28.7708 122.564 27.5864 122.929C26.9989 123.064 26.3832 123.005 25.8323 122.76C25.2814 122.515 24.8253 122.097 24.5328 121.569C23.9736 120.487 23.8492 119.231 24.1851 118.061C24.3247 117.247 24.6504 116.477 25.1368 115.811C25.6232 115.145 26.2571 114.601 26.9887 114.221Z" fill="#F9F9F9"/>
<path id="Vector_24" d="M21.4841 102.665C23.0584 104.76 26.1168 104.064 27.5388 102.791C28.9608 101.518 29.5533 99.6478 30.1007 97.9034C31.3478 93.8804 32.6061 89.6583 31.6807 85.5619C31.459 84.3197 30.8733 83.158 29.9878 82.2041C29.539 81.7342 28.9647 81.3822 28.3229 81.1836C27.681 80.9849 26.9941 80.9467 26.3313 81.0726C24.7851 81.4498 23.8259 82.8537 23.1318 84.1895C21.0909 88.1314 20.0211 92.4456 20 96.8191C20 98.8516 20.2483 101.01 21.4897 102.665" fill="#F9F9F9"/>
<path id="Vector_25" d="M17.4073 105.938C19.0321 104.059 19.3625 101.31 18.6313 98.9546C17.9001 96.5989 16.2483 94.5887 14.3472 92.9502C12.1116 91.0233 9.50839 89.5367 6.68357 88.5738C5.58873 88.1487 4.41219 87.9559 3.23356 88.0084C2.64477 88.0411 2.07323 88.2127 1.56902 88.5084C1.06481 88.8041 0.643295 89.2148 0.341411 89.7045C-0.465576 91.1912 0.303498 92.992 1.14298 94.4683C2.61484 97.0621 4.29728 99.539 6.17446 101.876C7.68553 103.76 9.42408 105.613 11.7096 106.467C13.9952 107.32 16.3999 107.215 17.6239 105.671" fill="#F9F9F9"/>
<path id="Vector_26" d="M21.0474 136C21.1224 135.676 21.1664 135.345 21.1788 135.012C21.2472 134.298 21.3313 133.375 21.4312 132.317C21.5594 130.989 21.7542 129.668 22.0148 128.361C22.3574 126.768 22.8216 125.206 23.403 123.69C23.9719 122.176 24.7456 120.754 25.7008 119.467C26.4751 118.417 27.467 117.561 28.6033 116.962C29.3719 116.564 30.1975 116.296 31.0483 116.171C31.3693 116.157 31.6882 116.11 32 116.029C31.6786 115.99 31.3539 115.99 31.0325 116.029C30.1496 116.098 29.2859 116.331 28.4823 116.717C27.2869 117.303 26.2379 118.168 25.4168 119.243C24.4223 120.55 23.6197 122.003 23.0349 123.554C22.4474 125.092 21.9883 126.681 21.6626 128.301C21.4107 129.624 21.2351 130.961 21.1367 132.306C21.0579 133.452 21.0263 134.379 21.0106 135.034C20.9886 135.357 21.0009 135.68 21.0474 136Z" fill="#F9F9F9"/>
<path id="Vector_27" d="M21.2237 133C21.2383 132.853 21.2383 132.705 21.2237 132.558C21.2237 132.226 21.2237 131.805 21.2237 131.295C21.2237 130.195 21.2237 128.606 21.2811 126.648C21.3749 122.722 21.7087 118.502 22.3552 112.55C22.9705 106.951 23.7892 100.446 24.6599 96.2045C24.8424 95.2414 25.0301 94.3731 25.1814 93.6153C25.3326 92.8575 25.4942 92.1944 25.6298 91.6682C25.7654 91.1419 25.8488 90.7578 25.9218 90.4368C25.9657 90.295 25.992 90.1483 26 90C25.935 90.1327 25.8843 90.2721 25.8488 90.4157L25.4838 91.6261C25.3221 92.1523 25.1553 92.8049 24.9624 93.5627C24.7694 94.3205 24.5609 95.1836 24.3575 96.1466C23.2941 101.152 22.4987 106.211 21.9746 111.303C21.328 117.265 21.036 122.696 21.0099 126.632C20.9839 128.595 21.0099 130.19 21.0777 131.284C21.109 131.811 21.1351 132.221 21.1559 132.553C21.1584 132.704 21.1812 132.855 21.2237 133Z" fill="#F9F9F9"/>
<path id="Vector_28" d="M20.9752 123C21.0083 122.55 21.0083 122.098 20.9752 121.649C20.9012 120.42 20.7663 119.196 20.5708 117.982C20.2836 116.182 19.8961 114.401 19.4103 112.646C18.842 110.489 18.1135 108.38 17.2311 106.336C15.727 102.555 13.5612 99.0884 10.8404 96.1066C10.3687 95.5982 9.86718 95.1199 9.33854 94.6744C9.10749 94.4752 8.90269 94.276 8.69789 94.136L8.10451 93.7484C7.75596 93.4706 7.38731 93.2204 7.00176 93C6.93874 93.0861 8.57712 94.0768 10.6408 96.3273C13.2666 99.3281 15.3745 102.766 16.874 106.492C17.7433 108.526 18.4801 110.616 19.0795 112.749C19.6466 114.709 20.0247 116.518 20.3135 118.03C20.6023 119.543 20.7441 120.798 20.8386 121.659C20.8509 122.109 20.8966 122.557 20.9752 123Z" fill="#F9F9F9"/>
<path id="Vector_29" d="M11 142L12.0691 157H30.9309L32 142H11Z" fill="#F9F9F9"/>
<path id="Vector_30" d="M35 136H8V142H35V136Z" fill="#F9F9F9"/>
<path id="Vector_31" d="M8 157V158H9.19281H33V157H8Z" fill="#F9F9F9"/>
<path id="Vector_32" d="M11.1763 161L10 158H33L31.6268 161H11.1763Z" fill="#F9F9F9"/>
<path id="Vector_33" d="M32 146.979C32 146.979 32 147.026 31.9112 147.11C31.8225 147.194 31.7337 147.325 31.6172 147.478L30.5075 148.848L30.4576 148.911L30.4077 148.848L27.6336 145.199H27.7945L25.0536 148.874L24.9649 148.989L24.8705 148.884L21.5638 145.21H21.7524L21.5749 145.425L18.6732 148.884L18.5789 149L18.4845 148.879C17.497 147.562 16.576 146.323 15.7437 145.205H15.8991C14.5453 146.659 13.4024 147.898 12.5202 148.848L12.4592 148.911L12.4148 148.837C11.9654 148.134 11.6103 147.567 11.3551 147.157L11.0832 146.706C11.047 146.658 11.0189 146.605 11 146.548C11 146.548 11.0444 146.596 11.111 146.69L11.4161 147.121C11.6824 147.525 12.0597 148.081 12.5258 148.774H12.4203L15.7493 145.1L15.8325 145.005L15.9046 145.105L18.6787 148.779H18.4901L21.3918 145.325L21.5749 145.11L21.6637 145L21.7635 145.11L25.0092 148.785H24.8262L27.6003 145.11L27.6835 145.005L27.7612 145.11L30.4909 148.785H30.3855L31.5506 147.436L31.8668 147.089C31.9556 147.016 31.9945 146.974 32 146.979Z" fill="#F9F9F9"/>
<path id="Vector_34" d="M76.4145 35.7535C76.0084 34.129 72.8329 22.0015 72.8329 22.0015C72.8329 22.0015 72.9452 20.7054 64.8185 21.8071C64.2741 21.8806 57.3657 23.8032 55.1277 26.2399C53.0021 28.56 40.1704 53.9122 38.8311 56.8242C38.5051 57.1577 38.1378 57.4481 37.738 57.6883C37.5047 57.7229 36.9301 59.019 36.8739 60.5959C36.8178 62.1729 37.1764 62.376 37.1764 62.376C37.1764 62.376 50.6907 69.6948 60.0401 68.9819C60.0401 68.9819 64.3605 69.0208 64.4167 66.9383L64.1531 64.0912L75.2091 41.8626C75.2091 41.8626 76.8249 37.3823 76.4145 35.7535Z" fill="#455A64"/>
<path id="Vector_35" d="M71.9601 21.1288L74.79 19.2408C75.0115 20.5357 75.3841 21.8002 75.9004 23.0082C76.9891 25.6653 78.4667 30.3529 78.4667 30.3529L78.5445 31.5756L77.5033 31.1436C77.2696 31.0397 77.0075 31.0184 76.7601 31.0831L73.1137 32.0509C73.1137 32.0509 72.9236 25.9158 72.1718 23.4834C71.9129 22.727 71.8402 21.9193 71.9601 21.1288Z" fill="#455A64"/>
<path id="Vector_36" d="M79.4172 34.9715C79.3708 34.8394 79.2944 34.7199 79.1939 34.6224C79.0935 34.5249 78.9717 34.4521 78.8383 34.4098C78.5694 34.3291 78.2894 34.2912 78.0087 34.2975C78.0881 34.2726 78.1603 34.2288 78.219 34.1699C78.2777 34.111 78.3213 34.0387 78.3459 33.9592C78.3705 33.8798 78.3755 33.7955 78.3605 33.7137C78.3454 33.6319 78.3107 33.555 78.2593 33.4896C78.1411 33.3666 77.9927 33.2768 77.829 33.2291C77.6653 33.1813 77.4919 33.1773 77.3261 33.2174C77.6847 33.2202 78.0367 33.1213 78.3414 32.9322C78.4924 32.8358 78.6131 32.6987 78.6896 32.5366C78.766 32.3745 78.7951 32.1942 78.7735 32.0163C78.7181 31.767 78.5817 31.5431 78.3854 31.3797C78.1892 31.2162 77.9442 31.1226 77.689 31.1133C76.125 31.0485 75.7621 31.4417 74.561 31.8478C74.3624 31.8901 74.1755 31.9754 74.0135 32.0979C73.8515 32.2203 73.7184 32.3768 73.6235 32.5563C73.5745 32.7364 73.5823 32.9272 73.6457 33.1027C73.7091 33.2782 73.825 33.4299 73.9778 33.5371C74.232 33.7128 74.5328 33.8091 74.8419 33.8136C74.7669 33.8328 74.6985 33.8719 74.6438 33.9266C74.5891 33.9813 74.55 34.0497 74.5308 34.1247C74.5127 34.2306 74.5275 34.3395 74.573 34.4367C74.6186 34.534 74.6928 34.6151 74.7857 34.669C74.879 34.7208 74.9817 34.7535 75.0877 34.7654C75.1937 34.7773 75.3011 34.768 75.4035 34.7382C75.2141 34.8423 75.0671 35.0096 74.9881 35.2108C74.9092 35.4121 74.9033 35.6347 74.9715 35.8399C75.0427 36.0481 75.1638 36.2357 75.3242 36.3863C75.4846 36.5369 75.6795 36.646 75.8917 36.704C76.3147 36.8213 76.7605 36.8302 77.1879 36.7299C77.7329 36.6348 78.2558 36.44 78.7303 36.1553C79.1537 35.8874 79.5555 35.4381 79.4172 34.9715Z" fill="#FEB139"/>
<path id="Vector_37" d="M77.689 32.9711C77.3641 33.3788 76.9046 33.6576 76.3929 33.7574C75.8962 33.929 75.354 33.9137 74.8678 33.7142C75.3595 33.6891 75.8489 33.6299 76.3324 33.5371C76.7965 33.3784 77.2497 33.1893 77.689 32.9711Z" fill="#263238"/>
<path id="Vector_38" d="M78.0217 34.2672C78.0217 34.2672 77.9353 34.453 77.6804 34.6474C77.3471 34.8993 76.954 35.0601 76.5398 35.114C76.1253 35.1691 75.7036 35.1139 75.3171 34.9542C75.0233 34.8289 74.8851 34.6993 74.8851 34.6734C75.4058 34.8508 75.9562 34.9242 76.5052 34.8894C77.0463 34.7823 77.5614 34.571 78.0217 34.2672Z" fill="#263238"/>
<path id="Vector_39" d="M76.2633 36.6392C76.2374 36.6392 76.1596 36.5744 76.0948 36.4145C76.0138 36.199 76.0003 35.9639 76.0559 35.7405C76.1098 35.5159 76.232 35.3136 76.4059 35.1616C76.5398 35.0449 76.6435 35.0147 76.6608 35.0406C76.678 35.0665 76.3843 35.3474 76.2762 35.7924C76.2431 36.0734 76.2387 36.3572 76.2633 36.6392Z" fill="#263238"/>
<path id="Vector_40" d="M77.7754 35.8485C77.7322 35.8917 77.4946 35.7232 77.3434 35.4165C77.1922 35.1097 77.1619 34.8159 77.2181 34.803C77.2743 34.79 77.3866 35.032 77.5421 35.3085C77.6977 35.585 77.8186 35.8053 77.7754 35.8485Z" fill="#263238"/>
<path id="Vector_41" d="M70.0937 24.8228C69.1239 23.4878 67.8638 22.3902 66.4084 21.6127C64.2482 21.7769 64.3605 22.0102 63.5569 22.1355C64.2914 21.9281 75.5461 27.2206 68.7803 39.2703C61.9022 51.5187 54.3285 64.9769 54.3285 64.9769L54.8253 65.8021L55.5814 67.0463C55.5814 67.0463 66.9009 46.5848 69.3117 42.3076C71.7225 38.0303 72.4311 35.7794 72.5304 32.7421C72.6398 29.9024 71.7806 27.1098 70.0937 24.8228Z" fill="#263238"/>
<path id="Vector_42" d="M78.5531 31.5713C78.5531 31.5713 78.4278 31.4849 78.1816 31.3769C77.8262 31.235 77.4492 31.1547 77.0669 31.1392C76.4811 31.227 75.9032 31.3614 75.3387 31.541L73.1483 32.107L73.0014 32.1502V31.9947C73.0858 31.1102 73.1103 30.2211 73.0748 29.3333C72.9841 27.3777 72.7516 25.4313 72.3792 23.5094L72.0465 21.7812C71.9962 21.568 71.9615 21.3514 71.9429 21.1331C72.0265 21.3367 72.0902 21.548 72.133 21.7639C72.2366 22.17 72.3835 22.7619 72.5348 23.4921C72.955 25.4154 73.2108 27.371 73.2995 29.3376C73.3352 30.2357 73.3063 31.1353 73.2131 32.0293L73.0791 31.9169L75.2782 31.3639L76.2114 31.1306C76.4818 31.0553 76.7604 31.0132 77.041 31.0053C77.4388 31.0297 77.8279 31.1325 78.1859 31.3077C78.3282 31.3639 78.4544 31.4544 78.5531 31.5713Z" fill="#263238"/>
<path id="Vector_43" d="M71.9601 48.4253C71.9427 48.4973 71.9135 48.5659 71.8737 48.6284C71.7916 48.7839 71.6966 48.9697 71.5756 49.1943C71.2991 49.7085 70.9276 50.404 70.4782 51.2509C69.545 52.979 68.2748 55.3985 66.7929 58.021C66.4257 58.6777 66.0498 59.3171 65.6826 59.922C65.3153 60.5268 64.9308 61.0928 64.6456 61.6717C64.3593 62.204 64.2011 62.7957 64.1834 63.3999C64.2215 63.9281 64.3319 64.4485 64.5117 64.9466C64.6646 65.3743 64.7307 65.8281 64.7061 66.2816C64.6728 66.6274 64.5459 66.9575 64.3389 67.2364C64.2082 67.4115 64.0274 67.5426 63.8204 67.6123C63.7484 67.6377 63.672 67.648 63.5958 67.6426C63.8685 67.5741 64.1077 67.41 64.2698 67.1803C64.4535 66.9099 64.561 66.595 64.5808 66.2687C64.5914 65.8335 64.5165 65.4005 64.3605 64.9941C64.1629 64.4831 64.0407 63.9461 63.9976 63.3999C64.0043 62.7654 64.1628 62.1417 64.4599 61.581C64.745 60.9848 65.1339 60.4102 65.4968 59.8053C65.8597 59.2004 66.2269 58.5653 66.5985 57.9086L70.3443 51.1774C70.8282 50.3133 71.2084 49.6264 71.5108 49.1511C71.6404 48.9308 71.7528 48.7536 71.8392 48.6068C71.8743 48.543 71.9148 48.4823 71.9601 48.4253Z" fill="#263238"/>
<path id="Vector_44" d="M60.7616 63.6937C60.9889 63.8529 61.1646 64.0752 61.2671 64.3331C61.5774 64.9366 61.6514 65.634 61.4749 66.2892C61.2983 66.9443 60.8838 67.5101 60.3123 67.8759C60.0917 68.0445 59.8283 68.1478 59.5519 68.174C59.5519 68.1394 59.8327 68.04 60.2215 67.7419C60.7285 67.3692 61.094 66.8354 61.258 66.2279C61.422 65.6204 61.375 64.9752 61.1245 64.3979C60.9387 63.9529 60.7313 63.7196 60.7616 63.6937Z" fill="#263238"/>
<path id="Vector_45" d="M75.0968 34.898C75.1003 35.0094 75.0931 35.1208 75.0752 35.2307C75.0536 35.4467 75.019 35.7621 74.9412 36.1682C74.7341 37.316 74.4277 38.4435 74.0253 39.5382C73.4223 41.1555 72.7077 42.7291 71.8867 44.2475C70.9751 45.9756 69.9123 47.8204 68.8235 49.7819L63.1724 59.7924L61.4442 62.8167L60.956 63.6462C60.9054 63.7444 60.8445 63.8371 60.7746 63.9227C60.8141 63.8197 60.8618 63.72 60.9171 63.6246L61.3492 62.7864L63.0212 59.7319L68.6161 49.6739C69.7092 47.7124 70.7763 45.859 71.6923 44.1481C72.5115 42.6406 73.2331 41.082 73.8525 39.482C74.2634 38.3985 74.5898 37.2848 74.8289 36.151C74.9196 35.7535 74.9672 35.4381 75.0017 35.2221C75.0239 35.1115 75.0557 35.0031 75.0968 34.898Z" fill="#263238"/>
<path id="Vector_46" d="M64.3389 46.6669C64.4034 46.4655 64.4888 46.2715 64.5938 46.0879C64.7709 45.7164 65.0259 45.1677 65.3844 44.511L65.432 44.4202L65.5184 44.4721L67.6483 45.6645L67.7434 45.7207L67.6916 45.8157L66.5034 47.9284L66.4559 48.0148L66.3695 47.963C65.7301 47.5828 65.2073 47.2544 64.8574 47.0255C64.6716 46.9235 64.4965 46.8034 64.3346 46.6669C64.5482 46.7558 64.756 46.8583 64.9567 46.9736C65.3326 47.1724 65.8554 47.4532 66.4689 47.7945L66.3349 47.8334L67.4928 45.7077L67.536 45.8589L65.419 44.6406L65.5529 44.6017C65.2116 45.2109 64.9178 45.7164 64.6889 46.0836C64.583 46.2843 64.4661 46.479 64.3389 46.6669Z" fill="#EBEBEB"/>
<path id="Vector_47" d="M31.0284 137.05L30.8037 137.348L26.4617 143.038L21.0612 146.737L28.2892 160.661H36.2475C36.2475 160.661 35.6728 158.747 31.8449 157.758L31.5944 150.115L38.4682 142.563" fill="#FEB139"/>
<g id="Group" opacity="0.6">
<path id="Vector_48" d="M21.0612 146.737L28.2892 160.661L36.2475 160.67L35.3531 159.473L28.8811 159.11L22.2104 145.95L21.0612 146.737Z" fill="white"/>
</g>
<path id="Vector_49" d="M31.7974 154.263C31.7369 154.345 31.279 154.086 30.6612 154.103C30.0433 154.12 29.594 154.375 29.5335 154.293C29.473 154.211 29.9094 153.757 30.6568 153.753C31.4043 153.749 31.8666 154.202 31.7974 154.263Z" fill="#263238"/>
<path id="Vector_50" d="M31.6678 152.37C31.59 152.427 31.2358 151.938 30.6007 151.83C29.9656 151.722 29.4601 151.999 29.4082 151.913C29.3564 151.826 29.473 151.744 29.6934 151.623C29.9944 151.469 30.3385 151.422 30.6698 151.489C31.0078 151.549 31.3137 151.727 31.5339 151.99C31.6721 152.189 31.7067 152.345 31.6678 152.37Z" fill="#263238"/>
<path id="Vector_51" d="M31.7197 149.934C31.6332 149.977 31.3654 149.502 30.808 149.325C30.2507 149.147 29.7582 149.325 29.715 149.225C29.6718 149.126 29.7971 149.074 30.0174 148.992C30.3112 148.89 30.6309 148.89 30.9247 148.992C31.2195 149.095 31.4697 149.296 31.6332 149.562C31.7542 149.765 31.7629 149.916 31.7197 149.934Z" fill="#263238"/>
<path id="Vector_52" d="M33.854 148.05C33.7589 148.08 33.5342 147.618 33.0417 147.307C32.5492 146.996 32.0523 146.94 32.048 146.84C32.0437 146.741 32.6356 146.616 33.2361 147.017C33.8367 147.419 33.949 148.037 33.854 148.05Z" fill="#263238"/>
<g id="Group_2" opacity="0.6">
<path id="Vector_53" d="M27.4122 146.499C27.413 146.686 27.3583 146.87 27.2548 147.026C27.1514 147.182 27.0039 147.304 26.8311 147.376C26.6583 147.449 26.4679 147.468 26.2841 147.432C26.1003 147.396 25.9313 147.306 25.7985 147.174C25.6658 147.042 25.5752 146.873 25.5384 146.69C25.5015 146.506 25.52 146.315 25.5915 146.142C25.6629 145.969 25.7842 145.821 25.9399 145.717C26.0956 145.613 26.2787 145.557 26.466 145.557C26.7162 145.557 26.9562 145.656 27.1335 145.833C27.3109 146.009 27.411 146.249 27.4122 146.499Z" fill="white"/>
</g>
<path id="Vector_54" d="M77.8143 145.259L77.6242 155.196C77.6242 155.196 87.7556 158.795 87.9025 160.635L68.4606 160.83L68.1106 145.324L77.8143 145.259Z" fill="#FEB139"/>
<path id="Vector_55" d="M71.5972 154.427C71.4059 154.476 71.2417 154.598 71.1408 154.768C71.0399 154.938 71.0106 155.141 71.0593 155.332C71.108 155.523 71.2308 155.688 71.4005 155.789C71.5702 155.889 71.7731 155.919 71.9645 155.87C72.1607 155.809 72.3271 155.677 72.431 155.499C72.5349 155.322 72.5688 155.112 72.5261 154.911C72.4506 154.72 72.304 154.565 72.1172 154.48C71.9303 154.395 71.7176 154.385 71.5238 154.453" fill="white"/>
<g id="Group_3" opacity="0.6">
<path id="Vector_56" d="M68.4476 160.856L68.4736 159.292L87.1162 159.694C87.1162 159.694 87.9803 160.057 87.9025 160.661L68.4476 160.856Z" fill="white"/>
</g>
<path id="Vector_57" d="M77.9396 155.101C77.9396 155.196 77.4644 155.244 77.0021 155.533C76.5398 155.823 76.2979 156.237 76.2114 156.203C76.125 156.168 76.2546 155.619 76.8206 155.257C77.3866 154.894 77.9612 155.015 77.9396 155.101Z" fill="#263238"/>
<path id="Vector_58" d="M79.9961 155.918C79.9961 156.008 79.6116 156.172 79.2919 156.574C78.9722 156.976 78.8901 157.399 78.7994 157.395C78.7086 157.391 78.6352 156.859 79.037 156.367C79.4388 155.874 79.9918 155.827 79.9961 155.918Z" fill="#263238"/>
<path id="Vector_59" d="M81.1972 158.328C81.1108 158.35 80.9682 157.896 81.1972 157.361C81.4262 156.825 81.8712 156.635 81.9144 156.713C81.9576 156.79 81.6854 157.067 81.4824 157.499C81.2793 157.931 81.2923 158.32 81.1972 158.328Z" fill="#263238"/>
<path id="Vector_60" d="M77.7279 152.828C77.689 152.915 77.2527 152.79 76.7169 152.828C76.1812 152.867 75.7664 153.04 75.7146 152.958C75.6628 152.876 76.0602 152.526 76.691 152.5C77.3218 152.474 77.7754 152.755 77.7279 152.828Z" fill="#263238"/>
<path id="Vector_61" d="M64.1574 68.0703C64.6284 70.1095 81.7718 101.502 82.3292 105.429C82.6748 107.848 78.9463 149.558 78.9463 149.558L66.7972 149.463L68.2014 107.857L52.7947 88.3806L47.3467 67.8283L64.1574 68.0703Z" fill="#263238"/>
<path id="Vector_62" d="M37.1936 62.376C37.1936 62.376 34.3551 72.2265 34.8563 74.7194C35.6556 78.7029 49.4075 110.341 49.4075 110.341L27.1875 139.625L36.2604 148.862C36.2604 148.862 60.3036 120.015 62.6151 116.567C64.9265 113.119 63.4316 109.166 63.1897 107.283C62.9953 105.775 54.6179 70.1614 54.6179 70.1614L37.1936 62.376Z" fill="#263238"/>
<path id="Vector_63" d="M71.9731 105.585C71.381 106.043 70.7458 106.442 70.0764 106.777C69.443 107.174 68.7715 107.507 68.0718 107.771C68.663 107.312 69.2984 106.912 69.9684 106.578C70.6007 106.179 71.2725 105.846 71.9731 105.585Z" fill="#455A64"/>
<path id="Vector_64" d="M48.8934 133.987C48.9171 133.944 48.9446 133.904 48.9755 133.866L49.239 133.52L50.2586 132.224L54.0563 127.424L59.7074 120.317L61.3405 118.265C61.9324 117.58 62.4267 116.817 62.8095 115.997C63.5777 114.248 63.8382 112.318 63.5612 110.428C63.5095 110.018 63.4301 109.613 63.3236 109.214V109.192C63.1226 107.361 62.8125 105.543 62.3947 103.748C62.0102 102.02 61.6127 100.331 61.2109 98.7453C60.4116 95.5741 59.6383 92.7356 58.9772 90.3637C58.3162 87.9918 57.7589 86.0865 57.3744 84.7688C57.1843 84.1207 57.0331 83.6152 56.9423 83.2523C56.8948 83.0881 56.8602 82.9585 56.83 82.8591C56.8159 82.8155 56.8058 82.7707 56.7997 82.7252C56.7997 82.7252 56.8214 82.7641 56.8516 82.8548L56.9855 83.2393C57.1022 83.5806 57.2664 84.1034 57.4737 84.7428C57.9058 86.039 58.4631 87.9572 59.1457 90.3248C59.8284 92.6924 60.6147 95.5093 61.4269 98.6978C61.8331 100.283 62.2392 101.955 62.628 103.701C63.048 105.505 63.3611 107.333 63.5655 109.175V109.149C63.6737 109.56 63.756 109.977 63.8118 110.398C64.0765 112.327 63.7951 114.292 62.9996 116.07C62.6075 116.904 62.103 117.68 61.5004 118.377L59.8586 120.425L54.1816 127.502L50.3277 132.255L49.2736 133.551L48.9927 133.879C48.9638 133.919 48.9304 133.955 48.8934 133.987Z" fill="#455A64"/>
<path id="Vector_65" d="M38.7447 145.985C38.5961 145.895 38.4596 145.786 38.3386 145.661L37.2973 144.71C36.4333 143.902 35.2322 142.775 33.9274 141.518C32.6226 140.26 31.4604 139.115 30.5963 138.277L29.607 137.275C29.4769 137.159 29.3609 137.029 29.2613 136.886C29.4099 136.976 29.5464 137.085 29.6675 137.21C29.944 137.469 30.2939 137.785 30.7044 138.161C31.5684 138.969 32.7695 140.096 34.0829 141.353C35.3963 142.611 36.5672 143.76 37.4097 144.598L38.399 145.596C38.5266 145.714 38.6423 145.844 38.7447 145.985Z" fill="#455A64"/>
<path id="Vector_66" d="M57.2404 91.8715C57.2545 91.8957 57.2647 91.922 57.2707 91.9493C57.2707 92.0098 57.3139 92.0875 57.3441 92.1826L57.6163 93.0856L58.61 96.516C59.4482 99.4798 60.6406 103.671 62.0664 108.639C62.3871 110.781 62.0322 112.969 61.0511 114.899C60.0876 116.947 58.6057 118.788 57.059 120.641L43.0003 137.288L38.7231 142.317L37.5479 143.678L37.2412 144.028C37.1677 144.106 37.1332 144.144 37.1288 144.14C37.1579 144.095 37.1897 144.052 37.2239 144.01L37.5134 143.648L38.641 142.278L42.8664 137.206L56.8732 120.516C58.4199 118.68 59.8975 116.839 60.8394 114.822C61.8033 112.934 62.158 110.793 61.8547 108.695L58.4934 96.5506C58.0916 95.0816 57.7762 93.9151 57.5558 93.0942C57.4521 92.7054 57.37 92.4029 57.3139 92.1826C57.2923 92.0832 57.2707 92.0098 57.2577 91.945C57.2448 91.8802 57.2404 91.8715 57.2404 91.8715Z" fill="#455A64"/>
<path id="Vector_67" d="M45.4845 69.6689C45.3041 69.981 45.0751 70.2625 44.8062 70.5027C43.5657 71.7324 41.9912 72.5707 40.2784 72.9135C39.9299 73.001 39.5698 73.0331 39.2113 73.0086C40.3914 72.7673 41.5357 72.3752 42.6158 71.842C43.6609 71.2431 44.625 70.5127 45.4845 69.6689Z" fill="#455A64"/>
<path id="Vector_68" d="M79.361 146.127C79.361 146.188 76.6305 146.218 73.2606 146.192C69.8907 146.166 67.1645 146.093 67.1645 146.032C67.1645 145.972 69.895 145.942 73.2649 145.968C76.6348 145.994 79.361 146.067 79.361 146.127Z" fill="#455A64"/>
<path id="Vector_69" d="M70.7159 86.795C70.7363 86.8212 70.7551 86.8486 70.772 86.8771C70.8066 86.9462 70.8584 87.0283 70.9189 87.1363L71.4806 88.143L73.5587 91.932L80.7133 105.122V105.148V105.178C80.493 108.285 80.2467 111.659 79.9659 115.206C79.3005 123.722 78.5229 131.416 77.8359 136.973C77.4989 139.751 77.1922 141.993 76.9718 143.544C76.8595 144.304 76.7688 144.905 76.7083 145.324C76.6737 145.518 76.6521 145.674 76.6305 145.786C76.6246 145.84 76.6145 145.894 76.6003 145.946C76.5953 145.893 76.5953 145.839 76.6003 145.786L76.6521 145.32C76.704 144.888 76.7817 144.296 76.8768 143.531C77.0669 141.98 77.352 139.733 77.6674 136.951C78.3155 131.395 79.0672 123.7 79.7326 115.189C80.0005 111.659 80.2554 108.276 80.493 105.166V105.222C77.6285 99.8643 75.1659 95.2847 73.4161 92.0012L71.3942 88.1819L70.8627 87.158L70.7288 86.8901C70.7185 86.8595 70.7141 86.8272 70.7159 86.795Z" fill="#455A64"/>
<path id="Vector_70" d="M72.0725 57.7617L75.2005 56.2539L77.9353 55.7484C78.5935 55.5211 79.2285 55.2318 79.832 54.8843C79.832 54.8843 80.264 55.5194 80.0437 56.0206C79.8233 56.5218 78.5618 57.3167 77.7063 57.6278C77.3931 57.7289 77.1251 57.9361 76.9484 58.2138C76.7717 58.4914 76.6975 58.8221 76.7385 59.1486C76.8163 59.5806 80.2899 62.9722 80.2899 62.9722L75.4295 68.0487L71.5022 64.48L69.774 62.7129L72.0725 57.7617Z" fill="#F9F9F9"/>
<path id="Vector_71" d="M94.9016 43.5173L91.9724 41.0417L92.8364 40.1387C92.9011 40.0739 92.9374 39.9861 92.9374 39.8946C92.9374 39.8031 92.9011 39.7153 92.8364 39.6505C92.8047 39.618 92.7667 39.5921 92.7248 39.5745C92.6829 39.5568 92.6378 39.5477 92.5923 39.5477C92.5469 39.5477 92.5018 39.5568 92.4599 39.5745C92.418 39.5921 92.38 39.618 92.3482 39.6505L64.9567 68.0012C64.9249 68.0338 64.8999 68.0724 64.883 68.1147C64.8662 68.157 64.8578 68.2022 64.8584 68.2477C64.859 68.2932 64.8686 68.3382 64.8865 68.38C64.9045 68.4219 64.9306 68.4598 64.9632 68.4915C64.9958 68.5233 65.0344 68.5483 65.0767 68.5652C65.119 68.5821 65.1642 68.5905 65.2097 68.5899C65.2553 68.5893 65.3002 68.5797 65.3421 68.5617C65.3839 68.5437 65.4218 68.5177 65.4536 68.4851L66.6287 67.2624C66.6394 67.2825 66.6541 67.3001 66.6719 67.3142L69.7697 69.9367C69.8049 69.9665 69.8457 69.9889 69.8897 70.0026C69.9337 70.0164 69.9801 70.0212 70.026 70.0168C70.0719 70.0123 70.1164 69.9988 70.157 69.9769C70.1975 69.9549 70.2333 69.9251 70.2622 69.8892C70.3183 69.8188 70.3447 69.7293 70.3358 69.6398C70.3269 69.5502 70.2835 69.4676 70.2147 69.4096L67.1169 66.7871L70.7591 63.0154L73.8093 65.6076C73.8445 65.6377 73.8855 65.6603 73.9298 65.6741C73.974 65.6878 74.0206 65.6924 74.0667 65.6876C74.1128 65.6827 74.1574 65.6685 74.1978 65.6459C74.2382 65.6232 74.2736 65.5926 74.3018 65.5558C74.3576 65.4861 74.3839 65.3973 74.375 65.3085C74.3661 65.2196 74.3228 65.1378 74.2543 65.0806L71.23 62.5272L74.7814 58.8548L77.8402 61.4471C77.8733 61.485 77.9141 61.5153 77.96 61.5358C78.006 61.5563 78.0558 61.5665 78.1061 61.5658C78.1563 61.565 78.2058 61.5533 78.2511 61.5315C78.2964 61.5096 78.3364 61.4782 78.3683 61.4393C78.4002 61.4004 78.4232 61.355 78.4357 61.3063C78.4482 61.2576 78.45 61.2068 78.4408 61.1573C78.4317 61.1079 78.4119 61.061 78.3828 61.0201C78.3537 60.9791 78.316 60.9449 78.2723 60.92L75.248 58.358L77.797 55.7182L80.7868 58.25C80.8223 58.2798 80.8635 58.3023 80.9079 58.3161C80.9522 58.3299 80.9989 58.3348 81.0452 58.3303C81.0914 58.3259 81.1363 58.3123 81.1773 58.2904C81.2182 58.2684 81.2544 58.2385 81.2836 58.2024C81.3387 58.1316 81.3644 58.0424 81.3556 57.9532C81.3467 57.8639 81.304 57.7815 81.2361 57.7229L78.2809 55.2213L82.0267 51.3329C82.043 51.3903 82.0761 51.4415 82.1218 51.4798L85.2239 54.1023C85.2591 54.1321 85.2999 54.1545 85.3439 54.1683C85.3879 54.182 85.4342 54.1868 85.4801 54.1824C85.526 54.1779 85.5706 54.1644 85.6111 54.1425C85.6517 54.1206 85.6875 54.0908 85.7164 54.0548C85.7725 53.9844 85.7989 53.8949 85.79 53.8054C85.7811 53.7158 85.7377 53.6333 85.6689 53.5753L82.5668 50.9527C82.532 50.9245 82.4925 50.9026 82.4501 50.8879L84.4203 48.8487L87.4446 51.3934C87.4776 51.4314 87.5184 51.4616 87.5644 51.4821C87.6103 51.5026 87.6601 51.5129 87.7104 51.5121C87.7607 51.5114 87.8102 51.4997 87.8555 51.4778C87.9007 51.456 87.9407 51.4245 87.9726 51.3856C88.0045 51.3468 88.0275 51.3014 88.04 51.2527C88.0525 51.204 88.0543 51.1531 88.0452 51.1037C88.036 51.0543 88.0162 51.0074 87.9871 50.9664C87.958 50.9254 87.9203 50.8913 87.8766 50.8663L84.9085 48.3519L88.1272 45.0165C88.1272 45.0165 88.1531 45.0554 88.1704 45.0726L91.2681 47.6951C91.3395 47.7319 91.4214 47.7429 91.5 47.7264C91.5785 47.71 91.6491 47.667 91.6997 47.6047C91.7504 47.5424 91.7781 47.4646 91.7781 47.3843C91.7782 47.304 91.7507 47.2261 91.7002 47.1637L88.5981 44.5412L91.4885 41.5515L94.448 44.053C94.483 44.0841 94.5241 44.1075 94.5686 44.122C94.6131 44.1365 94.6601 44.1417 94.7067 44.1372C94.7533 44.1328 94.7985 44.1188 94.8395 44.0961C94.8804 44.0735 94.9163 44.0426 94.9448 44.0055C94.9742 43.9707 94.9963 43.9304 95.01 43.8869C95.0237 43.8435 95.0287 43.7978 95.0247 43.7524C95.0207 43.707 95.0078 43.6629 94.9866 43.6226C94.9655 43.5822 94.9366 43.5464 94.9016 43.5173Z" fill="#FEB139"/>
<g id="Group_4" opacity="0.3">
<path id="Vector_72" d="M94.9016 43.5173L91.9724 41.0417L92.8364 40.1387C92.9011 40.0739 92.9374 39.9861 92.9374 39.8946C92.9374 39.8031 92.9011 39.7153 92.8364 39.6505C92.8047 39.618 92.7667 39.5921 92.7248 39.5745C92.6829 39.5568 92.6378 39.5477 92.5923 39.5477C92.5469 39.5477 92.5018 39.5568 92.4599 39.5745C92.418 39.5921 92.38 39.618 92.3482 39.6505L64.9567 68.0012C64.9249 68.0338 64.8999 68.0724 64.883 68.1147C64.8662 68.157 64.8578 68.2022 64.8584 68.2477C64.859 68.2932 64.8686 68.3382 64.8865 68.38C64.9045 68.4219 64.9306 68.4598 64.9632 68.4915C64.9958 68.5233 65.0344 68.5483 65.0767 68.5652C65.119 68.5821 65.1642 68.5905 65.2097 68.5899C65.2553 68.5893 65.3002 68.5797 65.3421 68.5617C65.3839 68.5437 65.4218 68.5177 65.4536 68.4851L66.6287 67.2624C66.6394 67.2825 66.6541 67.3001 66.6719 67.3142L69.7697 69.9367C69.8049 69.9665 69.8457 69.9889 69.8897 70.0026C69.9337 70.0164 69.9801 70.0212 70.026 70.0168C70.0719 70.0123 70.1164 69.9988 70.157 69.9769C70.1975 69.9549 70.2333 69.9251 70.2622 69.8892C70.3183 69.8188 70.3447 69.7293 70.3358 69.6398C70.3269 69.5502 70.2835 69.4676 70.2147 69.4096L67.1169 66.7871L70.7591 63.0154L73.8093 65.6076C73.8445 65.6377 73.8855 65.6603 73.9298 65.6741C73.974 65.6878 74.0206 65.6924 74.0667 65.6876C74.1128 65.6827 74.1574 65.6685 74.1978 65.6459C74.2382 65.6232 74.2736 65.5926 74.3018 65.5558C74.3576 65.4861 74.3839 65.3973 74.375 65.3085C74.3661 65.2196 74.3228 65.1378 74.2543 65.0806L71.23 62.5272L74.7814 58.8548L77.8402 61.4471C77.8733 61.485 77.9141 61.5153 77.96 61.5358C78.006 61.5563 78.0558 61.5665 78.1061 61.5658C78.1563 61.565 78.2058 61.5533 78.2511 61.5315C78.2964 61.5096 78.3364 61.4782 78.3683 61.4393C78.4002 61.4004 78.4232 61.355 78.4357 61.3063C78.4482 61.2576 78.45 61.2068 78.4408 61.1573C78.4317 61.1079 78.4119 61.061 78.3828 61.0201C78.3537 60.9791 78.316 60.9449 78.2723 60.92L75.248 58.358L77.797 55.7182L80.7868 58.25C80.8223 58.2798 80.8635 58.3023 80.9079 58.3161C80.9522 58.3299 80.9989 58.3348 81.0452 58.3303C81.0914 58.3259 81.1363 58.3123 81.1773 58.2904C81.2182 58.2684 81.2544 58.2385 81.2836 58.2024C81.3387 58.1316 81.3644 58.0424 81.3556 57.9532C81.3467 57.8639 81.304 57.7815 81.2361 57.7229L78.2809 55.2213L82.0267 51.3329C82.043 51.3903 82.0761 51.4415 82.1218 51.4798L85.2239 54.1023C85.2591 54.1321 85.2999 54.1545 85.3439 54.1683C85.3879 54.182 85.4342 54.1868 85.4801 54.1824C85.526 54.1779 85.5706 54.1644 85.6111 54.1425C85.6517 54.1206 85.6875 54.0908 85.7164 54.0548C85.7725 53.9844 85.7989 53.8949 85.79 53.8054C85.7811 53.7158 85.7377 53.6333 85.6689 53.5753L82.5668 50.9527C82.532 50.9245 82.4925 50.9026 82.4501 50.8879L84.4203 48.8487L87.4446 51.3934C87.4776 51.4314 87.5184 51.4616 87.5644 51.4821C87.6103 51.5026 87.6601 51.5129 87.7104 51.5121C87.7607 51.5114 87.8102 51.4997 87.8555 51.4778C87.9007 51.456 87.9407 51.4245 87.9726 51.3856C88.0045 51.3468 88.0275 51.3014 88.04 51.2527C88.0525 51.204 88.0543 51.1531 88.0452 51.1037C88.036 51.0543 88.0162 51.0074 87.9871 50.9664C87.958 50.9254 87.9203 50.8913 87.8766 50.8663L84.9085 48.3519L88.1272 45.0165C88.1272 45.0165 88.1531 45.0554 88.1704 45.0726L91.2681 47.6951C91.3395 47.7319 91.4214 47.7429 91.5 47.7264C91.5785 47.71 91.6491 47.667 91.6997 47.6047C91.7504 47.5424 91.7781 47.4646 91.7781 47.3843C91.7782 47.304 91.7507 47.2261 91.7002 47.1637L88.5981 44.5412L91.4885 41.5515L94.448 44.053C94.483 44.0841 94.5241 44.1075 94.5686 44.122C94.6131 44.1365 94.6601 44.1417 94.7067 44.1372C94.7533 44.1328 94.7985 44.1188 94.8395 44.0961C94.8804 44.0735 94.9163 44.0426 94.9448 44.0055C94.9742 43.9707 94.9963 43.9304 95.01 43.8869C95.0237 43.8435 95.0287 43.7978 95.0247 43.7524C95.0207 43.707 95.0078 43.6629 94.9866 43.6226C94.9655 43.5822 94.9366 43.5464 94.9016 43.5173Z" fill="black"/>
</g>
<path id="Vector_73" d="M88.8617 24.5592L87.2588 23.4359C86.9486 23.4541 86.6391 23.3903 86.3614 23.2507C86.0838 23.1111 85.8479 22.9008 85.6775 22.641L85.2455 23.0125L87.7816 25.7474L88.8617 24.5592Z" fill="#263238"/>
<path id="Vector_74" d="M95.6577 39.4086C95.6577 39.4086 64.1704 71.8939 58.1736 78.664C54.4235 82.898 55.0759 86.5185 56.0912 88.6355C56.4616 89.4143 56.9872 90.1092 57.6358 90.6776C58.2844 91.2459 59.0423 91.6758 59.8629 91.9407C67.6138 94.386 74.5524 80.6082 79.3956 77.3851C81.6552 75.8816 83.9364 75.3372 86.9952 76.426C90.0541 77.5147 89.0302 80.539 88.5938 81.5716C88.4535 81.8875 88.432 82.2435 88.5333 82.574C88.8833 83.6282 90.0109 82.8116 90.0109 82.8116C95.0399 77.2253 96.5261 72.3346 97.4636 69.0899C98.3277 66.0656 96.7767 65.4953 96.0379 66.9643C95.2991 68.4332 94.4696 68.5455 93.6573 68.5671C92.8451 68.5887 89.3369 66.368 84.0055 67.6166C81.5146 68.2287 79.1887 69.3806 77.1922 70.9909C73.1828 73.9461 67.5619 80.7421 65.635 83.1443C65.4673 83.3592 65.2274 83.506 64.9597 83.5577C64.692 83.6093 64.4147 83.5622 64.179 83.4251C64.0432 83.3433 63.9266 83.2332 63.8373 83.1023C63.7479 82.9714 63.6878 82.8227 63.6612 82.6664C63.6345 82.5102 63.6419 82.35 63.6828 82.1968C63.7237 82.0437 63.7972 81.9012 63.8982 81.779C66.0109 79.217 71.9817 71.9587 73.0921 70.4422C74.4444 68.5931 95.5583 44.3382 97.4291 42.0613C97.4291 42.0613 99.4251 39.7283 98.669 37.3088C98.0728 35.4078 91.4582 27.1429 91.4582 27.1429L90.2831 28.3007C90.2831 28.3007 96.0854 36.0775 96.3879 37.123C96.5098 37.5333 96.5054 37.9707 96.3752 38.3784C96.245 38.7861 95.9949 39.145 95.6577 39.4086Z" fill="#FEB139"/>
<path id="Vector_75" d="M88.8562 24.5266L87.6825 25.6869L90.2794 28.3139L91.4532 27.1536L88.8562 24.5266Z" fill="#FEB139"/>
<path id="Vector_76" d="M96.4354 44.9646C95.8262 45.6429 95.0312 45.941 94.4739 45.3967C93.9166 44.8523 94.9578 43.6426 94.9578 43.6426C94.9578 43.6426 96.0465 42.4761 96.6514 42.9729C97.2563 43.4698 97.0446 44.2863 96.4354 44.9646Z" fill="#FEB139"/>
<path id="Vector_77" d="M96.4354 44.9646C96.4354 44.9646 96.4959 44.8609 96.6082 44.6795C96.7684 44.4355 96.8745 44.16 96.9193 43.8716C96.9461 43.6799 96.9113 43.4847 96.8199 43.3142C96.7119 43.15 96.552 42.9556 96.3446 42.9556C96.1008 42.959 95.8645 43.0408 95.6707 43.1889C95.4411 43.3385 95.2295 43.5139 95.0399 43.7117C94.8712 43.9242 94.7263 44.1545 94.6078 44.3986C94.4827 44.6063 94.4267 44.8484 94.448 45.0899C94.4739 45.2973 94.6813 45.4356 94.8584 45.522C95.0372 45.5924 95.2333 45.606 95.4201 45.5608C95.7035 45.4856 95.9673 45.35 96.1934 45.1634C96.3576 45.0294 96.444 44.9473 96.457 44.9603C96.4699 44.9733 96.4008 45.0726 96.2496 45.2282C96.0318 45.4554 95.7597 45.6234 95.459 45.7164C95.2199 45.7956 94.9594 45.7786 94.7327 45.6689C94.506 45.5592 94.3311 45.3654 94.2449 45.1288C94.2067 44.8404 94.2644 44.5474 94.4091 44.295C94.5433 44.032 94.7055 43.7842 94.893 43.5562C95.0967 43.3429 95.3259 43.1557 95.5756 42.9988C95.8119 42.8286 96.0967 42.7392 96.3878 42.7439C96.6329 42.8035 96.8447 42.9568 96.978 43.1708C97.1113 43.3849 97.1554 43.6427 97.1007 43.8888C97.0405 44.1979 96.9022 44.4865 96.6989 44.727C96.5391 44.8998 96.444 44.9733 96.4354 44.9646Z" fill="#263238"/>
<path id="Vector_78" d="M93.316 48.3216C92.7068 48.9999 91.9162 49.298 91.3546 48.7536C90.7929 48.2093 91.8384 46.9995 91.8384 46.9995C91.8384 46.9995 92.9272 45.833 93.532 46.3299C94.1369 46.8267 93.9252 47.6606 93.316 48.3216Z" fill="#FEB139"/>
<path id="Vector_79" d="M93.316 48.3216C93.3637 48.2209 93.4216 48.1253 93.4888 48.0364C93.6507 47.7929 93.7582 47.5173 93.8042 47.2285C93.8266 47.0365 93.7905 46.8423 93.7005 46.6712C93.6552 46.5782 93.5885 46.4973 93.5059 46.4349C93.4233 46.3726 93.3272 46.3307 93.2253 46.3126C92.983 46.3175 92.7485 46.3992 92.5556 46.5459C92.3257 46.6968 92.1128 46.8721 91.9205 47.0687C91.7443 47.2801 91.5921 47.5105 91.4669 47.7556C91.3436 47.9641 91.2878 48.2055 91.307 48.4469C91.3329 48.6543 91.5403 48.7925 91.7175 48.8789C91.8963 48.9491 92.0923 48.9627 92.2791 48.9178C92.5625 48.8426 92.8263 48.707 93.0525 48.5203C93.1334 48.4442 93.2217 48.3762 93.316 48.3173C93.316 48.3173 93.2642 48.4296 93.1086 48.5851C92.8908 48.8124 92.6187 48.9804 92.318 49.0734C92.079 49.1526 91.8184 49.1356 91.5918 49.0259C91.3651 48.9162 91.1901 48.7224 91.104 48.4858C91.0661 48.1974 91.1237 47.9045 91.2681 47.6519C91.518 47.1125 91.9245 46.6609 92.4347 46.3558C92.6709 46.1856 92.9558 46.0962 93.2469 46.1009C93.4913 46.1615 93.7025 46.315 93.8356 46.5287C93.9687 46.7425 94.0133 46.9997 93.9598 47.2458C93.899 47.5539 93.7624 47.842 93.5623 48.084C93.4197 48.2568 93.3247 48.3302 93.316 48.3216Z" fill="#263238"/>
<path id="Vector_80" d="M89.8554 52.5297C89.2462 53.208 88.4512 53.5061 87.8939 52.9617C87.3365 52.4174 88.3778 51.2077 88.3778 51.2077C88.3778 51.2077 89.4665 50.0411 90.0714 50.538C90.6762 51.0348 90.4645 51.8514 89.8554 52.5297Z" fill="#FEB139"/>
<path id="Vector_81" d="M89.8554 52.5297C89.8554 52.5297 89.9158 52.4217 90.0282 52.2445C90.1891 51.9993 90.2952 51.7223 90.3392 51.4323C90.3655 51.2421 90.3307 51.0485 90.2399 50.8793C90.1319 50.7151 89.972 50.5207 89.7646 50.5207C89.5215 50.5246 89.2858 50.6047 89.0906 50.7497C88.6198 51.0396 88.2432 51.4598 88.0062 51.9594C87.8805 52.1684 87.8245 52.412 87.8464 52.655C87.8723 52.8624 88.0797 53.0006 88.2784 53.087C88.4562 53.161 88.653 53.1761 88.8401 53.1302C89.1235 53.055 89.3873 52.9194 89.6134 52.7328C89.7776 52.5988 89.864 52.5167 89.877 52.5297C89.8899 52.5427 89.8208 52.642 89.6696 52.7976C89.4506 53.0233 89.1789 53.1911 88.8789 53.2858C88.6399 53.365 88.3794 53.348 88.1527 53.2383C87.926 53.1286 87.751 52.9348 87.6649 52.6982C87.6267 52.4098 87.6844 52.1168 87.8291 51.8643C87.9622 51.6008 88.1245 51.3529 88.313 51.1256C88.5177 50.9122 88.7468 50.7237 88.9956 50.5639C89.2314 50.3932 89.5169 50.3051 89.8078 50.3133C90.0519 50.3729 90.2631 50.5255 90.3962 50.7386C90.5294 50.9517 90.5741 51.2084 90.5207 51.4539C90.4605 51.7643 90.3222 52.0542 90.1189 52.2964C89.959 52.4649 89.864 52.5383 89.8554 52.5297Z" fill="#263238"/>
<path id="Vector_82" d="M87.194 55.4374C86.5848 56.1157 85.7942 56.4138 85.2325 55.8694C84.6709 55.325 85.7164 54.111 85.7164 54.111C85.7164 54.111 86.8095 52.9445 87.41 53.4456C88.0105 53.9468 87.8118 54.7677 87.194 55.4374Z" fill="#FEB139"/>
<path id="Vector_83" d="M87.194 55.4374C87.194 55.4374 87.2545 55.3293 87.3668 55.1522C87.5303 54.9079 87.638 54.6306 87.6822 54.34C87.7042 54.1499 87.6696 53.9575 87.5828 53.7869C87.4748 53.6228 87.315 53.4284 87.1076 53.424C86.8643 53.4309 86.6291 53.5124 86.4336 53.6573C86.204 53.8085 85.9923 53.9853 85.8028 54.1844C85.6262 54.395 85.4727 54.6238 85.3448 54.8671C85.2222 55.0772 85.1679 55.3203 85.1893 55.5626C85.1893 55.77 85.4226 55.9083 85.5954 55.9947C85.7743 56.064 85.9697 56.079 86.1571 56.0379C86.4402 55.9619 86.7038 55.8264 86.9304 55.6404C87.0946 55.5065 87.181 55.4244 87.194 55.4374C87.2069 55.4503 87.1421 55.5454 86.9909 55.7052C86.7701 55.9309 86.4971 56.0986 86.196 56.1934C85.9575 56.2725 85.6976 56.2554 85.4716 56.1456C85.2456 56.0359 85.0715 55.8422 84.9862 55.6059C84.948 55.3174 85.0057 55.0244 85.1504 54.772C85.2795 54.5061 85.4421 54.2578 85.6343 54.0332C85.8384 53.8209 86.066 53.6325 86.3126 53.4716C86.549 53.302 86.8341 53.2141 87.1248 53.221C87.3695 53.2796 87.5814 53.432 87.7147 53.6454C87.8481 53.8587 87.8922 54.1159 87.8377 54.3616C87.7777 54.6712 87.641 54.9608 87.4402 55.2041C87.3063 55.3812 87.194 55.4374 87.194 55.4374Z" fill="#263238"/>
<path id="Vector_84" d="M83.6771 59.6714C83.068 60.3497 82.2773 60.6478 81.7157 60.1034C81.154 59.559 82.1996 58.3493 82.1996 58.3493C82.1996 58.3493 83.2926 57.1828 83.8932 57.6796C84.4937 58.1765 84.2863 58.9931 83.6771 59.6714Z" fill="#FEB139"/>
<path id="Vector_85" d="M83.6772 59.6714C83.6772 59.6714 83.7376 59.5677 83.85 59.3862C84.0118 59.1426 84.1194 58.8671 84.1654 58.5783C84.1883 58.3863 84.1521 58.1919 84.0617 58.021C83.958 57.8568 83.7938 57.6624 83.5864 57.6624C83.3439 57.6658 83.1089 57.7476 82.9168 57.8957C82.6867 58.0463 82.4737 58.2216 82.2817 58.4184C82.1129 58.6309 81.9681 58.8613 81.8496 59.1054C81.7264 59.3138 81.6705 59.5553 81.6898 59.7967C81.7157 60.004 81.9231 60.1423 82.1002 60.2287C82.279 60.2989 82.4751 60.3125 82.6618 60.2676C82.9453 60.1924 83.2091 60.0568 83.4352 59.8701C83.5994 59.7362 83.6858 59.6541 83.6988 59.667C83.7117 59.68 83.6469 59.7794 83.4914 59.9349C83.2743 60.1631 83.0019 60.3312 82.7007 60.4231C82.4617 60.5024 82.2012 60.4854 81.9745 60.3757C81.7478 60.2659 81.5728 60.0722 81.4867 59.8355C81.4507 59.5472 81.5082 59.2549 81.6509 59.0017C81.7849 58.7377 81.9487 58.4898 82.1391 58.2629C82.3422 58.0508 82.5699 57.8637 82.8174 57.7056C83.0528 57.5337 83.3382 57.4441 83.6296 57.4507C83.8746 57.5103 84.0865 57.6635 84.2198 57.8776C84.3531 58.0916 84.3971 58.3494 84.3425 58.5956C84.2818 58.9037 84.1452 59.1918 83.945 59.4337C83.7808 59.6066 83.6858 59.68 83.6772 59.6714Z" fill="#263238"/>
<path id="Vector_86" d="M80.6442 62.8858C80.035 63.5641 79.2401 63.8622 78.6827 63.3178C78.1254 62.7734 79.1623 61.5594 79.1623 61.5594C79.1623 61.5594 80.2554 60.3972 80.8602 60.8941C81.4651 61.3909 81.2534 62.2075 80.6442 62.8858Z" fill="#FEB139"/>
<path id="Vector_87" d="M80.6442 62.8858C80.6442 62.8858 80.7004 62.7778 80.817 62.6006C80.9779 62.3554 81.084 62.0784 81.1281 61.7884C81.1543 61.5982 81.1195 61.4046 81.0287 61.2354C80.9207 61.0712 80.7608 60.8768 80.5535 60.8725C80.3104 60.8802 80.0753 60.9615 79.8795 61.1058C79.6499 61.2569 79.4382 61.4338 79.2487 61.6329C79.0735 61.8435 78.9214 62.0723 78.7951 62.3155C78.6693 62.5245 78.6133 62.7681 78.6352 63.0111C78.6611 63.2185 78.8685 63.3567 79.0456 63.4431C79.2235 63.517 79.4203 63.5322 79.6073 63.4863C79.8907 63.4111 80.1545 63.2755 80.3806 63.0888C80.5448 62.9549 80.6312 62.8728 80.6442 62.8858C80.6572 62.8987 80.588 62.9981 80.4368 63.1537C80.2178 63.3794 79.9461 63.5472 79.6462 63.6419C79.4071 63.7211 79.1466 63.7041 78.9199 63.5944C78.6933 63.4847 78.5183 63.2909 78.4321 63.0543C78.3939 62.7659 78.4516 62.4729 78.5963 62.2204C78.7295 61.9569 78.8918 61.709 79.0802 61.4816C79.2849 61.2683 79.5141 61.0798 79.7628 60.92C79.9986 60.7493 80.2841 60.6612 80.5751 60.6694C80.8192 60.729 81.0303 60.8816 81.1635 61.0947C81.2967 61.3078 81.3413 61.5645 81.2879 61.81C81.2277 62.1204 81.0894 62.4103 80.8861 62.6525C80.7479 62.821 80.6528 62.8944 80.6442 62.8858Z" fill="#263238"/>
<path id="Vector_88" d="M76.5614 67.9191C75.9522 68.5974 75.1616 68.8955 74.5999 68.3511C74.0383 67.8067 75.0838 66.597 75.0838 66.597C75.0838 66.597 76.1769 65.4305 76.7774 65.9273C77.378 66.4242 77.1706 67.2408 76.5614 67.9191Z" fill="#FEB139"/>
<path id="Vector_89" d="M76.5614 67.9191C76.6091 67.8184 76.667 67.7228 76.7342 67.6339C76.8978 67.3913 77.0055 67.1153 77.0496 66.826C77.0722 66.6354 77.036 66.4425 76.9459 66.273C76.902 66.1786 76.8358 66.0962 76.753 66.033C76.6702 65.9698 76.5733 65.9276 76.4707 65.9101C76.2285 65.9156 75.9942 65.9972 75.801 66.1434C75.5719 66.2953 75.3591 66.4705 75.1659 66.6662C74.9972 66.8786 74.8523 67.109 74.7339 67.3531C74.6106 67.5615 74.5548 67.803 74.574 68.0444C74.5999 68.2517 74.8073 68.39 74.9844 68.4764C75.1633 68.5466 75.3593 68.5602 75.5461 68.5153C75.8299 68.4411 76.0939 68.3054 76.3195 68.1178C76.4004 68.0416 76.4887 67.9736 76.583 67.9148C76.583 67.9148 76.5312 68.0271 76.3799 68.1826C76.1603 68.4097 75.8869 68.5777 75.585 68.6708C75.3459 68.7501 75.0854 68.7331 74.8587 68.6234C74.6321 68.5136 74.4571 68.3199 74.3709 68.0833C74.3372 67.7945 74.3962 67.5024 74.5394 67.2494C74.6705 66.9846 74.8329 66.7365 75.0233 66.5106C75.2277 66.2998 75.4552 66.1129 75.7016 65.9533C75.9383 65.7839 76.2229 65.6946 76.5139 65.6984C76.7583 65.759 76.9695 65.9124 77.1026 66.1262C77.2357 66.34 77.2802 66.5972 77.2267 66.8433C77.166 67.1514 77.0294 67.4395 76.8293 67.6814C76.6694 67.8543 76.5744 67.9277 76.5614 67.9191Z" fill="#263238"/>
<path id="Vector_90" d="M73.2347 71.9803C72.6255 72.6586 71.8348 72.9567 71.2732 72.4123C70.7115 71.8679 71.7571 70.6539 71.7571 70.6539C71.7571 70.6539 72.8501 69.4874 73.4507 69.9885C74.0512 70.4897 73.8438 71.302 73.2347 71.9803Z" fill="#FEB139"/>
<path id="Vector_91" d="M73.2347 71.9803C73.2347 71.9803 73.2952 71.8723 73.4075 71.6951C73.571 71.4508 73.6787 71.1735 73.7229 70.8829C73.7455 70.6923 73.7093 70.4993 73.6192 70.3299C73.5155 70.1657 73.3556 69.9713 73.1439 69.9669C72.9022 69.9747 72.6685 70.0561 72.4743 70.2003C72.0007 70.4882 71.6222 70.9088 71.3855 71.41C71.2617 71.6198 71.2058 71.8627 71.2257 72.1056C71.2516 72.3129 71.459 72.4512 71.6577 72.5376C71.8366 72.6069 72.032 72.6219 72.2194 72.5808C72.5025 72.5048 72.7661 72.3693 72.9927 72.1833C73.1569 72.0494 73.2433 71.9673 73.2563 71.9803C73.2692 71.9932 73.2044 72.0926 73.0532 72.2481C72.8324 72.4738 72.5594 72.6415 72.2583 72.7363C72.0192 72.8145 71.7591 72.7969 71.5328 72.6874C71.3064 72.5778 71.1313 72.3847 71.0442 72.1488C71.0095 71.8599 71.0686 71.5676 71.2127 71.3149C71.3417 71.049 71.5044 70.8007 71.6966 70.5761C71.9007 70.3638 72.1283 70.1754 72.3749 70.0145C72.611 69.8444 72.8963 69.7564 73.1871 69.7639C73.4312 69.8235 73.6424 69.9761 73.7756 70.1892C73.9087 70.4023 73.9534 70.6589 73.9 70.9045C73.8391 71.2138 73.7025 71.5033 73.5025 71.747C73.3427 71.9155 73.2476 71.9889 73.2347 71.9803Z" fill="#263238"/>
<path id="Vector_92" d="M89.7862 82.1938C89.8052 81.9695 89.8413 81.7471 89.8943 81.5284C89.9763 81.0964 90.1189 80.4958 90.3263 79.7527C90.8615 77.8107 91.567 75.9196 92.4347 74.1016C93.3044 72.2884 94.3293 70.5538 95.4978 68.9171C95.9515 68.2863 96.3317 67.7938 96.6125 67.4611C96.7405 67.2809 96.8852 67.1131 97.0446 66.9599C96.9356 67.1562 96.8098 67.3427 96.6687 67.5173C96.4095 67.8629 96.0509 68.3814 95.6188 69.0078C93.3552 72.3215 91.6166 75.9648 90.4646 79.8089C90.2442 80.5477 90.0757 81.1482 89.9677 81.563C89.9244 81.7778 89.8637 81.9888 89.7862 82.1938Z" fill="#263238"/>
<g id="Group_5" opacity="0.3">
<path id="Vector_93" d="M96.5218 67.716C94.1369 69.9583 92.7198 73.0258 91.6224 76.1106C91.0262 77.7869 90.5092 79.4892 90.0714 81.2174C93.221 77.9381 94.8757 73.5399 96.4527 69.2757C96.66 68.727 96.8588 68.0919 96.578 67.5734" fill="black"/>
</g>
<g id="Group_6" opacity="0.3">
<path id="Vector_94" d="M96.3879 37.136C96.4816 37.5455 96.4632 37.9726 96.3347 38.3725C96.2063 38.7724 95.9724 39.1303 95.6577 39.4086C95.6577 39.4086 64.1704 71.8939 58.1736 78.664C54.4235 82.898 55.0759 86.5185 56.0912 88.6355C56.4616 89.4143 56.9872 90.1092 57.6358 90.6776C58.2844 91.2459 59.0423 91.6758 59.8629 91.9407C67.6138 94.386 74.5524 80.6082 79.3956 77.3851C81.6552 75.8816 83.9364 75.3373 86.9952 76.426C86.9952 76.426 83.3056 74.4429 79.8665 76.1149C76.4275 77.7869 68.2446 89.3787 63.8248 90.152C59.405 90.9254 56.2986 88.9596 56.3591 85.4341C56.3386 84.2899 56.5627 83.1545 57.0165 82.1039C57.4703 81.0534 58.1432 80.1118 58.9902 79.3423C59.8845 78.448 69.9209 67.2148 69.9209 67.2148C69.9209 67.2148 96.0768 40.4023 96.4786 39.5641C96.6794 39.1875 96.7767 38.7643 96.7608 38.3378C96.7449 37.9113 96.6162 37.4966 96.3879 37.136Z" fill="black"/>
</g>
<path id="Vector_95" d="M91.5144 68.727C91.5144 68.7486 91.1472 68.606 90.4775 68.4116C89.5319 68.1454 88.5563 68.0002 87.5742 67.9796C86.1129 67.9499 84.6557 68.1452 83.2538 68.5585C81.5422 69.0625 79.9146 69.8166 78.4235 70.7965C76.9412 71.7948 75.5619 72.9381 74.3061 74.2096C73.1396 75.3718 72.1459 76.4951 71.3596 77.45C70.5733 78.4048 69.9209 79.1781 69.4802 79.7354L68.9661 80.3576C68.9078 80.4312 68.8443 80.5005 68.776 80.565C68.8182 80.4799 68.8704 80.4001 68.9315 80.3273L69.4111 79.6836C69.8431 79.1219 70.448 78.3227 71.2343 77.3506C72.0206 76.3785 72.9927 75.2422 74.1592 74.0627C75.4168 72.7718 76.8037 71.6136 78.2982 70.6064C79.8079 69.6133 81.4599 68.8557 83.1976 68.3598C84.6158 67.9498 86.0902 67.7675 87.5655 67.8197C88.5593 67.8542 89.5436 68.0257 90.4905 68.3295C90.7484 68.4065 91.0009 68.5003 91.2465 68.6103C91.3399 68.6392 91.4297 68.6784 91.5144 68.727Z" fill="white"/>
<path id="Vector_96" d="M96.2194 44.5758C96.1805 44.5239 96.3792 44.3295 96.4397 44.0141C96.5002 43.6987 96.4051 43.4438 96.4397 43.4093C96.4743 43.3747 96.7292 43.6469 96.6428 44.0573C96.5563 44.4678 96.241 44.6363 96.2194 44.5758Z" fill="white"/>
<path id="Vector_97" d="M93.0827 47.7772C93.0395 47.7297 93.1821 47.5266 93.221 47.2415C93.2599 46.9563 93.1907 46.723 93.2469 46.6885C93.3031 46.6539 93.5018 46.9045 93.4456 47.2761C93.3895 47.6476 93.1173 47.8291 93.0827 47.7772Z" fill="white"/>
<path id="Vector_98" d="M89.4449 52.1409C89.4104 52.0847 89.6437 51.8903 89.7257 51.5533C89.8078 51.2163 89.7257 50.9311 89.7776 50.9009C89.8294 50.8707 89.8726 50.9441 89.9245 51.0737C89.986 51.2463 89.9933 51.4335 89.9454 51.6103C89.8976 51.7872 89.7968 51.9452 89.6566 52.0631C89.5486 52.1495 89.4579 52.1625 89.4449 52.1409Z" fill="white"/>
<path id="Vector_99" d="M86.6107 55.204C86.5805 55.1479 86.8267 54.9664 86.9434 54.6294C87.06 54.2924 86.9952 53.9986 87.0557 53.9727C87.1162 53.9468 87.3106 54.2838 87.1551 54.7072C86.9996 55.1306 86.6237 55.2688 86.6107 55.204Z" fill="white"/>
<path id="Vector_100" d="M83.5605 58.8591C83.5216 58.8116 83.6123 58.6561 83.6599 58.4573C83.7074 58.2586 83.7074 58.0771 83.7679 58.0555C83.8284 58.0339 83.9493 58.2413 83.8802 58.5135C83.8111 58.7857 83.5994 58.8937 83.5605 58.8591Z" fill="white"/>
<path id="Vector_101" d="M80.048 62.6957C80.0177 62.6438 80.2251 62.4494 80.2424 62.1254C80.2597 61.8013 80.1041 61.581 80.1474 61.5378C80.1906 61.4946 80.2467 61.5378 80.3331 61.6501C80.435 61.7947 80.4826 61.9706 80.4675 62.1468C80.4525 62.323 80.3759 62.4883 80.251 62.6136C80.1517 62.7043 80.0653 62.7173 80.048 62.6957Z" fill="white"/>
<path id="Vector_102" d="M75.9868 67.8802C75.9263 67.8543 75.9868 67.5907 76.138 67.2883C76.2892 66.9859 76.4361 66.7655 76.4923 66.7914C76.5484 66.8174 76.4923 67.0809 76.3411 67.3833C76.1898 67.6858 76.043 67.9061 75.9868 67.8802Z" fill="white"/>
<path id="Vector_103" d="M97.3427 40.0523C97.6323 39.536 97.8296 38.9731 97.9259 38.3889C97.9547 37.8044 97.8801 37.2194 97.7056 36.6608C97.7315 36.6608 97.8654 36.8077 97.9864 37.1274C98.1423 37.5405 98.1985 37.9846 98.1506 38.4235C98.1049 38.8661 97.957 39.2921 97.7185 39.6678C97.5284 39.94 97.3599 40.0739 97.3427 40.0523Z" fill="white"/>
<path id="Vector_104" d="M85.8719 24.3951C86.2651 24.2395 85.9843 23.531 85.7639 23.181C86.1078 23.4046 86.5184 23.5023 86.9261 23.4575C87.0395 23.4378 87.1413 23.3761 87.2113 23.2847C87.3366 23.1033 87.2329 22.8527 87.1162 22.6712C86.9251 22.3757 86.6923 22.1094 86.4249 21.8806L84.9646 23.2242C84.9646 23.2242 85.2109 24.6672 85.8719 24.3951Z" fill="#F9F9F9"/>
<path id="Vector_105" d="M86.4681 22.3472C86.4681 22.3472 86.6799 22.4336 86.9002 22.7015C87.0657 22.8584 87.1724 23.0673 87.2026 23.2934C87.1996 23.3779 87.1676 23.4587 87.1119 23.5223C87.0569 23.5788 86.9886 23.6204 86.9132 23.6433C86.7743 23.6913 86.6253 23.7017 86.4811 23.6736C86.2199 23.6285 85.9737 23.5202 85.7639 23.3582L85.9108 23.2199C86.2521 23.9155 85.9843 24.4556 85.9108 24.4037C85.8374 24.3519 85.9411 24.2871 85.9108 24.0883C85.9005 23.8237 85.8296 23.5651 85.7034 23.3322C85.6889 23.3081 85.6843 23.2792 85.6908 23.2518C85.6973 23.2243 85.7142 23.2005 85.738 23.1853C85.7552 23.1759 85.7745 23.1709 85.7942 23.1709C85.8138 23.1709 85.8331 23.1759 85.8503 23.1853C86.0401 23.3187 86.257 23.4087 86.4854 23.4489C86.7101 23.4921 86.9736 23.4187 86.965 23.2804C86.9382 23.1017 86.8618 22.9341 86.7447 22.7965C86.6021 22.52 86.4465 22.3731 86.4681 22.3472Z" fill="#AA6550"/>
<path id="Vector_106" d="M80.9121 64.1603C80.7426 63.6652 80.5375 63.1829 80.2986 62.7173C80.1378 62.3184 79.8665 61.9736 79.5166 61.7236C79.3372 61.6055 79.119 61.5615 78.9079 61.601C78.6968 61.6405 78.5092 61.7603 78.3846 61.9353C78.2822 62.1816 78.2745 62.457 78.363 62.7086C78.4963 63.1983 78.7205 63.6585 79.024 64.0653C78.713 63.8233 78.4754 63.495 78.16 63.2833C78.003 63.1645 77.8087 63.1058 77.6123 63.1176C77.4158 63.1295 77.23 63.2112 77.0885 63.3481C76.8466 63.6635 77.015 64.1214 77.2224 64.4671C77.5107 64.935 77.8497 65.3697 78.2334 65.7632C78.3545 65.8853 78.5037 65.9759 78.6678 66.0271C78.832 66.0783 79.0062 66.0885 79.1753 66.057C79.2659 66.0594 79.3541 66.0269 79.4215 65.9662C79.4679 65.9001 79.4949 65.8223 79.4993 65.7416C79.546 65.3705 79.5604 64.9961 79.5425 64.6226C79.7112 64.831 79.9216 65.0017 80.1603 65.1238C80.2813 65.182 80.4173 65.2012 80.5497 65.1787C80.682 65.1563 80.8041 65.0933 80.8991 64.9985C80.9682 64.87 81.0054 64.7268 81.0076 64.581C81.0099 64.4351 80.9771 64.2909 80.9121 64.1603Z" fill="#F9F9F9"/>
<path id="Vector_107" d="M81.828 60.9891C81.741 60.842 81.6284 60.7118 81.4953 60.6046C81.3869 60.5261 81.2595 60.4777 81.1262 60.4646C80.9929 60.4514 80.8586 60.4739 80.7368 60.5297C80.6151 60.5855 80.5104 60.6727 80.4334 60.7822C80.3564 60.8918 80.3099 61.0198 80.2986 61.1533C80.2929 61.4025 80.3541 61.6486 80.4757 61.8662C80.6028 62.188 80.7922 62.4817 81.033 62.7302C81.1196 62.8936 81.2591 63.0227 81.4286 63.0965C81.5982 63.1702 81.7877 63.1843 81.9663 63.1364C82.0492 63.1214 82.1276 63.0874 82.1952 63.037C82.2564 62.9824 82.306 62.9159 82.3408 62.8417C82.3757 62.7674 82.3953 62.6869 82.3983 62.6049C82.4036 62.0161 82.2017 61.4442 81.828 60.9891Z" fill="#F9F9F9"/>
<path id="Vector_108" d="M78.3198 66.1607C78.144 65.5974 77.7773 65.1131 77.2829 64.7911C77.1554 64.6787 77.0092 64.5895 76.8509 64.5275C76.7237 64.4884 76.5886 64.4825 76.4584 64.5105C76.3283 64.5385 76.2076 64.5994 76.1077 64.6874C76.0095 64.7779 75.9367 64.8925 75.8965 65.0198C75.8564 65.1471 75.8502 65.2828 75.8788 65.4132C75.9493 65.6534 76.0837 65.8699 76.2676 66.0397C76.4851 66.3076 76.7539 66.5294 77.0582 66.6921C77.1905 66.8221 77.3632 66.9032 77.5477 66.9221C77.7322 66.9409 77.9177 66.8964 78.0735 66.7958C78.1481 66.7555 78.213 66.6995 78.2636 66.6316C78.342 66.4876 78.3621 66.319 78.3198 66.1607Z" fill="#F9F9F9"/>
<path id="Vector_109" d="M78.268 65.8409C78.2204 65.8798 78.026 65.7027 77.81 65.4694C77.594 65.2361 77.4471 65.0373 77.4903 64.9769C77.5335 64.9164 77.7581 65.0762 77.9785 65.3182C78.1988 65.5601 78.3198 65.8064 78.268 65.8409Z" fill="#AA6550"/>
<path id="Vector_110" d="M79.6332 64.6744C79.5771 64.6744 79.4474 64.5491 79.2228 64.4065C78.9981 64.264 78.8339 64.0307 78.8944 63.9745C78.9549 63.9183 79.1104 64.0479 79.3524 64.2035C79.5943 64.359 79.7023 64.6571 79.6332 64.6744Z" fill="#AA6550"/>
<path id="Vector_111" d="M58.8563 72.5765L65.2592 71.3149L69.3074 72.948L70.7115 74.7929C70.7115 74.7929 70.7591 76.8019 70.3486 76.9531C70.2533 76.9802 70.1531 76.9851 70.0557 76.9674C69.9582 76.9497 69.8661 76.9099 69.7864 76.8511C69.7067 76.7923 69.6416 76.716 69.596 76.6281C69.5504 76.5401 69.5256 76.4429 69.5234 76.3439V75.631L69.0698 75.4971L68.9229 77.9554C68.913 78.1124 68.8435 78.2598 68.7287 78.3673C68.6139 78.4749 68.4624 78.5347 68.3051 78.5343H68.1841L68.0934 80.215C68.0934 80.215 67.9119 80.4872 67.3675 80.215C66.9332 79.9084 66.5767 79.5045 66.3263 79.0355L66.0541 78.0375L64.6457 76.4044C64.6457 76.4044 66.6892 80.0767 66.4602 80.6686C66.2312 81.2605 65.9159 81.3945 65.5961 81.1655C65.2764 80.9365 63.1465 77.2771 63.1465 77.2771C63.1465 77.2771 61.1979 77.0524 61.0597 77.0049C60.9214 76.9574 57.3398 77.9295 56.843 77.6098L55.1148 76.521L58.8563 72.5765Z" fill="#F9F9F9"/>
<path id="Vector_112" d="M64.5981 74.3695C64.9171 74.3401 65.2374 74.4111 65.5141 74.5725C66.1868 74.9319 66.7621 75.4493 67.1904 76.0804C67.6364 76.6953 67.9431 77.4 68.089 78.1455C68.1688 78.4502 68.1821 78.7685 68.1279 79.0787C68.089 79.0787 68.0804 78.7245 67.9335 78.1801C67.747 77.4721 67.4322 76.8043 67.0046 76.21C66.5951 75.6065 66.062 75.0969 65.4406 74.7151C65.1679 74.581 64.8865 74.4655 64.5981 74.3695Z" fill="#AA6550"/>
<path id="Vector_113" d="M66.2485 72.7839C66.5119 72.8554 66.7647 72.9615 67.0003 73.0993L67.7823 73.4924L68.2446 73.7344C68.4214 73.8177 68.5857 73.9253 68.7328 74.0541C68.8616 74.2005 68.9584 74.3722 69.0172 74.5582C69.076 74.7442 69.0953 74.9403 69.0741 75.1342C69.0741 75.4366 69.0525 75.7304 69.0395 75.9983C69.0525 76.2704 69.0234 76.5429 68.9531 76.8062C68.8923 76.5415 68.8691 76.2695 68.884 75.9983C68.884 75.7131 68.884 75.4237 68.884 75.1342C68.9125 74.8026 68.8084 74.4732 68.5945 74.2183C68.3123 74.0154 68.0148 73.8348 67.7045 73.6782L66.9398 73.2462C66.6881 73.1266 66.4552 72.9709 66.2485 72.7839Z" fill="#AA6550"/>
<path id="Vector_114" d="M60.6017 24.2266C60.6017 24.2266 55.8061 24.4815 53.378 27.6829C50.9499 30.8843 37.3017 47.1637 37.738 50.9009C38.1744 54.6381 43.2163 67.2451 46.7807 71.073C49.0591 73.4697 51.6553 75.5427 54.497 77.2339L58.9556 72.6111L54.0822 64.5491C54.0822 64.5491 53.473 60.9848 53.3002 60.6608C53.1274 60.3367 52.0041 59.9652 52.0041 59.9652L50.0901 51.6181L50.9542 51.4453L61.9108 40.8386L65.4752 39.2746C65.4752 39.2746 70.327 33.4204 67.9076 28.0415C65.9072 23.6217 63.3409 24.6629 60.6017 24.2266Z" fill="#455A64"/>
<path id="Vector_115" d="M44.4217 47.5137C44.4217 47.5137 44.5254 47.4878 44.7155 47.4878C44.9837 47.4862 45.2514 47.5108 45.5148 47.5612C46.3932 47.7223 47.2243 48.0781 47.9472 48.6024C48.6685 49.1311 49.2656 49.8108 49.697 50.5941C49.8281 50.8287 49.938 51.0745 50.0253 51.3286C50.0858 51.5058 50.1117 51.6094 50.0944 51.6138C50.0772 51.6181 49.9087 51.2379 49.5587 50.6719C49.1061 49.9398 48.5199 49.2993 47.8305 48.7839C47.1298 48.2795 46.3373 47.917 45.4975 47.7167C44.8235 47.5655 44.4217 47.5526 44.4217 47.5137Z" fill="#263238"/>
<path id="Vector_116" d="M63.4316 38.8772C63.4316 38.8772 63.3625 38.9636 63.2156 39.1148L62.5675 39.7888L60.0703 42.3421L51.019 51.5058H50.9974H50.9715L50.1074 51.6829L50.1809 51.5663C50.7641 54.111 51.4165 56.9279 52.1034 59.909L52.03 59.8312C52.4733 59.9564 52.8924 60.155 53.27 60.4188C53.3219 60.4661 53.3657 60.5215 53.3996 60.583C53.4248 60.6402 53.4451 60.6994 53.4601 60.7601C53.4946 60.8725 53.5162 60.9848 53.5465 61.0928L53.689 61.7668C53.8676 62.6712 54.0361 63.59 54.1945 64.5232V64.4843L58.1737 71.0644C58.4718 71.5569 58.7699 72.0537 59.068 72.5419L59.1112 72.6154L59.0507 72.6802L54.592 77.303L54.5315 77.3679L54.4581 77.3247C52.5462 76.1826 50.7429 74.868 49.0705 73.3974C48.2786 72.7099 47.5229 71.9816 46.8066 71.2156C46.1374 70.4698 45.5359 69.6659 45.0093 68.8134C43.2525 65.8949 41.7409 62.8356 40.4901 59.6671C39.6271 57.5833 38.8814 55.4529 38.2565 53.2858C38.1485 52.9056 38.0577 52.5643 37.9929 52.2705C37.9281 51.9767 37.8633 51.7218 37.8374 51.5187C37.8115 51.3157 37.7855 51.1645 37.7726 51.0521C37.7658 50.9991 37.7658 50.9453 37.7726 50.8923C37.7877 50.9432 37.7993 50.9952 37.8071 51.0478C37.8071 51.1601 37.859 51.3157 37.8936 51.5101C37.9281 51.7045 38.0016 51.9421 38.0707 52.2532C38.1398 52.5643 38.2349 52.8883 38.3472 53.2642C39.0005 55.4178 39.7648 57.5362 40.637 59.6109C41.9068 62.7618 43.4297 65.8047 45.1908 68.7097C45.7125 69.5503 46.3082 70.3426 46.9708 71.0773C47.6664 71.8204 48.4224 72.5376 49.2217 73.2375C50.8881 74.6926 52.6826 75.9941 54.5834 77.1259L54.4538 77.1475L58.9081 72.516V72.6543C58.6143 72.1661 58.3162 71.6692 58.0138 71.1767L54.039 64.5967C53.8791 63.6635 53.715 62.7432 53.5335 61.8446C53.4903 61.6199 53.4428 61.4125 53.3953 61.1792C53.3693 61.0669 53.3434 60.9589 53.3132 60.8552C53.3013 60.8064 53.2854 60.7588 53.2656 60.7126C53.2439 60.6752 53.2161 60.6417 53.1836 60.6132C52.8316 60.3695 52.4419 60.1856 52.03 60.0689H51.9695V60.0084L50.0685 51.6613V51.5663H50.1636L51.0277 51.3934L50.9801 51.4194L59.9753 42.2644L62.507 39.7499C62.7922 39.4691 63.0169 39.2487 63.1767 39.0975L63.4316 38.8772Z" fill="#263238"/>
<path id="Vector_117" d="M68.3353 30.9448C68.2921 30.9448 68.3569 30.3529 68.197 29.4284C67.9964 28.2181 67.4679 27.086 66.6688 26.1552C65.8698 25.2244 64.8308 24.5304 63.6649 24.1488C62.7706 23.8507 62.1744 23.8291 62.183 23.7859C62.326 23.7617 62.4721 23.7617 62.6151 23.7859C62.993 23.817 63.3667 23.888 63.7297 23.9976C64.9416 24.3575 66.0263 25.0542 66.8577 26.0066C67.6779 26.9695 68.2029 28.1486 68.3699 29.4024C68.4241 29.7772 68.4386 30.1566 68.4131 30.5344C68.4105 30.6746 68.3842 30.8134 68.3353 30.9448Z" fill="#263238"/>
</g>
</svg>
