<svg width="29" height="36" viewBox="0 0 29 36" fill="none" xmlns="http://www.w3.org/2000/svg">
<path d="M10.772 30.7132C11.6052 30.5369 16.6821 30.5369 17.5153 30.7132C18.2276 30.8777 18.9978 31.2621 18.9978 32.1014C18.9564 32.9004 18.4876 33.6088 17.84 34.0586C17.0002 34.7133 16.0146 35.1279 14.9843 35.2773C14.4145 35.3512 13.8546 35.3528 13.3047 35.2773C12.2727 35.1279 11.2871 34.7133 10.449 34.057C9.79964 33.6088 9.33087 32.9004 9.28946 32.1014C9.28946 31.2621 10.0597 30.8777 10.772 30.7132ZM14.242 2C17.709 2 21.2504 3.64503 23.3541 6.37444C24.719 8.13194 25.3451 9.88776 25.3451 12.6172V13.3272C25.3451 15.4204 25.8984 16.6542 27.1159 18.076C28.0385 19.1234 28.3333 20.468 28.3333 21.9267C28.3333 23.3837 27.8546 24.7669 26.8955 25.8899C25.64 27.2361 23.8692 28.0956 22.0621 28.245C19.4432 28.4682 16.8228 28.6562 14.1675 28.6562C11.5106 28.6562 8.89175 28.5438 6.27292 28.245C4.46409 28.0956 2.69336 27.2361 1.43944 25.8899C0.480366 24.7669 0 23.3837 0 21.9267C0 20.468 0.296502 19.1234 1.21748 18.076C2.47306 16.6542 2.98987 15.4204 2.98987 13.3272V12.6172C2.98987 9.8139 3.68888 7.98086 5.12833 6.18644C7.26844 3.56949 10.6989 2 14.093 2H14.242Z" fill="#143F6B"/>
<circle cx="21" cy="5" r="5" fill="#F55353"/>
</svg>
