<svg width="120" height="183" viewBox="0 0 120 183" fill="none" xmlns="http://www.w3.org/2000/svg">
<g id="Character">
<path id="Vector" d="M84.7896 38.0737C84.7896 38.0737 94.1648 32.8801 95.4856 31.4519C96.8064 30.0237 96.6094 30.0282 97.8316 29.1104C99.0539 28.1925 110.368 23.29 110.368 23.29C110.368 23.29 112.915 22.5782 113.524 24.1049C113.524 24.1049 107.516 30.9326 106.808 31.8459C106.101 32.7593 101.409 35.3112 101.409 35.3112C101.409 35.3112 97.4377 39.081 96.5198 40.7107C95.602 42.3404 86.9297 48.0801 86.9297 48.0801L84.7896 38.0737Z" fill="#FFBE9D"/>
<g id="Leaves">
<path id="Vector_2" d="M7.2703 64.3088C7.12979 64.5579 7.01586 64.821 6.93041 65.0939C6.8551 64.5761 6.68085 64.0776 6.41717 63.6256C5.95975 62.9139 5.40228 62.2717 4.76189 61.7188L4.70751 61.6678C4.36705 62.6076 4.28145 63.6208 4.45939 64.6045C4.50101 64.7945 4.55784 64.981 4.62934 65.1619C4.45939 65.0939 4.28604 65.0327 4.1093 64.9784C2.92987 64.6011 0.958497 64.5161 0 64.4617C0.871173 65.7187 2.00694 66.7698 3.32755 67.5412L3.57227 67.6737C3.33677 67.7588 3.10928 67.8645 2.89248 67.9898C2.18076 68.4472 1.53858 69.0047 0.985688 69.6451L0.934704 69.6995C1.87454 70.0399 2.88774 70.1255 3.87137 69.9476C4.29078 69.8518 4.69155 69.6876 5.0576 69.4615C4.9689 69.6586 4.89506 69.8619 4.83667 70.07C4.64545 70.8917 4.65477 71.7474 4.86386 72.5648L4.91144 72.5172C5.43375 72.0242 5.89273 71.4682 6.27781 70.8619C6.61508 70.2524 6.80591 69.5729 6.83524 68.8769C6.84655 68.4234 6.83407 67.9696 6.79785 67.5174C7.1553 67.2328 7.49577 66.9275 7.81752 66.603C8.29051 66.0949 8.6395 65.4841 8.8372 64.8186C9.00725 64.1143 9.08832 63.3915 9.07853 62.6671V62.6025C8.34845 63.0191 7.72849 63.6041 7.2703 64.3088Z" fill="#FEB139"/>
<path id="Vector_3" d="M9.4898 68.3909C9.4898 68.4317 7.99087 67.9388 6.17245 67.2896C4.35402 66.6404 2.89248 66.0796 2.90948 66.0354C2.92647 65.9912 4.40841 66.4909 6.22683 67.1401C8.04525 67.7893 9.50339 68.3501 9.4898 68.3909Z" fill="#FEA1BF"/>
<path id="Vector_4" d="M6.0025 67.1537C6.02289 67.1911 5.76117 67.3882 5.41108 67.5955C5.20892 67.7449 4.97713 67.8492 4.7313 67.9014C4.7109 67.8641 4.97602 67.6669 5.32271 67.4596C5.52585 67.3119 5.75727 67.2078 6.0025 67.1537Z" fill="#FEA1BF"/>
<path id="Vector_5" d="M5.28194 66.9633C5.23775 66.9633 5.17657 66.7356 5.0882 66.4569C4.99983 66.1782 4.92845 65.9471 4.96584 65.9267C5.00323 65.9063 5.14938 66.1136 5.24115 66.4093C5.33292 66.705 5.32272 66.9599 5.28194 66.9633Z" fill="#FEA1BF"/>
<path id="Vector_6" d="M102.882 25.1056C102.955 25.3425 103.054 25.5705 103.178 25.7854C102.804 25.5391 102.386 25.3661 101.947 25.2755C101.231 25.1654 100.504 25.1574 99.7856 25.2517H99.721C100.129 26.0046 100.728 26.6366 101.458 27.0838C101.605 27.162 101.757 27.2302 101.913 27.2877C101.774 27.3625 101.635 27.4372 101.499 27.5188C100.588 28.0592 99.4117 29.2727 98.8305 29.8573C100.127 30.013 101.443 29.8843 102.685 29.48C102.76 29.4528 102.834 29.429 102.909 29.3984C102.829 29.5972 102.767 29.8032 102.726 30.0136C102.614 30.7293 102.606 31.4574 102.702 32.1753V32.2433C103.454 31.8335 104.086 31.2334 104.534 30.5031C104.709 30.1846 104.831 29.8404 104.898 29.4834C104.971 29.6527 105.058 29.8153 105.159 29.9694C105.576 30.5606 106.13 31.0422 106.774 31.3732V31.3188C106.758 30.6978 106.664 30.0812 106.495 29.4834C106.302 28.9195 105.979 28.4085 105.554 27.9913C105.27 27.7255 104.973 27.4748 104.663 27.2401C104.684 26.8518 104.684 26.4626 104.663 26.0743C104.608 25.4814 104.417 24.9092 104.106 24.402C103.751 23.892 103.335 23.4283 102.865 23.022L102.821 22.9846C102.673 23.6865 102.694 24.4135 102.882 25.1056Z" fill="#FEB139"/>
<path id="Vector_7" d="M106.764 25.9961C106.764 26.0267 105.618 26.6963 104.17 27.4916C102.722 28.287 101.529 28.9022 101.509 28.8682C101.488 28.8342 102.654 28.168 104.106 27.3727C105.557 26.5773 106.74 25.9757 106.764 25.9961Z" fill="#FEA1BF"/>
<path id="Vector_8" d="M103.98 27.5358C104.007 27.748 103.989 27.9636 103.926 28.168C103.906 28.38 103.843 28.5858 103.742 28.773C103.714 28.561 103.732 28.3456 103.793 28.1408C103.813 27.9284 103.877 27.7225 103.98 27.5358Z" fill="#FEA1BF"/>
<path id="Vector_9" d="M103.446 27.8893C103.426 27.9233 103.242 27.8281 103.015 27.7227C102.787 27.6174 102.597 27.5392 102.603 27.5018C102.61 27.4644 102.828 27.5018 103.069 27.6004C103.31 27.699 103.47 27.8621 103.446 27.8893Z" fill="#FEA1BF"/>
<path id="Vector_10" d="M88.1205 49.5166C88.1205 49.5166 92.8212 49.4895 92.5561 44.4964C92.5561 44.4964 87.665 45.0301 88.1205 49.5166Z" fill="#F9F9F9"/>
<path id="Vector_11" d="M93.4772 43.3306C92.8797 44.1398 92.2387 44.9159 91.5568 45.6555C90.9179 46.4307 90.2371 47.1706 89.5175 47.8716C90.1155 47.0619 90.7578 46.2857 91.4412 45.5467C92.0785 44.771 92.7582 44.0312 93.4772 43.3306Z" fill="#FEA1BF"/>
<path id="Vector_12" d="M89.4291 46.8213C89.4291 46.7737 89.6772 46.6887 90.0035 46.6242C90.3298 46.5596 90.6017 46.546 90.6119 46.5902C90.6221 46.6344 90.3604 46.7227 90.0341 46.7873C89.7078 46.8519 89.4291 46.8655 89.4291 46.8213Z" fill="#FEA1BF"/>
<path id="Vector_13" d="M91.6486 45.3972C91.7161 45.6066 91.7324 45.8293 91.6962 46.0464C91.7093 46.267 91.6685 46.4875 91.5772 46.6887C91.5078 46.4796 91.4914 46.2565 91.5296 46.0396C91.55 45.6827 91.601 45.3938 91.6486 45.3972Z" fill="#FEA1BF"/>
<path id="Vector_14" d="M39.8388 51.1481C39.8388 51.1481 43.0372 54.598 46.5381 51.0292C46.5381 51.0258 42.8638 47.7696 39.8388 51.1481Z" fill="#F9F9F9"/>
<path id="Vector_15" d="M48.0132 50.9238C47.0129 51.0299 46.0076 51.0809 45.0018 51.0768C43.9964 51.1305 42.9889 51.1305 41.9835 51.0768C42.9851 50.9729 43.9914 50.9219 44.9984 50.9238C46.0026 50.8701 47.009 50.8701 48.0132 50.9238Z" fill="#FEA1BF"/>
<path id="Vector_16" d="M42.7075 50.2848C42.7347 50.2474 42.9726 50.3766 43.2377 50.5771C43.5028 50.7777 43.7 50.9646 43.6728 51.002C43.6456 51.0394 43.4077 50.9068 43.1391 50.7097C42.8706 50.5125 42.6803 50.3188 42.7075 50.2848Z" fill="#FEA1BF"/>
<path id="Vector_17" d="M45.2601 50.9646C45.2906 50.9986 45.0867 51.2127 44.8114 51.4404C44.5361 51.6682 44.288 51.8211 44.2574 51.7803C44.2268 51.7396 44.4307 51.5322 44.706 51.3045C44.9813 51.0768 45.2431 50.9272 45.2601 50.9646Z" fill="#FEA1BF"/>
<path id="Vector_18" d="M88.7493 73.5572C88.7493 73.5572 91.8559 72.0209 90.0681 68.7987C90.0715 68.8021 87.0023 70.7225 88.7493 73.5572Z" fill="#F9F9F9"/>
<path id="Vector_19" d="M90.3128 67.7383C90.1752 68.4665 89.9993 69.1869 89.786 69.8966C89.6122 70.617 89.3988 71.3273 89.147 72.0243C89.2805 71.2956 89.4552 70.575 89.6704 69.866C89.8425 69.1447 90.057 68.4343 90.3128 67.7383Z" fill="#FEA1BF"/>
<path id="Vector_20" d="M88.7493 71.3513C88.7289 71.3241 88.8717 71.1848 89.0688 71.0352C89.266 70.8857 89.4393 70.7939 89.4597 70.8177C89.4801 70.8415 89.3373 70.9876 89.1402 71.1338C88.9431 71.28 88.7663 71.3785 88.7493 71.3513Z" fill="#FEA1BF"/>
<path id="Vector_21" d="M89.769 69.6893C89.7996 69.6893 89.9083 69.8626 90.0103 70.1073C90.1123 70.352 90.1701 70.556 90.1395 70.5696C90.1089 70.5832 90.0001 70.3962 89.8981 70.1549C89.7962 69.9136 89.7316 69.7029 89.769 69.6893Z" fill="#FEA1BF"/>
<path id="Vector_22" d="M6.85222 39.3981C6.85222 39.3981 6.39336 43.2558 10.5129 43.5447C10.5129 43.5447 10.574 39.4864 6.85222 39.3981Z" fill="#F9F9F9"/>
<path id="Vector_23" d="M11.366 44.4217C10.7684 43.8465 10.2012 43.2407 9.66653 42.6066C9.09601 42.0032 8.56037 41.3677 8.06224 40.7032C8.66035 41.2779 9.22763 41.8837 9.7617 42.5183C10.3315 43.1224 10.8671 43.7578 11.366 44.4217Z" fill="#FEA1BF"/>
<path id="Vector_24" d="M8.92897 40.7406C8.96636 40.7406 9.01054 40.9582 9.02754 41.2335C9.04453 41.5088 9.02754 41.7297 8.99355 41.7331C8.95956 41.7365 8.91198 41.5156 8.89158 41.2403C8.87119 40.965 8.89158 40.744 8.92897 40.7406Z" fill="#FEA1BF"/>
<path id="Vector_25" d="M9.86706 42.712C9.68817 42.7447 9.50405 42.7342 9.33003 42.6814C9.03772 42.6304 8.8066 42.5591 8.81339 42.5217C8.99292 42.4846 9.17893 42.494 9.35382 42.5489C9.64273 42.5998 9.87386 42.6746 9.86706 42.712Z" fill="#FEA1BF"/>
<path id="Vector_26" d="M19.2719 90.2018C19.2719 90.2018 23.7279 93.4511 26.9535 88.5567C26.9535 88.5567 21.9808 85.637 19.2719 90.2018Z" fill="#F9F9F9"/>
<path id="Vector_27" d="M28.6325 88.1046C28.6325 88.1386 27.0996 88.5023 25.1894 88.9204C23.2792 89.3385 21.7293 89.6546 21.7225 89.624C21.7157 89.5934 23.2588 89.2263 25.1656 88.8082C27.0724 88.3901 28.6257 88.0741 28.6325 88.1046Z" fill="#FEA1BF"/>
<path id="Vector_28" d="M22.3785 88.5635C22.6169 88.6112 22.8463 88.6961 23.0583 88.815C23.2797 88.9012 23.4861 89.0216 23.6701 89.1719C23.4365 89.1263 23.2124 89.0412 23.0073 88.9204C22.779 88.8379 22.5664 88.7172 22.3785 88.5635Z" fill="#FEA1BF"/>
<path id="Vector_29" d="M25.4715 88.7708C25.3561 88.9992 25.2084 89.2098 25.0331 89.3962C24.8856 89.6049 24.7067 89.7895 24.5028 89.9435C24.767 89.5076 25.0933 89.1125 25.4715 88.7708Z" fill="#FEA1BF"/>
<path id="Vector_30" d="M23.9522 62.8302C23.9522 62.8302 24.7272 66.3991 28.4796 65.3964C28.4796 65.3964 27.3036 61.763 23.9522 62.8302Z" fill="#FEB139"/>
<path id="Vector_31" d="M29.5095 65.9131C29.5095 65.9301 28.5747 65.4338 27.4463 64.8016C26.3179 64.1694 25.407 63.6426 25.407 63.6222C25.407 63.6018 26.3383 64.1014 27.4701 64.7336C28.6019 65.3658 29.5197 65.8927 29.5095 65.9131Z" fill="#FEA1BF"/>
<path id="Vector_32" d="M26.2091 63.3843C26.3055 63.5086 26.3792 63.649 26.4266 63.7989C26.5002 63.938 26.5497 64.0886 26.5728 64.2442C26.4797 64.1183 26.4074 63.9783 26.3586 63.8295C26.2868 63.6894 26.2363 63.5393 26.2091 63.3843Z" fill="#FEA1BF"/>
<path id="Vector_33" d="M27.6502 64.8492C27.4935 64.9149 27.327 64.9539 27.1574 64.9648C26.9927 65.0037 26.8231 65.0175 26.6544 65.0055C26.8116 64.9417 26.9779 64.9027 27.1472 64.89C27.3119 64.8511 27.4815 64.8373 27.6502 64.8492Z" fill="#FEA1BF"/>
<path id="Vector_34" d="M112.182 51.1481C112.182 51.1481 115.431 49.3807 113.392 46.0192C113.392 46.0294 110.193 48.2047 112.182 51.1481Z" fill="#FEB139"/>
<path id="Vector_35" d="M113.602 44.8839C113.623 44.8839 113.398 45.9274 113.106 47.2054C112.814 48.4834 112.555 49.5099 112.535 49.5065C112.515 49.5031 112.736 48.463 113.031 47.185C113.327 45.907 113.578 44.8805 113.602 44.8839Z" fill="#FEA1BF"/>
<path id="Vector_36" d="M112.083 48.8063C112.176 48.6743 112.291 48.5593 112.423 48.4664C112.537 48.3551 112.669 48.2643 112.814 48.1979C112.72 48.3296 112.605 48.4445 112.474 48.5378C112.357 48.646 112.226 48.7365 112.083 48.8063Z" fill="#FEA1BF"/>
<path id="Vector_37" d="M113.096 46.9913C113.202 47.1256 113.287 47.2758 113.347 47.4365C113.431 47.5852 113.492 47.7456 113.527 47.9124C113.338 47.6291 113.192 47.3185 113.096 46.9913Z" fill="#FEA1BF"/>
</g>
<path id="Vector_38" d="M113.515 24.3914C113.515 24.3914 116.461 22.2289 116.918 19.6143C117.375 16.9996 118.077 15.8355 118.077 15.8355C118.077 15.8355 118.494 14.2596 117.871 14.3446C117.249 14.4297 116.21 15.3386 115.669 17.125C115.669 17.125 114.84 18.4099 114.59 18.1637C114.339 17.9174 114.142 17.2056 113.842 15.7147C113.542 14.2238 112.597 11.0629 112.141 11.0226C111.684 10.9823 111.644 11.439 111.693 12.1419C111.742 12.8448 112.808 17.1876 112.235 17.2503C111.662 17.313 110.31 13.0284 109.454 12.5985C109.204 12.4732 108.828 12.7642 108.828 12.7642L109.723 15.8355L108.828 15.3386C108.804 15.7262 108.804 16.115 108.828 16.5026C108.872 17.0847 110.489 20.4023 110.448 20.9798C110.412 21.169 110.333 21.3476 110.218 21.5025C110.104 21.6574 109.956 21.7848 109.786 21.8752C109.786 21.8752 107.417 20.8365 107.417 21.338C107.417 21.8394 107.959 22.126 108.581 22.5826C109.204 23.0393 109.36 22.4841 109.329 23.1154C109.298 23.7467 109.284 24.5347 109.66 24.7003C110.036 24.866 113.515 24.3914 113.515 24.3914Z" fill="#FFBE9D"/>
<path id="Vector_39" d="M112.682 22.6095C112.494 22.5439 112.294 22.5209 112.096 22.5423C111.613 22.6369 111.143 22.7871 110.695 22.9901C110.065 23.3046 109.454 23.6544 108.863 24.0377C109.316 23.4653 109.917 23.0285 110.601 22.7752C111.069 22.562 111.57 22.4288 112.083 22.3812C112.503 22.3588 112.709 22.5961 112.682 22.6095Z" fill="#EB996E"/>
<path id="Vector_40" d="M80.5901 167.849L79.5827 176.62C79.5827 176.62 88.161 180.591 88.1341 182.23L71.0537 180.887L72.061 167.173L80.5901 167.849Z" fill="#FEB139"/>
<path id="Vector_41" d="M74.3578 175.469C74.1898 175.506 74.0414 175.603 73.9413 175.743C73.8412 175.883 73.7966 176.055 73.8161 176.226C73.8468 176.395 73.9416 176.547 74.0807 176.648C74.2199 176.75 74.3929 176.794 74.5638 176.772C74.7412 176.731 74.8973 176.627 75.0023 176.478C75.1072 176.329 75.1535 176.147 75.1324 175.966C75.0831 175.793 74.9681 175.645 74.8118 175.555C74.6555 175.464 74.4702 175.439 74.2951 175.483" fill="#E0E0E0"/>
<path id="Vector_42" d="M71.0134 181.249L71.1074 179.906L87.5297 181.298C87.5297 181.298 88.2639 181.688 88.1341 182.216L71.0134 181.249Z" fill="#263238"/>
<path id="Vector_43" d="M79.8692 176.575C79.8692 176.656 79.4215 176.665 79.0051 176.897C78.5888 177.13 78.3291 177.466 78.253 177.43C78.1769 177.394 78.3425 176.92 78.8708 176.642C79.3991 176.365 79.8916 176.481 79.8692 176.575Z" fill="#263238"/>
<path id="Vector_44" d="M81.6019 177.439C81.6019 177.52 81.2392 177.636 80.9303 177.963C80.6214 178.29 80.5095 178.661 80.4244 178.652C80.3393 178.644 80.3259 178.164 80.7199 177.757C81.1139 177.35 81.6064 177.359 81.6019 177.439Z" fill="#263238"/>
<path id="Vector_45" d="M82.4481 179.664C82.372 179.664 82.2914 179.248 82.5376 178.809C82.7839 178.37 83.1958 178.218 83.2226 178.29C83.2495 178.361 82.9943 178.585 82.7749 178.952C82.5555 179.32 82.5331 179.66 82.4481 179.664Z" fill="#263238"/>
<path id="Vector_46" d="M79.8737 174.534C79.8334 174.605 79.4618 174.462 78.9783 174.453C78.4947 174.444 78.1231 174.569 78.0828 174.493C78.0426 174.417 78.4186 174.148 78.9783 174.162C79.5379 174.175 79.923 174.471 79.8737 174.534Z" fill="#263238"/>
<path id="Vector_47" d="M63.0888 168.476L62.5828 177.291C62.5828 177.291 71.376 180.766 71.4432 182.404L54.3135 182.042L54.5329 168.274L63.0888 168.476Z" fill="#FEB139"/>
<path id="Vector_48" d="M57.3043 176.441C57.1376 176.486 56.9939 176.592 56.9011 176.738C56.8084 176.883 56.7733 177.059 56.8028 177.229C56.8434 177.395 56.9463 177.54 57.0903 177.634C57.2344 177.727 57.4086 177.761 57.5774 177.73C57.7534 177.681 57.9049 177.568 58.0025 177.413C58.1001 177.258 58.1369 177.073 58.1057 176.893C58.0482 176.72 57.9251 176.576 57.7627 176.492C57.6004 176.408 57.4117 176.391 57.2371 176.445" fill="#E0E0E0"/>
<path id="Vector_49" d="M54.2956 182.395V181.052L70.7671 181.5C70.7671 181.5 71.5238 181.845 71.4253 182.395H54.2956Z" fill="#263238"/>
<path id="Vector_50" d="M62.8649 177.211C62.8649 177.296 62.4396 177.323 62.0232 177.587C61.6068 177.851 61.3785 178.191 61.3024 178.156C61.2263 178.12 61.3606 177.641 61.871 177.336C62.3814 177.032 62.8828 177.135 62.8649 177.211Z" fill="#263238"/>
<path id="Vector_51" d="M64.6468 177.994C64.6468 178.075 64.2976 178.209 64.0066 178.558C63.7156 178.908 63.626 179.279 63.5589 179.27C63.4917 179.261 63.4335 178.791 63.8051 178.375C64.1767 177.959 64.6468 177.918 64.6468 177.994Z" fill="#263238"/>
<path id="Vector_52" d="M65.6184 180.157C65.5422 180.157 65.4348 179.754 65.6586 179.297C65.8825 178.841 66.281 178.67 66.3123 178.742C66.3436 178.814 66.1019 179.051 65.9228 179.427C65.7437 179.803 65.7034 180.157 65.6184 180.157Z" fill="#263238"/>
<path id="Vector_53" d="M62.7575 175.192C62.7172 175.268 62.3366 175.142 61.862 175.165C61.3875 175.187 61.0203 175.326 60.9666 175.254C60.9129 175.183 61.2845 174.892 61.862 174.874C62.4396 174.856 62.7978 175.124 62.7575 175.192Z" fill="#263238"/>
<path id="Vector_54" d="M43.9444 20.3217C44.2114 20.4103 44.4718 20.518 44.7234 20.644C45.4161 20.9613 46.1352 21.2175 46.8724 21.4096C47.9555 21.7101 49.1088 21.6312 50.1408 21.1858C50.7295 20.8977 51.2236 20.4472 51.5645 19.8874C51.9142 19.2676 52.2136 18.6208 52.46 17.9532C52.9985 16.6475 53.7455 15.4379 54.6717 14.3715C55.4248 13.5068 56.2871 12.7438 57.2371 12.1016C57.8748 11.6692 58.5524 11.2988 59.2608 10.9957C59.507 10.8793 59.7085 10.8211 59.8473 10.7674C59.914 10.7373 59.985 10.7177 60.0577 10.7092C59.8118 10.8441 59.5593 10.9666 59.3011 11.0763C57.5862 11.8972 56.0613 13.0668 54.8239 14.5103C53.9236 15.5614 53.1939 16.7474 52.6614 18.0249C52.4038 18.7046 52.0877 19.3607 51.7167 19.9859C51.3547 20.5803 50.8273 21.0564 50.199 21.3559C49.1217 21.8139 47.9184 21.8819 46.7963 21.5484C46.0533 21.3394 45.3333 21.0559 44.6473 20.7022L44.0921 20.4157C44.04 20.3891 43.9905 20.3576 43.9444 20.3217Z" fill="#263238"/>
<path id="Vector_55" d="M74.8235 39.6138C74.8127 39.5321 74.8127 39.4493 74.8235 39.3676C74.82 39.1324 74.835 38.8974 74.8682 38.6646C74.9828 37.8022 75.221 36.9608 75.5756 36.1664C75.9965 35.1501 76.6412 34.0084 77.3307 32.7458C78.1247 31.4058 78.7034 29.9494 79.0454 28.4298C79.2877 26.8916 79.2084 25.3199 78.8126 23.8139C78.493 22.5819 78.0583 21.3827 77.5142 20.2321C77.0665 19.2427 76.6501 18.4412 76.3726 17.9129C76.2472 17.6577 76.1398 17.4652 76.0592 17.2861C76.0185 17.2136 75.9855 17.1371 75.9607 17.0578C76.0159 17.1199 76.0626 17.1892 76.0995 17.2637L76.4531 17.8726C76.7531 18.401 77.1874 19.1755 77.662 20.1605C78.2275 21.3146 78.6774 22.5219 79.0051 23.7646C79.4189 25.2995 79.5044 26.9044 79.2559 28.4746C78.9104 30.0191 78.3178 31.4977 77.5008 32.8533C76.8024 34.1158 76.1577 35.2396 75.7099 36.2335C75.3471 37.0126 75.0882 37.836 74.9399 38.6826C74.8548 39.2735 74.8503 39.6138 74.8235 39.6138Z" fill="#263238"/>
<path id="Vector_56" d="M64.2349 10.051C61.9963 9.1556 59.3548 10.2167 57.6759 11.9494C55.9969 13.682 55.0657 15.9788 54.1389 18.2174C53.2121 20.456 52.2047 22.7304 50.4497 24.3511C49.3573 25.363 47.9917 26.1107 47.1769 27.3508C46.2814 28.7253 46.1695 30.5117 45.2651 31.8862C42.9728 35.3695 37.0674 34.4024 34.4393 37.6439C33.5081 38.7945 33.1544 40.2899 32.5097 41.6241C31.8649 42.9583 30.683 44.2432 29.201 44.194C29.9566 44.9487 30.927 45.4514 31.9793 45.6333C33.0316 45.8153 34.1144 45.6675 35.0796 45.2103C35.29 47.0997 31.9813 48.0533 32.335 49.9203C32.4738 50.6769 33.1947 51.1694 33.8707 51.5365C41.0969 55.4317 50.7362 54.2228 56.767 48.6443C59.0414 46.5445 60.7964 43.9477 62.8649 41.6554C64.9333 39.3631 67.5032 37.2946 70.5522 36.7708L64.2349 10.051Z" fill="#263238"/>
<path id="Vector_57" d="M54.712 23.7378C54.4881 20.0889 54.2643 16.2922 56.4491 13.3731C58.4101 10.7719 61.092 9.48245 64.2708 8.77954C65.8378 8.43479 67.7764 8.68552 69.33 9.08846C71.4566 9.64811 72.8042 11.5643 74.2056 13.2567C77.0217 16.6459 78.1813 21.9424 77.3396 23.7154L63.4604 36.5335C60.2055 35.8038 58.0878 35.6157 56.5208 32.6832C55.4462 30.6864 54.8508 26.0032 54.712 23.7378Z" fill="#263238"/>
<path id="Vector_58" d="M57.6445 16.4713L67.0153 10.7763C70.1493 9.43319 73.5609 12.7687 74.7697 15.9743C76.1129 19.5292 77.6172 23.9258 78.0201 26.7643C78.7857 32.1369 75.1771 33.8024 74.7787 34.0174H74.7518C74.7832 34.1338 75.016 34.9799 75.3518 36.153L76.4755 39.7929C76.4755 44.6193 74.5324 48.6622 68.2375 48.0443L56.5297 18.9427C56.3715 18.466 56.3984 17.9473 56.6049 17.4895C56.8114 17.0316 57.1825 16.6682 57.6445 16.4713Z" fill="#FFBE9D"/>
<path id="Vector_59" d="M72.6341 21.1186C72.6744 20.9977 73.3057 21.1768 73.9773 20.8992C74.6488 20.6217 74.9801 20.0486 75.0876 20.1068C75.1951 20.165 75.1324 20.3217 74.9891 20.5814C74.7986 20.9144 74.5024 21.1744 74.1474 21.3201C73.7952 21.4659 73.4043 21.4896 73.0371 21.3873C72.7505 21.3022 72.6117 21.1723 72.6341 21.1186Z" fill="#263238"/>
<path id="Vector_60" d="M65.5781 23.0438C65.6363 22.9229 66.29 23.1468 67.0376 22.9095C67.7853 22.6722 68.2151 22.1215 68.3271 22.1886C68.439 22.2558 68.3271 22.408 68.1614 22.6364C67.9056 22.9614 67.5576 23.2017 67.163 23.3259C66.7744 23.4515 66.3562 23.4515 65.9676 23.3259C65.6721 23.2363 65.5512 23.0975 65.5781 23.0438Z" fill="#263238"/>
<path id="Vector_61" d="M71.6178 25.7211C71.9757 25.4766 72.3621 25.2767 72.7684 25.1257C72.9565 25.0496 73.1266 24.9555 73.1177 24.8123C73.074 24.6086 72.9675 24.4238 72.8132 24.284C72.4909 23.8765 72.1551 23.4467 71.7969 22.999C70.3687 21.1634 69.2718 19.6277 69.3479 19.5695C69.424 19.5113 70.6418 20.9574 72.07 22.7931C72.4147 23.2408 72.746 23.6885 73.0639 24.0959C73.255 24.2902 73.3722 24.5452 73.3952 24.8168C73.388 24.8932 73.3637 24.9671 73.3242 25.0329C73.2847 25.0987 73.2309 25.1549 73.1669 25.1973C73.068 25.2564 72.9629 25.3045 72.8535 25.3406C72.4609 25.5233 72.0452 25.6514 71.6178 25.7211Z" fill="#263238"/>
<path id="Vector_62" d="M74.7563 34.0353C72.2049 34.8622 69.4743 34.966 66.8675 34.3352C66.8675 34.3352 69.8448 37.5901 75.1368 35.4008L74.7563 34.0353Z" fill="#EB996E"/>
<path id="Vector_63" d="M69.5673 27.8881C69.6259 27.6878 69.733 27.505 69.879 27.3559C70.025 27.2068 70.2055 27.0959 70.4045 27.033C70.6779 26.9255 70.9752 26.8938 71.2652 26.941C71.5551 26.9883 71.827 27.1129 72.0521 27.3016C72.2273 27.487 72.3264 27.7315 72.3297 27.9866C72.3297 28.1209 72.3297 28.0493 72.2715 28.1612C72.061 28.5758 71.7539 28.9336 71.376 29.2044C71.1646 29.3326 70.9194 29.3939 70.6725 29.3804C70.4257 29.3668 70.1887 29.2789 69.9926 29.1283C69.8145 28.9806 69.6806 28.7868 69.6056 28.568C69.5306 28.3492 69.5173 28.114 69.5673 27.8881Z" fill="#EB996E"/>
<path id="Vector_64" d="M69.4419 26.9926C69.5583 26.9479 69.818 27.7627 70.6955 28.1209C71.573 28.4791 72.4103 28.1209 72.455 28.2284C72.4998 28.3358 72.3118 28.4477 71.9491 28.5731C71.4739 28.7298 70.9587 28.714 70.494 28.5283C70.0483 28.3485 69.6891 28.0037 69.4911 27.5657C69.3568 27.2344 69.3837 27.0061 69.4419 26.9926Z" fill="#263238"/>
<path id="Vector_65" d="M66.9033 18.7323C66.9033 18.9561 66.1377 19.1352 65.3095 19.5605C64.4812 19.9859 63.8723 20.4828 63.6932 20.3485C63.6081 20.2814 63.6619 20.0486 63.8723 19.7486C64.1585 19.3701 64.5277 19.0623 64.9515 18.8488C65.3752 18.6354 65.8423 18.522 66.3168 18.5174C66.684 18.5308 66.9033 18.6248 66.9033 18.7323Z" fill="#263238"/>
<path id="Vector_66" d="M74.1787 17.4876C74.0489 17.6846 73.4266 17.5682 72.7013 17.6443C71.976 17.7204 71.3805 17.9174 71.2193 17.7518C71.1477 17.6667 71.2193 17.4787 71.47 17.2772C71.8099 17.0214 72.2148 16.8663 72.6386 16.8295C73.0571 16.7867 73.4791 16.8628 73.8564 17.0489C74.1474 17.219 74.2504 17.3936 74.1787 17.4876Z" fill="#263238"/>
<path id="Vector_67" d="M66.9302 10.1137C67.8256 12.2404 67.3555 14.3939 67.0153 16.6773C66.8716 17.4838 66.5963 18.2613 66.2004 18.9785C66.0219 19.2562 65.7823 19.4893 65.4998 19.6601C65.2173 19.8308 64.8995 19.9346 64.5707 19.9635C65.1707 18.495 66.384 16.6191 66.0124 15.0744C65.7795 16.8116 65.5333 18.5845 64.7722 20.1605C64.0111 21.7365 62.6276 23.1244 60.9039 23.4288L60.7114 22.2648C60.7302 23.149 60.4598 24.0152 59.9413 24.7317C59.6743 25.0811 59.3029 25.3362 58.8811 25.4602C58.4592 25.5842 58.0088 25.5705 57.5953 25.4212C57.4207 22.5155 54.909 19.9859 55.2851 17.0936C55.5268 15.0968 57.1073 13.5119 58.8041 12.4239C61.2077 10.888 63.9769 10.0195 66.8272 9.90778" fill="#263238"/>
<path id="Vector_68" d="M66.7153 10.2212C66.7153 10.2572 66.7513 10.2977 66.7738 10.3337L66.7153 10.2212Z" fill="#263238"/>
<path id="Vector_69" d="M66.7735 10.3331L67.069 10.1048C67.9644 9.28994 68.4748 8.49748 70.4716 9.48693C71.643 10.1197 72.6813 10.9725 73.5295 11.9986C74.3756 12.9028 75.0901 13.9216 75.6517 15.0252C76.2724 16.3504 76.6963 17.7592 76.9098 19.2069C75.8129 18.8442 75.0339 17.8637 74.4429 16.8698C73.8519 15.8759 73.3729 14.7924 72.5625 13.9596C73.0168 14.8168 73.3283 15.7423 73.4848 16.6997C73.5334 16.9621 73.4924 17.2333 73.3684 17.4697C73.3018 17.5848 73.1926 17.669 73.0644 17.7042C72.9362 17.7394 72.7994 17.7227 72.6834 17.6578C72.7018 16.4941 72.3914 15.3488 71.7879 14.3536C71.1854 13.3634 70.4865 12.4351 69.7016 11.5823C70.455 13.3775 70.8956 15.2885 71.0044 17.2324C71.0456 17.5096 71.0052 17.7928 70.888 18.0473C70.7638 18.2158 70.602 18.3529 70.4155 18.4477C70.2289 18.5425 70.0228 18.5925 69.8135 18.5935C69.3956 18.5925 68.9828 18.6843 68.6047 18.8621C68.7775 15.9058 68.1446 12.958 66.7735 10.3331Z" fill="#263238"/>
<path id="Vector_70" d="M54.5911 11.0987C54.7684 10.9977 54.9542 10.9123 55.1463 10.8435C55.5089 10.6913 56.0417 10.4809 56.6909 10.2301C58.0027 9.72421 59.8249 9.04368 61.871 8.4124C62.8316 8.0845 63.8187 7.84032 64.8214 7.68262C65.6641 7.54004 66.5293 7.72591 67.2391 8.20197C67.7151 8.52901 68.0482 9.02547 68.1704 9.5899C68.1911 9.73842 68.1911 9.88909 68.1704 10.0376C68.1704 10.1406 68.139 10.1943 68.1301 10.1943C68.1247 9.99322 68.1053 9.79275 68.0719 9.59438C67.9247 9.07097 67.5921 8.619 67.1361 8.32286C66.4516 7.89214 65.631 7.73247 64.8349 7.87514C63.8497 8.04603 62.8796 8.29454 61.9337 8.61835C59.8876 9.24516 58.0654 9.9033 56.7401 10.3645L55.1776 10.9196C54.9895 11.0013 54.7927 11.0614 54.5911 11.0987Z" fill="#263238"/>
<path id="Vector_71" d="M29.8189 37.608C29.8189 37.608 29.8502 37.608 29.9174 37.5633L30.2308 37.4424C30.3696 37.3931 30.5442 37.3573 30.7546 37.3036C30.9957 37.2541 31.2393 37.2183 31.4844 37.1961C32.1559 37.1383 32.8308 37.1293 33.5036 37.1693C34.3872 37.2381 35.2749 37.2381 36.1586 37.1693C37.2226 37.077 38.2237 36.6254 38.9971 35.8888C39.8533 35.0105 40.4966 33.9476 40.8775 32.7817C41.3252 31.5594 41.5939 30.2118 42.0505 28.8507C42.4654 27.4106 43.2842 26.1195 44.41 25.1302C45.0008 24.6358 45.7137 24.3095 46.474 24.1855C47.2217 24.0735 47.9559 24.1497 48.6499 24.0959C49.3311 24.069 49.985 23.8206 50.5124 23.3885C51.0102 22.9597 51.4258 22.4439 51.7391 21.8663C52.3087 20.7729 52.814 19.6472 53.2524 18.495C53.6432 17.488 54.0917 16.5044 54.5956 15.549C55.3104 14.1399 56.3643 12.9307 57.6624 12.0299C58.019 11.7937 58.4004 11.597 58.7996 11.4434C58.9339 11.3897 59.0414 11.3628 59.113 11.3405C59.1485 11.3251 59.1864 11.316 59.225 11.3136C59.225 11.3136 59.0817 11.3763 58.8175 11.4882C58.4293 11.6568 58.0588 11.8638 57.7117 12.1061C56.4529 13.0238 55.4333 14.2307 54.7388 15.6251C54.2462 16.5806 53.8067 17.5626 53.4225 18.5666C52.9864 19.7301 52.4842 20.8676 51.9182 21.9738C51.5923 22.5762 51.16 23.1147 50.6422 23.5631C50.081 24.0251 49.385 24.2922 48.6588 24.3243C47.938 24.3825 47.2082 24.3243 46.5008 24.4138C45.7819 24.5328 45.1079 24.8419 44.5488 25.3092C43.4577 26.2731 42.6641 27.528 42.261 28.9268C41.8132 30.27 41.5222 31.6131 41.07 32.8533C40.6747 34.0476 40.0081 35.1341 39.1224 36.0276C38.3153 36.7868 37.2724 37.2466 36.1675 37.3305C35.2736 37.4032 34.3752 37.4032 33.4812 37.3305C32.8134 37.2861 32.1433 37.2861 31.4754 37.3305C30.9147 37.362 30.3592 37.455 29.8189 37.608Z" fill="#263238"/>
<path id="Vector_72" d="M60.4741 76.4654C60.4741 76.4654 56.1089 81.0456 53.821 86.6823C51.5332 92.3191 52.5361 119.451 52.5361 119.451L53.0151 133.679C53.0151 133.679 51.2914 147.5 51.8197 156.217C52.1965 161.848 52.9157 167.45 53.9732 172.993L63.4872 173.441L73.5788 99.5095L71.0447 133.621L68.8061 173.468L80.9348 173.347C80.9348 173.347 84.8434 138.738 85.6358 133.133C86.5313 126.798 87.8073 120.503 87.8073 120.503C87.8073 120.503 89.8354 103.825 89.1504 94.8442C88.4654 85.863 83.0928 73.3046 82.9137 72.7762L61.4009 76.649" fill="#263238"/>
<path id="Vector_73" d="M16.0695 0.425111C15.7533 0.639856 15.5071 0.9427 15.3615 1.29608C15.2158 1.64945 15.1771 2.03781 15.2502 2.41298C15.3338 3.26694 15.6143 4.08989 16.0695 4.81722C16.0695 4.81722 10.979 0.232592 10.4014 0.0400738C10.2518 -0.00338058 10.0941 -0.0116809 9.9407 0.0158181C9.78731 0.043317 9.64235 0.105873 9.51711 0.198609C9.39187 0.291344 9.28975 0.411754 9.2187 0.550448C9.14765 0.689141 9.1096 0.84237 9.1075 0.998189C9.15227 1.66977 12.1788 3.97551 12.5863 4.55307C12.9937 5.13062 12.6131 4.88886 12.2281 4.79484C11.8431 4.70081 8.86573 2.38612 8.72246 2.46223C8.5792 2.53834 7.13754 2.77563 7.95239 3.88149C8.76724 4.98735 11.1222 6.03949 11.4088 6.47378C11.6953 6.90806 12.0311 6.9797 11.9818 7.41398C11.9326 7.84827 9.45672 6.77375 9.45672 6.77375L8.22102 6.13799C8.09287 6.07288 7.94702 6.05121 7.80548 6.07625C7.66393 6.10129 7.53437 6.17167 7.43633 6.27679C7.33828 6.38191 7.27708 6.51605 7.26195 6.659C7.24682 6.80194 7.27858 6.94593 7.35245 7.06924C7.46187 7.24052 7.59964 7.39192 7.75987 7.51696C8.81648 8.38105 11.073 9.15113 11.073 9.15113C11.073 9.15113 11.9684 9.67943 11.9371 10.2033C11.9057 10.7271 7.66585 12.3657 7.66585 12.3657C7.66585 12.3657 7.42408 13.0373 8.00164 13.2612C8.57919 13.485 9.66267 12.8761 9.66267 12.8761C9.66267 12.8761 12.2281 11.8195 12.8504 12.012C13.4727 12.2046 16.0203 13.597 17.1709 13.8029C17.9038 13.9165 18.6498 13.9165 19.3826 13.8029L21.3705 9.57646C21.3705 9.57646 19.2841 5.22912 18.9036 4.36503C18.523 3.50093 17.2201 3.16514 16.9829 2.20255C16.7961 1.55662 16.486 0.953002 16.0695 0.425111Z" fill="#FFBE9D"/>
<path id="Vector_74" d="M17.2201 12.6478C17.2201 12.6478 27.3833 24.2885 30.0696 28.1254C32.841 32.1011 41.3297 39.2019 41.3297 39.2019C41.3297 39.2019 52.357 50.8426 53.3778 50.9545C54.3986 51.0664 58.2713 50.6456 58.2713 50.6456L57.5595 39.8466L39.5299 24.3511C38.818 23.7378 20.278 8.68103 20.278 8.68103L17.2201 12.6478Z" fill="#FFBE9D"/>
<path id="Vector_75" d="M15.5591 3.75613C15.5949 3.75613 15.7158 4.09192 16.0695 4.57098C16.3034 4.84959 16.4881 5.16603 16.6157 5.50671C16.6498 5.73581 16.609 5.9698 16.4993 6.17381C16.3904 6.34951 16.3202 6.5464 16.2934 6.75137C16.3567 7.5095 16.5697 8.24755 16.9202 8.92279C17.0791 9.2072 17.2081 9.50727 17.3052 9.81823C17.09 9.57318 16.9106 9.29883 16.7724 9.00338C16.364 8.32282 16.1202 7.55625 16.0606 6.7648C16.0871 6.52778 16.1667 6.29978 16.2934 6.0977C16.395 5.93299 16.4406 5.73978 16.4232 5.547C16.3077 5.22778 16.148 4.92636 15.9486 4.65157C15.7435 4.39184 15.6092 4.0833 15.5591 3.75613Z" fill="#EB996E"/>
<path id="Vector_76" d="M32.2634 24.0333C32.4961 24.056 32.7171 24.1463 32.8992 24.2929C33.3714 24.6085 33.7392 25.0573 33.9558 25.5824C34.1677 26.108 34.2161 26.6853 34.0946 27.2389C34.0658 27.4717 33.9728 27.6918 33.826 27.8747C33.8481 27.6518 33.884 27.4305 33.9334 27.2121C34.0063 26.6893 33.94 26.1565 33.7411 25.6675C33.5422 25.1785 33.2178 24.7507 32.8007 24.4273C32.4828 24.1721 32.2455 24.0646 32.2634 24.0333Z" fill="#EB996E"/>
<path id="Vector_77" d="M76.0188 38.2304C76.4356 38.321 76.8455 38.4407 77.2456 38.5885L84.8568 38.0871L88.1878 48.0712L85.6716 49.7009C85.9761 51.4335 87.3013 53.7751 87.0148 56.9315C86.8765 58.6542 86.5767 60.36 86.1193 62.0265L85.3717 76.2863L80.7915 83.8975H70.597L59.5921 75.3417L58.2713 64.3368L52.7778 51.5231L48.8648 48.8726L51.7615 34.8008C51.7615 34.8008 56.1402 35.6291 57.9713 37.5677L59.3996 38.8885C60.2583 38.6018 61.1869 38.6018 62.0456 38.8885L63.7782 38.5841C63.7782 38.5841 70.8164 43.9925 74.3802 42.9627C77.4023 42.0852 76.0188 38.2304 76.0188 38.2304Z" fill="#FEB139"/>
<path id="Vector_78" d="M77.0262 51.8947C77.0699 52.0506 77.091 52.2119 77.0889 52.3738C77.1151 52.8114 77.1016 53.2504 77.0486 53.6856C76.879 55.1398 76.3267 56.5229 75.4482 57.694C74.5696 58.8652 73.3962 59.7824 72.0476 60.3521C71.6447 60.5272 71.2266 60.6651 70.7985 60.764C70.6426 60.8079 70.4814 60.8305 70.3194 60.8312C70.3194 60.7864 70.9865 60.6655 71.9805 60.2044C73.2815 59.6109 74.4136 58.7017 75.2737 57.5593C76.1338 56.4169 76.6947 55.0776 76.9053 53.6632C77.0531 52.5842 76.9815 51.8947 77.0262 51.8947Z" fill="#263238"/>
<g id="Group" opacity="0.3">
<path id="Vector_79" d="M77.1158 52.5573C76.9726 54.4166 76.2798 56.1913 75.1254 57.6558C73.971 59.1203 72.4072 60.2085 70.6328 60.7819C72.7908 60.7819 75.2891 60.2312 76.6546 58.5657C78.0201 56.9002 78.338 54.3124 77.1158 52.5573Z" fill="black"/>
</g>
<path id="Vector_80" d="M82.3988 42.8419C83.032 43.9819 83.5972 45.1585 84.0912 46.3654C84.6535 47.5415 85.1468 48.7494 85.5687 49.9829C84.9355 48.8429 84.3704 47.6663 83.8763 46.4594C83.3132 45.2836 82.8198 44.0757 82.3988 42.8419Z" fill="#263238"/>
<path id="Vector_81" d="M76.4173 54.9347C76.3512 54.9682 76.2802 54.9909 76.2069 55.0019L75.589 55.1496C75.0473 55.275 74.2459 55.4317 73.2922 55.5973C70.7525 56.0347 68.1882 56.3143 65.6139 56.4346C63.0377 56.5505 60.4569 56.5057 57.8863 56.3003C56.9013 56.2197 56.0954 56.1346 55.5582 56.0585L54.9314 55.9689C54.8568 55.9619 54.7833 55.9469 54.712 55.9242C54.7861 55.9124 54.8617 55.9124 54.9358 55.9242L55.5671 55.9689C56.1178 56.0182 56.9103 56.0764 57.8997 56.1391C60.4638 56.2931 63.0342 56.314 65.6005 56.2018C68.1729 56.082 70.7374 55.828 73.2833 55.4406C74.2548 55.2929 75.0428 55.1586 75.589 55.0601L76.2158 54.9571C76.2821 54.9429 76.3496 54.9354 76.4173 54.9347Z" fill="white"/>
<path id="Vector_82" d="M86.2671 52.3783C85.8648 52.6227 85.4369 52.8224 84.9911 52.9737C82.8767 53.7988 80.6538 54.3131 78.3918 54.5004C77.9256 54.5615 77.4541 54.5705 76.9859 54.5273C77.4444 54.4359 77.9078 54.3716 78.3739 54.3348C79.229 54.2273 80.411 54.0438 81.6914 53.7483C82.9719 53.4528 84.1181 53.0946 84.9329 52.817C85.369 52.6458 85.8145 52.4993 86.2671 52.3783Z" fill="white"/>
<path id="Vector_83" d="M85.8642 63.1862C85.7836 63.2341 85.698 63.2732 85.609 63.3026L84.8478 63.5846C84.521 63.71 84.1181 63.8577 83.639 64.001C83.1599 64.1443 82.6227 64.3323 82.0138 64.4845C81.4049 64.6368 80.7423 64.8338 80.017 64.986C79.2917 65.1382 78.5216 65.2949 77.7023 65.4337C75.9235 65.7252 74.1298 65.9166 72.3297 66.0068C70.5265 66.0786 68.7208 66.0472 66.9212 65.9128C66.0929 65.8366 65.305 65.774 64.5707 65.662C63.8365 65.5501 63.1604 65.4561 62.5425 65.3397C61.9247 65.2233 61.3695 65.1069 60.8815 65.0039C60.3935 64.9009 59.9861 64.7935 59.6369 64.695L58.8578 64.4801C58.7663 64.4564 58.6766 64.4265 58.5892 64.3905C58.6834 64.392 58.7769 64.4071 58.8668 64.4353L59.6593 64.6099C59.9995 64.6905 60.4159 64.7845 60.9084 64.874C61.4009 64.9636 61.9471 65.089 62.5694 65.1785C63.1917 65.268 63.8633 65.3889 64.5976 65.4695C65.3318 65.5501 66.1109 65.6262 66.9347 65.6979C70.5227 65.959 74.1289 65.7997 77.6799 65.2233C78.4947 65.08 79.2738 64.9546 79.9901 64.7755C80.7065 64.5965 81.378 64.4666 81.9824 64.3278C82.5869 64.189 83.1331 64.01 83.6121 63.8801C84.0912 63.7503 84.5076 63.616 84.8344 63.504L85.6045 63.2623C85.688 63.2275 85.7751 63.202 85.8642 63.1862Z" fill="white"/>
<path id="Vector_84" d="M85.2552 73.6896C85.1711 73.7238 85.0843 73.7508 84.9956 73.7702L84.2479 73.9627C83.921 74.0478 83.5226 74.1418 83.0525 74.2313C82.5824 74.3209 82.0496 74.4462 81.4541 74.5358C80.2722 74.7417 78.8484 74.9164 77.259 75.0462C75.6696 75.176 73.9235 75.2029 72.0834 75.1447C70.2433 75.0865 68.5017 74.8895 66.9302 74.6656C65.3587 74.4418 63.9484 74.1418 62.7843 73.8463C62.1978 73.7165 61.674 73.5553 61.2128 73.4299C60.7517 73.3046 60.3622 73.1792 60.0398 73.0718L59.31 72.8255C59.2217 72.8041 59.1372 72.7694 59.0593 72.7225C59.1487 72.735 59.237 72.7545 59.3235 72.7807L60.0667 72.9867C60.389 73.0807 60.783 73.1926 61.2486 73.3046C61.7143 73.4165 62.2336 73.5642 62.8201 73.6851C63.9887 73.9582 65.3945 74.2224 66.9615 74.4507C68.5285 74.6791 70.2657 74.8358 72.0924 74.8984C73.919 74.9611 75.6741 74.8984 77.2456 74.8223C78.8171 74.7462 80.2453 74.5492 81.4317 74.3746C82.0227 74.2985 82.5555 74.191 83.0256 74.1105C83.4957 74.0299 83.8987 73.9493 84.2255 73.8776L84.9866 73.7299C85.0741 73.7053 85.1644 73.6917 85.2552 73.6896Z" fill="white"/>
<path id="Vector_85" d="M59.5921 49.0204C58.3988 49.1482 57.2213 49.3957 56.0775 49.7591C54.9611 50.1949 53.8916 50.7424 52.8853 51.3933C53.1186 51.1229 53.3937 50.8917 53.7001 50.7082C54.4121 50.2185 55.1859 49.8255 56.0014 49.5397C56.8145 49.251 57.6619 49.0704 58.522 49.0024C58.8775 48.953 59.2385 48.959 59.5921 49.0204Z" fill="white"/>
<path id="Vector_86" d="M63.6708 47.8384C63.6708 47.9011 63.3171 48.0399 62.8515 48.1473C62.3858 48.2548 61.9918 48.2951 61.9784 48.2324C61.965 48.1697 62.3321 48.0309 62.7977 47.919C63.2634 47.8071 63.6529 47.7757 63.6708 47.8384Z" fill="white"/>
<path id="Vector_87" d="M66.3571 45.8416C66.0114 45.9345 65.6599 46.0048 65.305 46.052C64.9653 46.17 64.6184 46.2657 64.2663 46.3385C64.5223 46.0568 64.8695 45.8745 65.2468 45.8237C65.6071 45.6967 66.001 45.7031 66.3571 45.8416Z" fill="white"/>
<path id="Vector_88" d="M82.9898 44.6954C82.7961 44.7592 82.5967 44.8042 82.3943 44.8297C82.0093 44.9058 81.4497 44.9999 80.7512 45.1118C79.3633 45.3267 77.4381 45.5908 75.3025 45.8102C73.1669 46.0296 71.2283 46.1684 69.8224 46.2356C69.1195 46.2714 68.5509 46.2938 68.1569 46.2982C67.9545 46.3183 67.7505 46.3183 67.548 46.2982C67.746 46.2503 67.9488 46.2247 68.1524 46.2221L69.8135 46.0833C71.2148 45.9759 73.149 45.8102 75.2801 45.5909C77.4112 45.3715 79.3364 45.1431 80.7288 44.9596L82.3809 44.7536C82.5812 44.7122 82.7853 44.6927 82.9898 44.6954Z" fill="white"/>
<path id="Vector_89" d="M86.0522 42.4479C86.0522 42.515 85.2642 42.5822 84.3375 42.8687C83.4107 43.1553 82.7078 43.5269 82.6764 43.4687C83.6371 42.7233 84.8395 42.3597 86.0522 42.4479Z" fill="white"/>
<path id="Vector_90" d="M60.6353 40.1824C60.6353 40.2137 60.1383 39.9809 59.3414 39.663C57.2622 38.8196 55.0645 38.3046 52.8271 38.1363C51.9675 38.0692 51.4347 38.0647 51.4347 38.0289C51.5566 37.9926 51.6836 37.9759 51.8108 37.9796C52.0525 37.9796 52.4018 37.9796 52.8361 37.9796C53.9686 38.0211 55.0945 38.171 56.1984 38.4273C57.2998 38.687 58.3734 39.0528 59.4041 39.5198C59.7981 39.6989 60.1115 39.86 60.3219 39.9675C60.5323 40.075 60.6442 40.1645 60.6353 40.1824Z" fill="white"/>
<path id="Vector_91" d="M63.0753 39.8825C63.0753 39.9496 62.5784 40.0257 62.0366 40.2988C61.4949 40.5719 61.1412 40.9212 61.083 40.8764C61.0248 40.8316 61.3426 40.3839 61.9336 40.0929C62.2736 39.88 62.6818 39.8048 63.0753 39.8825Z" fill="white"/>
<path id="Vector_92" d="M65.5557 40.0481C65.5557 40.1108 65.2155 40.2137 64.7767 40.272C64.3379 40.3302 63.9753 40.3257 63.9663 40.272C63.9574 40.2182 64.3066 40.1063 64.7453 40.0481C65.1841 39.9899 65.5468 39.9854 65.5557 40.0481Z" fill="white"/>
<path id="Vector_93" d="M66.5899 46.1908C66.5541 46.1908 66.3974 45.7431 66.0795 44.9864C65.2564 43.0532 64.0779 41.2916 62.6052 39.7929C62.283 39.4974 61.9767 39.185 61.6874 38.8572C62.0641 39.0836 62.4102 39.3575 62.7172 39.672C64.2798 41.1355 65.4827 42.9406 66.2317 44.9461C66.4047 45.3437 66.5251 45.7621 66.5899 46.1908Z" fill="#263238"/>
<path id="Vector_94" d="M63.7559 46.737C63.7156 46.737 63.6439 46.2356 63.4111 45.4476C63.0978 44.4265 62.6698 43.4442 62.1351 42.5195C61.5971 41.5943 60.9751 40.7206 60.2771 39.9093C59.9609 39.5897 59.662 39.2534 59.3817 38.9019C59.4879 38.9601 59.5858 39.0324 59.6727 39.1168C59.9224 39.3303 60.16 39.5575 60.3845 39.7974C61.1279 40.5882 61.7769 41.4626 62.3187 42.4031C62.8651 43.3416 63.2795 44.351 63.5499 45.4028C63.6323 45.7218 63.6907 46.0466 63.7245 46.3744C63.7525 46.4931 63.7631 46.6152 63.7559 46.737Z" fill="#263238"/>
<g id="Group_2" opacity="0.3">
<path id="Vector_95" d="M57.1655 50.8023C56.9416 51.0709 57.1655 51.5141 57.5057 51.6216C57.8516 51.691 58.2108 51.6287 58.5131 51.447C59.5508 50.9472 60.4564 50.2101 61.1564 49.2954C61.8564 48.3807 62.3313 47.3141 62.5426 46.1818C62.6286 46.473 62.7747 46.7429 62.9713 46.9742C63.1679 47.2055 63.4108 47.3931 63.6842 47.525L62.7888 41.5972L65.605 44.2477C65.9318 43.3522 65.2692 42.4568 64.6379 41.7808C64.0066 41.1047 63.2947 40.2317 63.5678 39.3317C63.6674 39.1108 63.7295 38.8747 63.7514 38.6333C63.7318 38.5264 63.6907 38.4246 63.6307 38.3339C63.5707 38.2433 63.493 38.1657 63.4022 38.1059C63.3114 38.0461 63.2095 38.0053 63.1026 37.9859C62.9956 37.9665 62.8858 37.9689 62.7799 37.9931C62.3538 38.1123 61.987 38.385 61.7501 38.7587C60.8547 39.9317 60.586 41.445 60.4652 42.8911C60.3443 44.3372 60.3622 45.8281 60.0174 47.2474C59.6727 48.6667 58.8489 50.0591 57.5326 50.6903" fill="black"/>
</g>
<path id="Vector_96" d="M62.0411 74.6522C62.0316 74.545 62.0316 74.4371 62.0411 74.3298C62.0411 74.1149 62.0411 73.7971 62.0098 73.3941C61.9784 72.5837 61.8978 71.4107 61.7053 69.978C61.1891 66.2343 60.1867 62.5739 58.7235 59.0895C57.9253 57.1726 56.9542 55.3324 55.8223 53.5916C54.9051 52.1672 53.8346 50.8475 52.6301 49.6561C51.8139 48.8498 50.9133 48.1338 49.9438 47.5205C49.2632 47.0728 48.8558 46.8892 48.8692 46.8624C48.9704 46.901 49.0691 46.9459 49.1647 46.9967C49.3573 47.0952 49.6438 47.225 49.9885 47.4444C50.9781 48.0351 51.896 48.7382 52.7241 49.5397C53.9549 50.7266 55.0483 52.0482 55.9835 53.4796C57.1344 55.2246 58.1178 57.0744 58.9205 59.0045C60.394 62.5052 61.3807 66.1914 61.8531 69.9601C61.994 71.0995 62.0703 72.246 62.0814 73.3941C62.0814 73.8015 62.0814 74.1194 62.0814 74.3343C62.0791 74.4414 62.0656 74.5479 62.0411 74.6522Z" fill="#263238"/>
<path id="Vector_97" d="M64.4095 35.5709C64.4767 34.0353 63.138 32.7011 63.2186 31.1654C63.2634 30.3103 63.7469 29.5491 64.0066 28.7298C65.005 25.5421 62.5067 21.8171 64.0961 18.88L57.0088 20.6082C58.0116 22.5648 57.9042 24.8974 57.5595 27.0733C57.2147 29.2492 56.6864 31.4296 56.9192 33.6189C57.1028 35.3337 57.752 36.9589 58.1549 38.6378C59.1394 42.7846 58.6305 47.1458 56.7177 50.9545C57.9735 50.6411 59.0999 49.9431 59.9395 48.9581C60.7792 47.9732 61.2901 46.7505 61.4009 45.461C61.5128 43.7418 60.9039 41.9375 61.5441 40.3391C62.2515 38.593 64.3289 37.4514 64.4095 35.5709Z" fill="#263238"/>
<path id="Vector_98" d="M59.3727 74.0746L56.8521 80.7904C56.8521 80.7904 38.0972 106.955 38.6389 109.135C39.1807 111.316 49.3841 119.769 52.4062 118.403C55.4283 117.038 63.1515 111.455 65.7617 105.867C68.3718 100.28 75.7099 84.6049 75.7099 84.6049L78.0291 80.2442L75.4368 78.4533L59.3727 74.0746Z" fill="#455A64"/>
<path id="Vector_99" d="M85.5463 75.8386C89.836 89.0495 91.5994 102.95 90.7443 116.814L86.0209 117.382C84.718 110.989 84.8792 104.399 84.3598 97.8932C83.8405 91.3879 82.5689 84.7034 78.7544 79.3935L85.5731 75.7357" fill="#455A64"/>
<path id="Vector_100" d="M64.7274 84.1528C64.3232 84.1053 63.9253 84.0137 63.541 83.8797C62.6028 83.6016 61.6819 83.2682 60.783 82.8813C59.8827 82.4927 59.0053 82.0533 58.1549 81.565C57.7918 81.3809 57.4521 81.1539 57.1431 80.8889C57.5199 81.0375 57.8851 81.2141 58.2355 81.4172C58.8982 81.7575 59.8249 82.2142 60.8726 82.6664C61.9202 83.1185 62.8873 83.4722 63.5947 83.723C63.9841 83.833 64.3631 83.9768 64.7274 84.1528Z" fill="#263238"/>
<g id="Group_3" opacity="0.2">
<path id="Vector_101" d="M52.5674 104.072L52.1197 104.108C53.7056 105.685 55.732 106.745 57.9321 107.149C60.1321 107.552 62.4028 107.28 64.4454 106.368C65.8243 105.724 67.1899 104.533 67.1317 103.015C62.4593 104.666 57.4291 105.031 52.5674 104.072Z" fill="black"/>
</g>
<path id="Vector_102" d="M75.9696 80.2621C74.219 79.9398 70.8522 80.8576 69.621 82.147C68.3897 83.4364 67.6465 85.1109 67.0421 86.7854C65.7258 90.4164 64.8035 94.4413 61.9336 97.0426C59.2473 99.4916 55.4328 100.145 51.8376 100.7C51.7436 102.044 51.757 103.606 52.8495 104.367C53.1824 104.577 53.5488 104.729 53.9329 104.815C55.0006 105.109 56.0932 105.304 57.1968 105.397C62.3097 105.813 67.7271 103.758 70.7313 99.5767C74.5279 94.3115 74.8279 87.9897 76.9725 81.865" fill="#455A64"/>
<path id="Vector_103" d="M76.9904 81.8829C76.9791 81.9482 76.9627 82.0126 76.9412 82.0754C76.8964 82.2097 76.8382 82.3977 76.7666 82.635C76.6054 83.1275 76.395 83.8528 76.1398 84.7975C75.8846 85.7422 75.598 86.9062 75.2712 88.2583C74.9444 89.6105 74.5728 91.1506 74.0579 92.8251C73.5183 94.6652 72.7671 96.4366 71.8193 98.1037C71.2945 99.0362 70.6732 99.911 69.9657 100.714C69.2076 101.566 68.3441 102.318 67.3958 102.952C65.3464 104.292 63.0166 105.144 60.5861 105.442C59.3066 105.599 58.0134 105.611 56.7312 105.478C56.0752 105.405 55.4235 105.298 54.7792 105.155C54.4568 105.084 54.1344 105.003 53.8121 104.913C53.4778 104.828 53.158 104.694 52.8629 104.515C52.5555 104.315 52.3031 104.041 52.1287 103.718C51.9597 103.401 51.8461 103.057 51.7929 102.702C51.692 102.036 51.6754 101.361 51.7436 100.691V100.597H51.8332C54.2374 100.226 56.5879 99.8274 58.6788 98.9543C59.7072 98.5397 60.6672 97.9721 61.5263 97.2709C62.3356 96.5912 63.0388 95.7944 63.6126 94.907C64.6233 93.2301 65.4262 91.4365 66.0034 89.5657C66.5135 87.9406 67.1113 86.3444 67.7943 84.7841C68.111 84.1108 68.4934 83.4704 68.936 82.8723C69.1419 82.599 69.3647 82.3388 69.6031 82.0933C69.836 81.869 70.0927 81.6708 70.3687 81.5023C71.285 80.9737 72.2816 80.5986 73.3191 80.392C73.9668 80.2455 74.6297 80.1779 75.2936 80.1905C75.5243 80.1935 75.7541 80.2221 75.9786 80.2756C75.9786 80.2756 75.7458 80.2397 75.2936 80.2353C74.6343 80.2404 73.9778 80.3216 73.337 80.477C72.3158 80.6953 71.3362 81.0762 70.4358 81.6053C70.1692 81.7702 69.9215 81.9638 69.6971 82.1828C69.4657 82.4265 69.249 82.6836 69.0479 82.9529C68.6159 83.5482 68.2425 84.1839 67.9331 84.8512C67.2621 86.4112 66.6748 88.0058 66.1736 89.6284C65.6001 91.5106 64.7971 93.315 63.7828 95.001C63.1999 95.9082 62.4846 96.7231 61.6606 97.4187C60.7854 98.1355 59.8074 98.7165 58.7594 99.1424C56.6372 100.038 54.2822 100.436 51.8645 100.808L51.963 100.7C51.8989 101.352 51.9155 102.009 52.0123 102.657C52.0497 102.984 52.155 103.299 52.3216 103.583C52.4881 103.867 52.7122 104.113 52.9793 104.305C53.5598 104.595 54.1798 104.799 54.8195 104.909C55.4549 105.051 56.0975 105.159 56.7446 105.231C58.0106 105.361 59.287 105.349 60.5502 105.196C62.9461 104.907 65.2437 104.072 67.266 102.755C68.1994 102.137 69.0522 101.404 69.8046 100.575C70.504 99.7818 71.1205 98.9192 71.6447 98.0007C72.588 96.3487 73.3391 94.5942 73.8833 92.7713C74.4071 91.1058 74.7787 89.5702 75.1279 88.2225C75.4771 86.8749 75.7637 85.7108 76.0234 84.7706C76.283 83.8304 76.5203 83.1007 76.6949 82.6171C76.7755 82.3798 76.8427 82.1963 76.8919 82.0619C76.9208 82.0001 76.9537 81.9403 76.9904 81.8829Z" fill="#263238"/>
<path id="Vector_104" d="M55.8626 105.151C56.1271 104.313 56.2364 103.435 56.185 102.558C56.0561 101.691 55.7677 100.854 55.3343 100.091C55.3567 100.091 55.5761 100.284 55.8313 100.709C56.1516 101.271 56.3512 101.893 56.4175 102.536C56.4838 103.179 56.4153 103.828 56.2163 104.443C56.1526 104.703 56.0317 104.944 55.8626 105.151Z" fill="#263238"/>
<path id="Vector_105" d="M55.988 101.887C55.3324 102.045 54.6611 102.129 53.9867 102.138C53.3157 102.213 52.6385 102.213 51.9675 102.138C52.6222 101.974 53.2941 101.89 53.9688 101.887C54.6395 101.807 55.3173 101.807 55.988 101.887Z" fill="#263238"/>
<path id="Vector_106" d="M56.3685 103.346C55.6816 103.48 54.9815 103.534 54.2822 103.508C53.5862 103.559 52.8867 103.535 52.1958 103.436C52.8812 103.302 53.5798 103.248 54.2777 103.275C54.9751 103.221 55.6764 103.245 56.3685 103.346Z" fill="#263238"/>
<path id="Vector_107" d="M80.2991 81.3993C83.4331 84.2334 84.6106 88.7285 84.4986 92.9594C84.3867 97.1903 83.1555 101.291 82.2063 105.415C81.2572 109.538 80.599 113.868 81.6153 117.973L77.5859 118.551C75.9468 116.797 74.6999 114.714 73.928 112.44C73.156 110.167 72.8768 107.755 73.1087 105.366C73.5251 101.421 75.316 97.7813 76.5964 94.0294C77.8769 90.2776 78.6425 86.0466 77.0442 82.4291" fill="#455A64"/>
<path id="Vector_108" d="M77.0441 82.4291C77.077 82.4843 77.104 82.5428 77.1247 82.6037L77.3486 83.132C77.6003 83.8251 77.7803 84.5422 77.8858 85.2721C78.0437 86.43 78.0572 87.603 77.9261 88.7643C77.7451 90.3043 77.4152 91.8232 76.9412 93.2997C76.4218 94.9473 75.7234 96.6978 75.0204 98.5961C74.2256 100.599 73.6506 102.683 73.3057 104.81C72.986 107.176 73.1815 109.583 73.8788 111.867C74.6219 114.329 75.9209 116.589 77.6754 118.47L77.5724 118.439L79.5513 118.152L81.6019 117.861L81.5034 118.005C80.9365 115.47 80.8364 112.853 81.2079 110.282C81.5354 107.908 82.0064 105.556 82.6182 103.239C83.1599 101.023 83.6748 98.923 84.0017 96.9306C84.3278 95.09 84.4599 93.2203 84.3956 91.3521C84.3212 88.6457 83.5502 86.0042 82.1571 83.6827C81.7616 83.0665 81.3121 82.4866 80.8139 81.95L80.411 81.5426C80.3618 81.5006 80.3181 81.4524 80.2811 81.3993L80.4289 81.5247C80.5274 81.6232 80.6662 81.753 80.8452 81.9187C81.3568 82.4458 81.8156 83.0216 82.2153 83.6379C83.6495 85.9593 84.4506 88.6159 84.5389 91.3431C84.6133 93.2238 84.4902 95.107 84.1718 96.962C83.8539 98.9633 83.3435 101.072 82.8062 103.288C82.2102 105.601 81.7513 107.946 81.4318 110.313C81.068 112.856 81.1697 115.444 81.7317 117.951L81.7586 118.076H81.6332L79.5871 118.372L77.6082 118.654H77.5456L77.5053 118.609C75.7245 116.696 74.4098 114.398 73.6639 111.893C72.9566 109.575 72.7626 107.131 73.0953 104.73C73.4468 102.583 74.0323 100.481 74.8414 98.4618C75.5532 96.5635 76.2606 94.8174 76.7889 93.1832C77.2717 91.7201 77.6091 90.213 77.7963 88.6837C77.9359 87.5313 77.9359 86.3663 77.7963 85.2139C77.6966 84.4882 77.5303 83.7733 77.2993 83.0783C77.2143 82.8544 77.1516 82.6753 77.1023 82.5455C77.0531 82.4156 77.0441 82.4291 77.0441 82.4291Z" fill="#263238"/>
<path id="Vector_109" d="M80.9572 114.736C80.0201 114.683 79.0802 114.699 78.1455 114.786C77.2224 114.948 76.3125 115.178 75.4234 115.475C75.6427 115.3 75.8913 115.165 76.1577 115.077C76.7849 114.819 77.4424 114.643 78.1142 114.553C78.7876 114.468 79.469 114.468 80.1423 114.553C80.4231 114.562 80.6995 114.625 80.9572 114.736Z" fill="#263238"/>
<path id="Vector_110" d="M78.6156 118.448C77.9186 117.424 77.353 116.317 76.9322 115.153C77.3144 115.641 77.6319 116.177 77.8769 116.747C78.1943 117.28 78.4425 117.852 78.6156 118.448Z" fill="#263238"/>
<path id="Vector_111" d="M80.7199 118.148C80.363 117.613 80.0714 117.037 79.8513 116.433C79.5601 115.866 79.3405 115.264 79.1976 114.642C79.5535 115.178 79.845 115.753 80.0662 116.357C80.3551 116.926 80.5745 117.527 80.7199 118.148Z" fill="#263238"/>
<path id="Vector_112" d="M74.9399 80.083C74.913 80.083 74.8458 79.998 74.8145 79.8144C74.7796 79.5746 74.8122 79.3299 74.9086 79.1077C75.0051 78.8854 75.1617 78.6945 75.3607 78.5563C75.5129 78.4533 75.6293 78.4354 75.6428 78.4623C75.6562 78.4891 75.3114 78.7443 75.1234 79.201C74.9354 79.6577 75.007 80.0651 74.9399 80.083Z" fill="#263238"/>
<path id="Vector_113" d="M80.1737 79.1025C79.6319 78.2474 78.347 77.9608 77.3396 77.84C76.7201 77.8176 76.1148 78.0289 75.6437 78.4319C75.1727 78.835 74.8703 79.4003 74.7966 80.0159C74.7617 80.6351 74.9386 81.2478 75.2983 81.7532C75.658 82.2585 76.1789 82.6264 76.7755 82.7962C77.3784 82.934 78.0088 82.8863 78.5841 82.6593C79.1593 82.4324 79.6526 82.0369 79.9991 81.5247C80.2526 81.178 80.4034 80.767 80.4343 80.3387C80.4651 79.9103 80.3748 79.4819 80.1737 79.1025Z" fill="#455A64"/>
<path id="Vector_114" d="M77.9172 78.3146C78.1547 78.4693 78.3415 78.6903 78.4544 78.9503C78.7852 79.5566 78.8697 80.267 78.6905 80.934C78.5112 81.6009 78.082 82.1733 77.4919 82.5321C77.2668 82.7024 76.9948 82.7993 76.7128 82.8097C76.7128 82.7738 77.0038 82.6843 77.3978 82.3933C77.9179 82.0238 78.2921 81.4838 78.4557 80.8672C78.6192 80.2506 78.5618 79.5962 78.2933 79.0175C78.1052 78.5698 77.8859 78.3414 77.9172 78.3146Z" fill="#263238"/>
<path id="Vector_115" d="M79.9229 78.7802C79.9453 78.7802 80.0976 78.9055 80.2453 79.201C80.4325 79.597 80.5054 80.0374 80.4557 80.4726C80.4182 80.9057 80.2634 81.3205 80.008 81.6724C79.8021 81.9321 79.6185 82.0351 79.6006 82.0172C79.5827 81.9993 79.7125 81.8426 79.8737 81.5695C80.0754 81.2236 80.202 80.8392 80.2453 80.4412C80.288 80.041 80.2437 79.6363 80.1155 79.2548C79.9991 78.9727 79.8916 78.8026 79.9229 78.7802Z" fill="#263238"/>
<g id="Group_4" opacity="0.2">
<path id="Vector_116" d="M80.2319 81.3948C79.847 81.8268 79.3763 82.1738 78.8498 82.4136C78.3232 82.6533 77.7525 82.7806 77.174 82.7872C77.3312 83.0825 77.5566 83.3361 77.8315 83.5269C78.1063 83.7176 78.4227 83.8401 78.7544 83.8841C79.0533 83.9031 79.3515 83.8392 79.6164 83.6993C79.8812 83.5595 80.1022 83.3492 80.255 83.0917C80.4079 82.8342 80.4866 82.5394 80.4825 82.24C80.4784 81.9406 80.3917 81.6481 80.2319 81.3948Z" fill="black"/>
</g>
<g id="Group_5" opacity="0.2">
<path id="Vector_117" d="M65.9004 85.3392C65.4396 84.8667 64.8594 84.5279 64.2215 84.3587C61.8889 83.517 59.3727 82.0754 57.058 81.2247C59.1846 83.1141 61.4904 85.3392 63.9304 86.7988C64.5214 87.1525 65.2736 87.4883 65.8512 87.0853C66.4287 86.6824 66.3168 85.8496 65.9004 85.3392Z" fill="black"/>
</g>
<g id="Group_6" opacity="0.2">
<path id="Vector_118" d="M85.2239 89.5343C84.8613 86.7316 83.5674 83.9692 81.3064 82.2724C82.5197 84.4886 83.7509 86.7495 84.2927 89.203C84.8881 91.8893 84.4494 93.6444 84.1807 96.4068L84.4449 97.75C85.2601 95.0928 85.5252 92.2974 85.2239 89.5343Z" fill="black"/>
</g>
<path id="Vector_119" d="M64.6424 87.2779C64.5131 87.2368 64.3909 87.1764 64.2797 87.0988C64.0558 86.9734 63.738 86.7764 63.3485 86.5257C62.3441 85.8583 61.3827 85.1285 60.4696 84.3408C59.5553 83.5537 58.6938 82.7072 57.8908 81.8068C57.5819 81.462 57.3401 81.1755 57.1834 80.9695C57.0911 80.8712 57.0141 80.7595 56.955 80.6382C57.3269 80.9702 57.6796 81.323 58.0117 81.6948C58.6519 82.3574 59.5608 83.2484 60.6219 84.1662C61.6829 85.0841 62.6948 85.8496 63.4425 86.4048C63.8593 86.672 64.2599 86.9635 64.6424 87.2779Z" fill="#263238"/>
</g>
</svg>
